<?xml version="1.0" standalone="no"?>
<!DOCTYPE svg PUBLIC "-//W3C//DTD SVG 20010904//EN"
 "http://www.w3.org/TR/2001/REC-SVG-20010904/DTD/svg10.dtd">
<svg version="1.0" xmlns="http://www.w3.org/2000/svg"
 width="1536.000000pt" height="1024.000000pt" viewBox="0 0 1536.000000 1024.000000"
 preserveAspectRatio="xMidYMid meet">

<g transform="translate(0.000000,1024.000000) scale(0.100000,-0.100000)"
fill="#ffffff" stroke="none">
<path d="M8360 7824 c-628 -28 -1000 -61 -1297 -115 -150 -27 -394 -94 -457
-126 -208 -105 -749 -477 -1001 -688 -33 -28 -90 -74 -127 -103 l-66 -52 -27
25 c-15 13 -43 28 -63 31 -53 10 -279 -4 -316 -20 -56 -23 -86 -74 -97 -163
-12 -89 4 -148 48 -183 l25 -20 -26 -9 c-14 -6 -94 -29 -178 -51 -84 -23 -220
-60 -303 -82 -453 -122 -794 -242 -1033 -365 -161 -82 -196 -107 -281 -200
-82 -89 -146 -204 -185 -335 l-27 -87 -120 -82 c-155 -104 -154 -102 -154
-309 1 -173 20 -296 80 -526 19 -73 35 -138 35 -145 0 -8 -12 1 -27 20 l-27
35 -17 -120 c-23 -167 -15 -183 106 -213 96 -24 266 -53 415 -69 134 -15 163
-22 182 -39 13 -12 42 -33 66 -46 l44 -24 -34 -7 c-18 -3 -145 -17 -283 -31
-324 -33 -465 -58 -465 -84 0 -72 1343 -153 3335 -201 683 -17 1293 -9 1640
21 66 6 255 14 420 19 329 9 482 28 595 74 48 20 105 30 263 46 111 11 303 32
427 46 124 13 333 35 465 49 306 31 967 102 1065 115 89 11 883 93 1120 115
222 20 500 71 515 94 5 10 -16 16 -87 26 -27 4 -48 12 -48 17 0 5 11 28 23 51
54 97 107 296 107 403 0 39 6 54 40 94 22 26 47 64 55 84 14 34 21 116 9 116
-3 0 -20 -11 -37 -24 -18 -13 -42 -29 -54 -35 -20 -10 -23 -9 -23 6 0 11 24
34 62 58 49 31 66 49 84 90 31 68 48 218 42 377 l-6 128 -54 63 c-30 34 -60
71 -66 82 -5 11 -15 81 -21 155 -25 294 -55 430 -128 580 -38 77 -62 110 -127
176 -45 45 -126 135 -181 200 -137 161 -352 382 -520 532 -77 70 -142 127
-144 129 -3 2 9 18 26 36 43 45 53 69 53 122 0 78 -39 127 -120 154 -44 14
-407 41 -555 41 -72 0 -157 8 -247 25 -234 41 -592 78 -988 101 -243 14 -1150
26 -1330 18z m1105 -81 c144 -7 147 -9 33 -38 -73 -18 -150 -62 -167 -94 -10
-17 -7 -20 18 -26 24 -5 39 1 83 34 71 55 139 79 261 92 247 28 823 -26 1155
-107 226 -55 363 -131 632 -351 163 -133 484 -443 623 -602 51 -58 127 -142
171 -186 44 -45 87 -99 97 -123 11 -24 19 -45 19 -46 0 -2 -33 -6 -72 -9 -99
-8 -514 -51 -839 -87 -146 -17 -274 -30 -285 -30 -13 0 -26 12 -36 33 -9 17
-41 67 -72 111 -31 43 -55 80 -53 82 2 2 165 24 363 49 381 48 393 49 437 67
71 28 75 139 9 236 -48 72 -254 292 -377 405 -288 262 -440 343 -749 396 -282
49 -653 72 -839 52 -144 -16 -224 -41 -270 -86 -63 -61 -81 -109 -157 -411
-22 -87 -60 -233 -85 -324 -95 -347 -126 -477 -132 -551 -5 -67 -2 -87 28
-182 19 -61 39 -107 47 -107 15 0 17 -7 -17 86 -16 43 -32 94 -36 112 -6 30
-5 32 22 32 15 0 44 5 64 10 19 5 100 19 180 30 321 45 1418 180 1461 180 23
0 36 -13 79 -72 28 -40 60 -91 71 -113 11 -22 26 -43 34 -48 7 -4 16 -21 19
-38 7 -30 8 -31 49 -25 121 20 534 66 902 101 l61 6 28 -133 c15 -73 34 -145
41 -160 17 -32 74 -55 101 -39 15 9 12 10 -17 11 -41 0 -53 7 -68 36 -12 23
-62 244 -62 274 0 22 13 26 95 35 51 5 65 3 83 -12 48 -39 87 -313 50 -350 -9
-8 -38 -19 -64 -24 -63 -12 -73 -23 -48 -53 72 -89 135 -178 154 -216 36 -72
38 -73 77 -50 35 20 53 19 53 -4 0 -14 -42 -55 -84 -82 -29 -18 -29 -18 -40 1
-6 10 -33 44 -61 73 -152 166 -342 126 -472 -100 -24 -43 -48 -80 -52 -82 -11
-7 -64 22 -82 46 -15 19 -15 28 -3 80 8 32 27 88 44 125 17 36 29 67 27 69 -3
3 -186 -10 -444 -31 -94 -8 -180 -15 -191 -15 -17 0 -19 11 -25 143 -9 186
-31 325 -57 350 -11 10 -20 27 -20 38 0 11 -6 22 -13 25 -7 2 -71 -2 -143 -11
-71 -9 -264 -31 -429 -50 -350 -41 -1072 -130 -1181 -146 -50 -8 -74 -16 -71
-23 3 -7 11 -48 17 -92 7 -43 16 -83 20 -87 4 -5 74 10 156 33 251 69 503 121
968 200 99 16 187 30 196 30 13 0 19 -13 23 -57 3 -33 14 -68 25 -82 19 -25
23 -26 118 -25 157 2 196 37 174 154 -8 41 -7 56 2 61 20 12 139 22 148 13 12
-12 37 -209 46 -354 4 -63 11 -121 17 -128 6 -8 8 -74 5 -178 l-5 -165 26 6
c31 6 311 34 434 42 l87 6 0 -26 c0 -16 -7 -28 -17 -31 -10 -3 -112 -14 -228
-26 -115 -11 -229 -22 -251 -25 -37 -5 -42 -3 -49 17 l-8 23 -4 -22 c-5 -25
-14 -28 -168 -43 -161 -15 -483 -49 -725 -75 -124 -14 -378 -41 -565 -60
l-340 -35 -17 23 -18 22 0 -22 c0 -15 -8 -24 -22 -28 -46 -10 -213 -23 -220
-17 -3 4 -8 18 -10 32 -3 25 -2 25 92 33 52 5 105 10 118 13 l22 4 -2 183 -3
182 -66 6 c-58 5 -74 11 -130 51 -77 56 -134 113 -125 127 7 11 258 111 280
111 15 0 21 -38 32 -187 4 -51 11 -93 15 -93 20 0 -5 278 -26 295 -7 5 -18 46
-25 91 -7 45 -16 87 -20 94 -7 11 -27 12 -117 1 -120 -13 -543 -74 -648 -92
l-68 -12 96 -31 c102 -35 203 -94 272 -162 98 -95 193 -253 235 -392 20 -66
21 -74 7 -96 -9 -13 -28 -26 -42 -29 -29 -5 -25 -10 -95 115 -19 35 -67 95
-105 134 -154 155 -345 192 -529 104 -72 -34 -186 -136 -236 -208 -19 -29 -40
-54 -47 -56 -6 -3 -73 -8 -148 -12 l-136 -7 7 29 c37 158 141 340 257 450 43
41 77 74 74 74 -11 0 -226 -84 -351 -138 l-140 -60 -50 38 c-60 44 -114 73
-173 90 -24 7 -43 16 -43 19 1 21 396 203 735 338 243 97 573 216 756 273 56
17 125 43 154 56 66 31 142 110 178 184 80 164 267 817 267 932 0 58 -20 82
-81 98 -192 52 -844 87 -1429 76 -503 -8 -1027 -44 -1141 -76 -51 -15 -60 -11
-14 6 53 20 223 58 365 83 299 53 745 89 1295 105 159 5 896 -3 1060 -11z
m1888 -153 c170 -17 222 -91 133 -187 l-33 -36 -96 69 c-53 38 -134 90 -179
116 l-83 48 85 0 c47 0 125 -5 173 -10z m-830 -212 c107 -218 203 -472 267
-709 49 -179 51 -189 31 -189 -13 0 -21 18 -34 73 -58 243 -169 558 -291 827
-31 68 -56 127 -56 132 0 25 24 -14 83 -134z m-3880 115 c-39 -14 -457 -315
-713 -515 -112 -87 -456 -377 -562 -473 -47 -44 -86 -69 -136 -89 -39 -15 -76
-34 -83 -42 -11 -13 20 -14 257 -7 540 16 1978 1 2545 -27 460 -22 759 -46
759 -60 0 -4 -35 -17 -77 -30 -419 -122 -922 -319 -1296 -507 -116 -58 -133
-63 -171 -58 -23 4 -120 2 -216 -5 -246 -16 -453 -61 -680 -149 -127 -49 -209
-97 -301 -174 l-69 -58 -82 3 -83 3 65 68 c103 109 218 173 541 300 241 95
645 227 969 317 63 18 167 47 230 65 63 19 225 63 360 99 313 85 380 104 354
105 -36 1 -176 -27 -486 -100 -840 -197 -1662 -456 -1938 -611 -76 -42 -138
-101 -146 -137 -20 -99 -41 -139 -36 -67 6 65 -25 94 -108 106 -164 23 -733
43 -1272 44 -307 1 -558 5 -558 9 0 38 170 212 300 307 209 153 567 335 907
460 72 26 114 48 133 68 14 16 42 37 61 46 19 9 108 82 199 164 290 258 633
523 955 735 174 115 375 230 384 220 3 -3 1 -8 -6 -10z m3625 -35 c29 -20 50
-48 85 -115 80 -156 223 -514 210 -527 -8 -8 -264 -8 -341 0 l-61 7 -20 66
c-29 94 -85 184 -131 210 -49 27 -150 40 -318 41 -122 0 -133 1 -128 18 3 9
14 50 25 91 46 166 103 211 293 231 46 5 142 7 215 6 123 -2 134 -4 171 -28z
m-2074 -27 c49 -12 89 -50 115 -111 24 -56 67 -305 76 -440 l6 -95 -34 77
c-45 101 -93 166 -139 190 -55 29 -171 40 -344 36 -135 -4 -157 -7 -200 -29
-42 -21 -54 -33 -81 -89 -18 -36 -47 -117 -65 -180 l-33 -115 -60 -12 c-33 -7
-83 -15 -112 -19 l-52 -6 43 133 c43 137 103 293 138 363 l20 38 106 -6 c133
-8 133 -8 272 3 63 5 125 10 138 10 42 2 62 35 62 104 0 34 -4 68 -8 75 -15
22 -66 30 -248 37 l-177 8 34 18 c30 16 61 18 269 18 129 0 252 -4 274 -8z
m-870 -7 c26 -10 18 -45 -30 -129 -59 -102 -156 -298 -224 -447 -29 -65 -53
-118 -54 -118 0 0 -26 10 -56 21 -39 16 -86 23 -162 27 -123 5 -190 -11 -271
-65 -27 -18 -57 -33 -66 -33 -33 0 -167 -39 -391 -115 -218 -73 -227 -75 -322
-75 -57 0 -98 4 -98 10 0 20 388 339 605 496 268 195 492 327 648 380 70 24
182 39 379 52 14 1 33 -1 42 -4z m3520 -45 c127 -23 153 -38 321 -177 104 -86
382 -355 443 -430 31 -38 34 -45 23 -68 -10 -23 -16 -25 -49 -20 -20 4 -77 10
-125 15 -79 8 -92 12 -120 39 -50 47 -66 51 -216 58 -82 4 -145 12 -150 18 -5
6 -31 63 -59 126 -27 63 -84 185 -127 271 -70 141 -85 189 -59 189 4 0 57 -9
118 -21z m-1606 -32 c8 -10 -5 -63 -49 -202 -65 -209 -88 -276 -100 -289 -4
-5 -13 11 -19 35 -7 24 -32 116 -56 203 -48 174 -53 216 -27 237 28 24 234 37
251 16z m727 -611 c106 -7 178 -17 191 -26 32 -20 51 -58 64 -129 14 -76 6
-127 -23 -158 -27 -30 -43 -30 -23 -1 16 23 21 84 9 127 -6 23 -7 23 -107 17
-273 -18 -431 -42 -496 -76 -50 -27 -118 -96 -153 -158 -31 -56 -54 -76 -99
-87 -23 -6 -28 -4 -28 13 0 26 109 415 119 425 5 5 18 -32 31 -82 22 -90 46
-129 73 -118 8 3 24 43 37 89 12 46 29 98 37 116 31 66 67 71 368 48z m-4661
-6 c47 -17 35 -55 -42 -132 -38 -37 -75 -68 -83 -68 -8 0 -54 24 -104 53 -81
48 -90 55 -90 82 0 25 7 33 45 53 37 18 60 22 146 22 57 0 114 -4 128 -10z
m1587 -76 c64 -19 138 -56 123 -61 -13 -5 -178 43 -213 62 l-26 14 31 1 c17 0
55 -7 85 -16z m3047 -301 c-10 -2 -26 -2 -35 0 -10 3 -2 5 17 5 19 0 27 -2 18
-5z m-90 -10 c-10 -2 -28 -2 -40 0 -13 2 -5 4 17 4 22 1 32 -1 23 -4z m-4908
-31 c0 -4 -89 -43 -197 -86 -669 -266 -973 -477 -1127 -783 -23 -46 -30 -53
-56 -53 -16 0 -31 4 -35 9 -3 5 2 52 11 103 10 56 14 109 10 131 -10 53 -65
103 -140 126 l-61 19 145 71 c305 150 687 280 1250 425 184 48 200 51 200 38z
m7538 -85 c7 -7 16 -38 22 -68 6 -30 13 -65 16 -79 5 -24 5 -24 -15 -6 -17 15
-71 136 -71 159 0 12 37 8 48 -6z m-1583 -137 c-4 -6 6 -10 21 -10 32 0 74
-35 74 -61 0 -19 -6 -21 -143 -39 -115 -15 -117 -14 -117 18 0 39 10 50 59 61
23 5 46 12 49 16 4 4 -2 5 -13 2 -53 -15 -90 -19 -80 -9 23 24 164 44 150 22z
m-7511 -391 c92 -34 127 -101 60 -113 -21 -5 -50 -22 -73 -45 -34 -34 -45 -39
-104 -45 -37 -3 -67 -4 -67 0 0 19 48 79 98 124 56 50 56 50 26 50 -36 0 -70
22 -60 38 11 18 59 14 120 -9z m-154 -64 c0 -2 -18 -32 -39 -65 -44 -68 -56
-98 -82 -210 -14 -61 -17 -68 -18 -37 -1 41 -7 45 -28 20 -13 -16 -14 -14 -8
22 15 90 123 275 161 275 8 0 14 -2 14 -5z m4160 -60 c56 -19 138 -88 156
-132 38 -89 2 -238 -61 -255 -38 -10 -295 -23 -295 -15 0 3 17 18 37 32 l38
25 -35 0 c-25 0 -44 -9 -68 -31 -17 -16 -37 -27 -43 -23 -19 11 -39 71 -39
114 0 39 16 55 25 25 16 -50 17 -51 31 -17 18 41 30 41 38 -3 9 -45 26 -45 26
-1 0 40 15 56 25 26 7 -21 20 -26 30 -11 3 5 31 13 62 17 51 6 57 5 73 -16
l18 -23 12 23 c12 22 13 23 26 5 11 -15 16 -16 29 -5 12 10 19 10 27 2 11 -11
7 -33 -19 -102 -4 -12 -1 -11 13 2 40 39 47 217 9 274 -21 33 -80 65 -128 70
l-42 5 50 -21 c28 -11 65 -36 83 -55 26 -29 32 -43 32 -80 0 -30 -4 -44 -11
-40 -6 4 -8 13 -5 20 2 7 -2 21 -10 32 -14 17 -15 17 -30 -2 -11 -14 -18 -16
-21 -7 -6 15 -30 16 -35 0 -3 -8 -20 -8 -69 2 -35 7 -75 14 -89 15 -23 2 -25
6 -24 44 1 49 19 71 72 87 l37 12 -46 1 c-71 2 -218 -75 -284 -147 -72 -79
-167 -172 -187 -183 -16 -8 -17 -7 -8 16 14 38 12 120 -4 159 -21 51 -77 89
-141 94 -30 2 -71 1 -92 -4 l-38 -8 35 -5 c34 -6 35 -7 32 -51 -4 -51 -18 -73
-32 -50 -5 8 -10 26 -10 40 0 22 -3 21 -23 -15 -18 -31 -29 -39 -46 -37 -13 1
-30 -3 -37 -9 -18 -14 -112 -39 -151 -39 -26 0 -31 3 -26 16 5 14 3 15 -14 6
-46 -25 -145 -163 -129 -179 3 -3 35 20 70 51 54 48 71 57 103 57 105 0 179 5
191 12 8 6 18 -5 31 -35 l18 -43 13 43 c15 49 36 55 45 11 5 -24 1 -39 -20
-69 -15 -22 -34 -45 -41 -51 -10 -8 -82 -12 -227 -13 l-212 -1 2 29 c3 40 73
144 141 208 65 62 179 124 302 164 73 24 102 28 205 28 115 1 123 0 189 -32
l69 -32 96 44 c53 24 105 47 116 50 33 8 137 -2 185 -19z m-3909 -57 c-5 -36
-10 -44 -30 -46 -13 -2 -27 2 -32 9 -6 10 -11 10 -23 -1 -9 -7 -19 -10 -22 -7
-10 9 73 87 93 87 17 0 19 -5 14 -42z m3705 -24 c-4 -15 -10 -39 -13 -55 -8
-41 -23 -36 -23 9 l-1 37 -20 -37 c-18 -36 -39 -50 -39 -28 0 14 80 100 92
100 6 0 7 -11 4 -26z m-579 -36 c-3 -7 -5 -2 -5 12 0 14 2 19 5 13 2 -7 2 -19
0 -25z m43 -29 c0 -66 -24 -62 -28 4 -2 37 0 47 12 47 12 0 16 -12 16 -51z
m56 -6 c-1 -21 -5 -40 -11 -43 -11 -6 -20 54 -11 77 10 25 23 5 22 -34z
m-1711 7 c277 -11 522 -26 563 -37 57 -14 45 -74 -41 -201 -67 -100 -66 -99
-432 -113 -469 -17 -793 -5 -1200 46 -140 18 -181 30 -195 55 -17 32 -23 192
-8 220 28 52 25 52 553 45 270 -3 612 -10 760 -15z m1750 -10 c17 -33 20 -60
6 -60 -5 0 -16 20 -24 45 -18 51 -6 61 18 15z m-3567 -57 c1 -26 5 -60 8 -75
4 -20 2 -28 -9 -28 -28 0 -40 28 -33 80 12 93 31 105 34 23z m52 40 c0 20 16
23 23 5 3 -10 8 -10 21 1 25 21 30 7 17 -55 -6 -32 -11 -70 -11 -86 0 -28 -2
-29 -32 -23 -47 10 -45 8 -53 84 -8 78 -1 102 21 74 12 -17 13 -17 14 0z m141
-40 c0 -39 6 -34 24 22 6 18 8 18 18 5 7 -9 19 -14 28 -12 30 6 1 -97 -35
-127 -13 -11 -17 -10 -25 10 -5 13 -10 18 -10 11 -1 -7 -5 -11 -10 -8 -5 4 -7
-2 -4 -13 8 -31 -16 -35 -28 -4 -8 21 -7 42 2 83 14 64 17 70 30 70 5 0 9 -17
10 -37z m9342 14 c8 -20 -3 -32 -48 -54 -65 -33 -93 -36 -105 -14 -9 17 -3 23
53 49 70 34 92 38 100 19z m-400 -34 c112 -77 201 -316 214 -570 15 -307 -68
-582 -202 -671 -111 -73 -222 -27 -303 126 -32 60 -83 219 -81 256 1 24 0 25
28 -71 12 -40 25 -73 30 -73 12 0 73 227 75 277 1 39 -4 47 -61 105 -35 35
-63 66 -63 69 0 3 14 4 30 1 38 -5 38 8 1 50 -23 26 -32 30 -43 21 -12 -10
-13 -6 -10 23 2 19 8 36 12 39 5 3 38 -20 75 -50 37 -30 72 -55 77 -55 19 0
27 56 34 229 7 177 7 180 -13 175 -39 -11 -93 -65 -123 -127 -45 -89 -27 -22
20 77 43 91 108 171 155 192 41 19 101 9 148 -23z m-5273 -78 c6 4 40 -73 40
-92 0 -2 -21 -3 -47 -1 -60 4 -63 14 -31 111 l23 72 3 -48 c2 -26 7 -45 12
-42z m-3429 54 c3 -6 9 -45 12 -86 9 -119 25 -130 242 -157 305 -39 511 -50
955 -48 239 0 483 5 543 11 130 11 164 28 260 131 37 39 79 75 93 80 14 6 57
10 95 10 l71 0 -32 -40 c-30 -38 -92 -151 -86 -157 4 -5 651 14 921 27 664 31
854 41 985 54 225 22 343 29 339 20 -2 -5 -16 -31 -30 -59 -64 -122 -141 -374
-204 -670 -26 -122 -30 -109 -15 46 19 190 63 396 125 584 4 11 -8 -7 -27 -40
-19 -34 -44 -65 -59 -72 -26 -13 -379 -52 -659 -73 -563 -43 -2958 3 -3960 76
-242 17 -353 35 -390 62 -46 34 -38 53 47 113 43 30 94 65 114 77 l36 22 99
-24 c54 -14 159 -34 232 -47 119 -19 135 -20 149 -7 8 9 22 55 31 103 l17 87
44 -6 c25 -3 48 -11 52 -17z m3039 -65 c0 -65 -12 -91 -47 -105 -41 -15 -48 3
-19 47 13 22 28 53 32 69 15 67 34 61 34 -11z m86 46 c8 0 14 -5 14 -12 0 -13
-69 -88 -81 -88 -5 0 2 44 17 99 3 7 11 10 20 7 9 -3 22 -6 30 -6z m1793 -20
c35 -6 97 -27 139 -47 207 -98 357 -368 392 -705 5 -57 7 -125 3 -152 -8 -48
-9 -44 -42 120 -42 212 -78 327 -136 429 -52 90 -142 187 -215 231 -27 16 -50
34 -50 40 0 31 -147 69 -238 62 -74 -5 -72 1 6 18 73 16 66 16 141 4z m26 -70
c12 -6 -6 -7 -50 -3 -78 6 -164 -11 -252 -52 -29 -13 -53 -22 -53 -20 0 9 121
66 158 74 48 12 171 12 197 1z m3195 -70 c0 -22 -52 -39 -155 -49 -60 -6 -141
-16 -180 -21 -38 -5 -98 -12 -132 -15 l-61 -7 -12 -66 c-17 -103 -48 -199 -92
-286 -22 -43 -37 -80 -35 -82 2 -3 132 11 289 30 275 34 336 36 345 9 5 -14
-21 -20 -137 -33 -52 -6 -167 -19 -255 -30 -88 -11 -349 -43 -580 -70 -231
-28 -546 -66 -700 -85 -154 -18 -401 -48 -550 -64 -148 -17 -287 -33 -308 -36
-37 -5 -38 -5 -35 22 3 27 5 28 93 38 l90 10 11 65 c12 63 35 372 30 378 -2 1
-45 -2 -95 -8 -102 -13 -121 -10 -121 19 0 17 10 20 78 26 42 3 94 8 114 11
l37 6 7 -47 c6 -41 -3 -174 -25 -373 -4 -35 -4 -65 1 -68 7 -4 403 40 948 105
135 17 351 42 480 57 209 23 237 28 254 48 24 28 79 139 99 201 20 60 48 205
42 214 -5 9 -37 6 -815 -79 -705 -77 -924 -100 -951 -100 -12 0 -19 7 -19 19
0 23 -10 21 385 61 165 16 444 45 620 65 176 19 408 44 515 56 107 11 326 36
485 54 340 38 335 38 335 25z m-3204 -15 c57 -17 157 -84 201 -135 82 -95 160
-267 184 -405 6 -39 25 -105 40 -148 33 -89 36 -143 14 -246 -78 -370 -340
-593 -606 -515 -147 43 -288 182 -369 367 -53 120 -91 363 -59 382 16 11 19 4
34 -96 18 -122 38 -186 88 -284 l40 -80 33 70 c56 122 105 265 106 309 1 55
-11 72 -90 129 -91 65 -148 115 -140 122 3 4 31 -1 62 -11 56 -18 74 -16 61 6
-9 14 -110 80 -123 80 -6 0 -13 -12 -17 -27 -8 -36 -32 -73 -47 -73 -16 0 -4
74 29 172 17 53 48 115 85 170 122 182 303 264 474 213z m-5523 -482 c51 -9
84 -19 74 -21 -16 -3 -163 18 -239 34 -25 6 -28 3 -28 -18 0 -35 38 -178 51
-194 6 -8 21 -12 33 -9 17 5 26 -5 53 -54 18 -33 29 -63 24 -65 -12 -8 -77 13
-100 32 -36 30 -100 258 -85 304 6 19 12 20 66 14 32 -3 100 -14 151 -23z
m769 7 c209 -9 673 -26 1378 -50 385 -14 386 -14 425 -53 27 -27 35 -46 49
-125 9 -51 19 -139 22 -195 6 -119 -6 -150 -72 -183 -35 -17 -59 -19 -254 -16
-249 3 -529 14 -1070 42 -549 29 -745 46 -789 67 -64 32 -114 160 -146 367
-22 150 -17 156 126 156 60 0 209 -4 331 -10z m3084 -163 c22 -26 24 -36 24
-135 0 -131 -11 -177 -48 -196 -44 -22 -150 -35 -454 -53 -238 -14 -292 -14
-315 -4 -26 13 -27 14 -8 22 11 4 135 15 275 24 362 23 430 31 459 53 33 25
39 48 40 164 1 88 -1 98 -19 108 -17 9 -319 22 -745 32 l-100 2 125 6 c69 4
264 6 433 6 l309 -1 24 -28z m4854 -56 c0 -58 -3 -71 -17 -75 -16 -5 -720 -86
-746 -86 -5 0 9 20 31 44 52 56 68 86 48 86 -9 0 -68 -18 -133 -40 -140 -48
-265 -84 -365 -106 -98 -20 -552 -83 -1123 -154 -132 -17 -255 -33 -272 -36
-38 -7 -36 -11 -22 71 l11 62 96 12 c53 6 234 27 401 46 167 19 358 42 425 50
1247 154 1561 191 1629 194 l37 1 0 -69z m-8769 -165 c100 -29 231 -56 268
-56 16 0 40 -13 61 -33 34 -32 34 -32 10 -35 -71 -8 -430 108 -430 139 0 12
-5 13 91 -15z m8400 -127 l37 -64 -132 -3 c-137 -4 -979 8 -974 13 2 2 84 13
183 24 99 12 326 39 505 60 179 21 329 38 335 37 5 -2 26 -32 46 -67z m-8292
-14 c147 -37 178 -48 195 -70 12 -15 38 -30 61 -35 135 -32 1848 -120 2322
-120 170 0 187 2 249 25 52 20 85 25 153 25 129 0 995 61 1141 80 41 5 93 10
114 10 l40 0 -35 -36 c-18 -19 -64 -60 -100 -90 l-66 -54 -214 -10 c-118 -5
-394 -13 -614 -16 -353 -6 -406 -5 -450 9 -39 13 -129 18 -420 27 -730 21
-1720 73 -2063 109 -50 5 -99 5 -125 -1 -30 -6 -67 -5 -132 6 -137 24 -305 62
-316 73 -6 6 -3 30 7 64 21 71 20 70 52 58 15 -6 105 -30 201 -54z m4679 48
c-2 -12 -14 -19 -33 -21 -17 -1 -158 -18 -315 -37 -322 -39 -632 -69 -890 -85
-444 -27 -517 -30 -694 -30 -104 0 -187 2 -185 5 11 10 203 26 494 40 596 29
913 57 1385 119 226 30 242 31 238 9z m52 -317 c0 -7 -6 -18 -12 -24 -18 -14
-298 -32 -463 -30 -77 1 -117 3 -90 5 118 8 453 44 485 52 54 14 80 13 80 -3z"/>
<path d="M10910 5574 c-322 -27 -757 -64 -905 -79 -190 -18 -592 -55 -605 -55
-6 0 -10 -71 -10 -190 l0 -190 38 5 c37 5 102 12 632 65 162 17 358 37 435 45
77 8 232 24 345 36 113 11 240 24 283 29 43 4 79 9 81 11 2 2 7 79 10 172 l7
167 -73 -1 c-40 -1 -147 -8 -238 -15z"/>
<path d="M5635 6340 c-12 -4 -27 -15 -34 -24 -19 -23 9 -32 46 -14 45 21 34
57 -12 38z"/>
<path d="M6968 6314 c-36 -19 -36 -34 0 -34 34 0 68 23 58 38 -9 16 -25 14
-58 -4z"/>
<path d="M3759 5382 c-19 -17 -21 -24 -14 -80 11 -94 19 -101 165 -122 157
-23 470 -49 660 -54 224 -7 796 11 828 26 33 16 112 131 112 163 0 12 -7 26
-16 29 -20 8 -853 34 -1319 41 -187 3 -352 8 -367 10 -16 3 -35 -3 -49 -13z"/>
<path d="M12138 5294 c-37 -19 -36 -35 1 -28 38 8 97 -12 142 -47 58 -45 134
-207 158 -331 l8 -48 -68 -55 c-38 -31 -77 -67 -85 -81 -22 -33 -14 -89 28
-196 l32 -83 13 45 c7 25 17 96 22 158 6 83 12 117 24 129 9 9 20 13 24 9 15
-15 4 -211 -16 -310 -21 -99 -62 -206 -79 -206 -5 0 -14 12 -21 28 -23 51
-122 221 -132 228 -6 3 -17 0 -24 -7 -17 -18 -95 -243 -95 -274 0 -23 2 -24
53 -19 28 3 74 16 102 29 36 18 53 21 62 13 20 -16 16 -26 -25 -53 -25 -17
-55 -26 -85 -27 -56 -3 -61 -14 -11 -24 117 -22 206 59 267 244 108 327 15
808 -175 908 -35 18 -85 17 -120 -2z"/>
<path d="M12156 5224 c-10 -27 -7 -204 4 -204 6 0 10 17 11 38 1 20 4 48 8 62
7 24 7 24 15 5 5 -11 10 -67 13 -125 5 -133 9 -150 32 -150 19 0 125 73 149
103 12 14 11 17 -10 22 -17 4 -33 25 -56 70 -17 34 -45 79 -61 98 -17 19 -31
41 -31 50 0 14 -40 47 -59 47 -5 0 -12 -7 -15 -16z"/>
<path d="M12158 4915 c-3 -6 -9 -25 -13 -44 -4 -18 -16 -52 -26 -75 -21 -47
-25 -142 -7 -181 12 -26 48 -42 68 -30 22 13 40 74 40 130 0 49 -4 61 -28 85
-23 22 -27 35 -24 63 4 39 -1 67 -10 52z"/>
<path d="M8423 5073 c-15 -10 -29 -164 -18 -190 7 -15 9 -13 15 12 4 17 8 48
9 70 1 42 15 74 27 63 12 -13 24 -101 34 -248 8 -121 13 -148 29 -164 19 -19
20 -18 83 7 102 41 238 109 238 118 0 5 -16 40 -35 78 -47 94 -131 183 -209
221 -62 31 -151 48 -173 33z m175 -87 c52 -27 113 -87 159 -156 48 -72 47 -70
15 -70 -22 0 -33 8 -50 38 -29 52 -96 127 -155 173 -55 44 -40 51 31 15z"/>
<path d="M8318 5056 c-97 -35 -187 -114 -247 -219 -43 -75 -47 -99 -19 -116
134 -85 216 -131 234 -131 39 0 54 30 63 136 17 178 24 344 15 344 -5 -1 -25
-7 -46 -14z"/>
<path d="M8391 4669 c-6 -18 -11 -40 -11 -51 0 -17 1 -18 25 -2 19 12 25 25
25 50 0 44 -24 45 -39 3z"/>
<path d="M8383 4592 c-47 -7 -90 -110 -78 -189 7 -48 45 -100 83 -114 27 -10
92 5 92 22 0 5 -4 9 -10 9 -5 0 0 15 11 34 46 78 44 154 -6 206 -28 29 -54 38
-92 32z"/>
<path d="M8794 4534 c-185 -97 -202 -115 -191 -195 7 -56 126 -298 136 -279
42 77 80 252 81 367 0 53 3 64 21 73 11 7 24 9 27 5 15 -15 4 -231 -16 -305
-59 -221 -120 -308 -264 -375 -99 -47 -165 -55 -258 -31 -34 9 -65 14 -68 11
-3 -2 22 -17 54 -32 51 -24 72 -28 149 -28 82 0 97 3 157 33 120 59 213 178
269 344 27 81 32 111 37 229 5 137 -4 195 -32 219 -11 8 -35 0 -102 -36z"/>
<path d="M8497 4313 c-14 -13 -6 -43 14 -54 29 -15 42 1 30 34 -10 26 -30 35
-44 20z"/>
<path d="M8401 4192 c-27 -23 -192 -323 -188 -342 2 -9 11 -14 22 -12 11 2 70
4 130 5 100 2 116 5 165 30 l54 28 28 -21 c29 -21 48 -20 48 4 0 29 -188 299
-220 316 -13 7 -24 5 -39 -8z"/>
<path d="M3383 4624 c-25 -11 -13 -113 28 -256 l20 -68 42 6 43 6 27 -52 28
-53 -51 6 c-54 6 -61 0 -31 -27 14 -12 55 -21 152 -31 242 -25 1153 -70 1641
-82 296 -7 300 -6 334 58 14 28 14 44 4 133 -24 218 -37 257 -92 275 -18 5
-175 15 -348 20 -347 12 -961 35 -1310 51 -395 18 -475 20 -487 14z"/>
</g>
</svg>
