<?xml version="1.0" standalone="no"?>
<!DOCTYPE svg PUBLIC "-//W3C//DTD SVG 20010904//EN"
 "http://www.w3.org/TR/2001/REC-SVG-20010904/DTD/svg10.dtd">
<svg version="1.0" xmlns="http://www.w3.org/2000/svg"
 width="1536.000000pt" height="1024.000000pt" viewBox="0 0 1536.000000 1024.000000"
 preserveAspectRatio="xMidYMid meet">

<g transform="translate(0.000000,1024.000000) scale(0.100000,-0.100000)"
fill="#ffffff" stroke="none">
<path d="M8280 7834 c-864 -25 -1365 -84 -1665 -198 -250 -96 -697 -415 -1154
-825 l-104 -94 -13 25 c-24 46 -60 52 -219 41 -118 -8 -148 -13 -178 -32 -47
-29 -68 -84 -75 -194 -5 -86 -4 -89 23 -117 15 -16 40 -34 56 -40 61 -26 73
-22 -446 -150 -854 -212 -1187 -340 -1475 -568 -97 -78 -121 -115 -195 -303
-57 -144 -75 -180 -119 -230 -119 -139 -125 -157 -106 -318 15 -135 36 -228
81 -367 44 -135 45 -147 24 -197 -8 -20 -15 -55 -15 -78 0 -23 -13 -84 -30
-136 -36 -112 -37 -127 -7 -157 37 -37 199 -57 572 -72 l170 -7 117 -56 c64
-31 117 -59 117 -63 1 -3 -29 -9 -66 -13 -370 -36 -885 -104 -900 -118 -3 -3
-2 -10 1 -16 47 -76 2054 -161 3806 -161 640 0 1015 10 1400 36 129 9 363 17
520 18 313 3 382 11 509 66 54 23 111 34 306 60 343 46 2052 289 2490 355 204
30 447 67 540 80 219 32 385 62 458 82 93 26 76 38 -79 55 l-102 12 39 78 c47
92 84 216 100 332 6 46 15 88 18 93 3 5 31 28 61 50 86 63 160 159 160 208 0
20 1 20 -66 -24 -33 -21 -80 -50 -106 -65 -44 -24 -48 -24 -48 -7 0 12 17 29
48 47 117 68 206 147 215 191 10 43 21 476 14 505 -4 16 -25 38 -56 58 l-50
31 6 83 c5 67 1 106 -21 207 -14 68 -39 189 -55 269 -32 163 -86 303 -144 374
-20 24 -63 61 -96 82 l-59 39 -52 144 c-102 284 -166 379 -272 400 -55 11
-215 22 -645 46 l-252 13 -103 65 c-432 270 -722 362 -1318 417 -118 11 -291
24 -385 30 -172 11 -964 20 -1175 14z m1115 -74 c99 -5 216 -12 260 -16 l80
-7 -86 -18 c-47 -9 -108 -26 -135 -38 -59 -27 -116 -69 -109 -82 12 -18 48 -8
83 22 82 72 198 94 451 86 307 -10 540 -57 755 -154 190 -85 814 -502 1126
-752 216 -174 169 -157 418 -153 212 3 213 3 256 -22 24 -14 58 -42 76 -63 45
-51 94 -157 86 -187 -3 -13 1 -45 9 -72 8 -27 15 -61 15 -75 0 -30 -34 -65
-72 -74 -24 -6 -28 -4 -34 22 -19 85 -47 164 -66 188 -21 27 -23 27 -100 22
-81 -5 -122 -22 -132 -54 -3 -10 3 -63 14 -118 10 -55 16 -103 12 -106 -4 -4
-68 -14 -142 -23 -249 -32 -805 -107 -827 -113 -22 -5 -22 -8 -15 -62 9 -73 9
-539 -1 -613 l-7 -57 189 2 c286 3 277 -26 -24 -73 -203 -32 -181 -19 -195
-108 -18 -114 -64 -289 -93 -354 -14 -32 -23 -58 -19 -58 4 0 45 4 92 10 263
29 488 34 463 9 -19 -19 -346 -71 -878 -139 -132 -17 -287 -37 -345 -45 -113
-15 -631 -82 -896 -115 -89 -11 -176 -20 -193 -20 -29 0 -31 2 -31 38 0 45 8
56 40 59 14 2 178 21 365 43 817 97 1029 122 1180 137 98 10 166 22 176 30 36
30 111 283 126 424 l6 60 -44 -6 c-24 -4 -73 -10 -109 -15 -36 -6 -229 -30
-430 -55 -1294 -159 -1360 -167 -1360 -147 0 25 234 95 414 123 525 81 1173
164 1443 185 71 5 93 10 98 23 4 9 10 120 12 247 12 495 -38 715 -203 892
l-63 69 162 33 c162 33 500 108 590 130 66 17 59 31 -12 23 -56 -5 -59 -4 -55
13 3 11 1 31 -5 45 -35 94 -328 353 -611 543 -137 92 -456 252 -590 296 -183
59 -276 74 -480 74 -203 1 -257 -9 -336 -60 -74 -48 -92 -89 -193 -434 -76
-262 -136 -466 -176 -595 -106 -341 -105 -337 -30 -559 30 -88 61 -201 69
-251 35 -210 51 -695 23 -695 -11 0 -16 46 -26 197 -10 169 -25 293 -36 293
-1 0 -22 -7 -45 -15 -23 -8 -59 -15 -79 -15 -64 0 -67 -8 -38 -96 24 -74 47
-170 47 -197 0 -6 -12 6 -27 28 -108 161 -217 253 -342 289 -104 30 -231 14
-335 -42 -64 -34 -185 -149 -242 -228 -52 -73 -45 -71 -301 -81 l-173 -6 0 23
c0 43 -32 145 -56 181 -52 75 -135 96 -486 120 -98 7 -178 15 -178 19 0 14
196 127 355 205 281 138 503 225 1105 435 494 172 552 203 618 327 79 151 332
914 332 1004 0 47 -22 95 -47 103 -179 54 -1008 87 -1737 68 -528 -14 -924
-35 -1036 -57 -14 -3 21 11 77 30 234 80 643 133 1188 154 301 11 1258 12
1470 1z m-2795 -248 c0 -4 -31 -27 -70 -50 -329 -203 -835 -609 -1221 -978
-73 -71 -117 -93 -163 -82 -15 3 479 439 709 626 349 282 745 540 745 484z
m3612 -52 c65 -19 95 -54 168 -202 56 -114 140 -329 140 -361 0 -4 -78 -7
-173 -7 l-173 0 -33 80 c-38 93 -84 159 -126 179 -33 16 -155 29 -277 30 -58
1 -78 4 -78 14 0 24 49 158 71 193 11 19 33 41 47 48 28 14 109 33 172 40 56
7 222 -3 262 -14z m342 -178 c108 -216 174 -393 220 -592 41 -177 42 -188 14
-200 -26 -11 -268 -56 -343 -64 l-50 -5 55 14 c30 8 116 24 190 36 74 13 139
26 143 29 8 7 -7 70 -69 288 -55 189 -132 394 -210 552 -22 47 -44 96 -48 110
-12 41 26 -25 98 -168z m-3275 142 c30 -22 24 -43 -50 -176 -33 -58 -111 -205
-173 -325 -111 -212 -115 -218 -142 -215 -102 11 -243 5 -304 -13 -85 -24
-162 -58 -202 -88 -21 -16 -68 -33 -128 -46 -52 -12 -138 -33 -190 -47 -82
-22 -122 -26 -300 -31 l-205 -6 20 23 c32 36 307 276 460 402 343 281 601 447
756 487 67 17 216 36 354 44 28 2 57 4 65 5 9 1 26 -5 39 -14z m641 1 c96 -7
176 -14 178 -14 5 -2 0 -47 -8 -66 -7 -19 -8 -19 -18 6 -13 33 -35 37 -277 53
-147 10 -175 15 -155 24 33 14 71 14 280 -3z m1199 -24 c138 -5 166 -9 174
-23 8 -13 -5 -64 -57 -220 -37 -112 -74 -218 -81 -235 l-14 -33 -187 0 c-222
0 -236 4 -295 91 -36 54 -200 324 -228 377 -27 51 -23 52 261 51 145 -1 337
-5 427 -8z m1698 -148 c164 -86 475 -294 527 -352 l19 -21 -70 0 c-38 0 -144
3 -235 7 l-165 6 -28 76 c-16 42 -55 133 -86 204 -32 70 -56 127 -54 127 2 0
43 -21 92 -47z m963 -33 c232 -13 241 -14 270 -46 27 -28 25 -29 -21 -10 -21
9 -144 22 -319 36 -157 11 -296 25 -310 30 -27 10 29 8 380 -10z m-4205 -21
c50 -6 98 -15 108 -21 12 -6 28 -6 45 0 15 6 91 13 170 16 131 5 143 4 140
-12 -3 -14 -26 -19 -153 -29 -214 -17 -230 -20 -262 -52 -19 -19 -49 -83 -93
-201 -35 -96 -73 -184 -85 -197 -15 -16 -45 -28 -115 -43 -107 -23 -120 -24
-120 -10 0 17 140 340 196 453 30 59 60 107 67 107 6 0 53 -5 102 -11z m4629
-30 c15 -12 38 -38 51 -58 26 -42 132 -302 141 -347 l6 -31 -103 -6 c-57 -4
-106 -3 -110 1 -4 4 -16 63 -28 132 -20 112 -53 266 -67 313 -8 27 75 24 110
-4z m-354 -49 c149 -11 145 -6 155 -190 4 -78 4 -144 1 -147 -3 -3 -56 35
-118 84 -62 49 -160 125 -218 169 -57 43 -111 85 -120 92 -16 13 29 12 300 -8z
m-1737 -405 c120 -11 141 -15 162 -35 32 -30 45 -77 45 -161 0 -52 -4 -72 -20
-90 l-19 -24 9 33 c10 38 3 97 -15 112 -9 8 -65 5 -191 -10 -325 -37 -414 -62
-422 -118 -2 -12 -9 -22 -16 -22 -13 0 -74 -61 -131 -133 -21 -26 -40 -45 -43
-42 -7 7 101 166 138 202 21 21 37 55 60 137 37 126 44 140 85 161 33 17 87
15 358 -10z m-4855 -14 c2 -7 -30 -46 -72 -88 -85 -84 -83 -83 -175 -30 -87
52 -93 82 -20 120 28 14 55 17 148 15 85 -2 116 -6 119 -17z m4223 -265 l20
-68 -27 -40 c-15 -21 -36 -43 -45 -49 -21 -11 -109 -24 -109 -17 0 14 82 292
97 329 l17 44 14 -65 c7 -36 22 -96 33 -134z m-2578 155 c76 -20 143 -48 134
-57 -5 -6 -241 51 -272 66 -39 17 59 11 138 -9z m4162 -223 c51 -53 82 -94
108 -148 35 -72 89 -238 81 -251 -2 -3 -45 -11 -96 -18 -51 -7 -138 -18 -193
-26 -55 -8 -280 -40 -500 -70 -220 -31 -546 -78 -724 -106 -179 -27 -329 -48
-334 -46 -5 1 -22 54 -38 117 -16 63 -46 161 -65 218 -20 57 -33 109 -31 117
3 7 30 16 62 20 54 6 57 5 94 -28 44 -39 80 -53 167 -61 72 -8 77 -4 94 76 6
32 15 60 20 63 5 3 92 17 192 30 197 27 375 58 783 134 143 27 271 50 284 50
16 1 44 -20 96 -71z m-4510 -8 c1223 -29 2150 -60 2229 -76 l30 -6 -27 -15
c-38 -19 -264 -101 -452 -163 -502 -164 -909 -342 -1210 -530 l-140 -87 -315
-12 c-317 -11 -631 -33 -760 -51 -152 -22 -206 -42 -294 -111 l-49 -39 -111 5
c-61 3 -244 7 -406 10 -368 6 -1218 34 -1247 40 -13 3 -26 17 -32 38 -24 73
-95 108 -295 146 -122 24 -276 47 -372 56 -102 10 -108 17 -55 65 151 137 441
277 821 395 144 45 909 239 916 233 2 -2 -65 -35 -149 -73 -279 -129 -603
-326 -728 -446 l-64 -61 65 45 c246 168 609 356 845 437 198 68 319 96 468
110 67 6 154 15 192 19 l70 7 -109 8 c-60 5 -161 6 -225 4 l-115 -6 48 25 c44
22 65 25 230 32 276 12 764 12 1241 1z m5938 -7 c24 -27 71 -212 55 -213 -2 0
-48 -7 -103 -15 -55 -7 -103 -11 -107 -7 -8 10 -38 157 -38 193 0 29 4 31 95
52 45 10 83 6 98 -10z m236 -95 c14 -63 8 -75 -8 -15 -6 25 -14 52 -18 62 -4
12 -3 16 4 12 6 -4 16 -30 22 -59z m38 -200 c6 -35 9 -65 7 -67 -6 -6 -26 51
-31 92 -9 64 14 41 24 -25z m-418 -32 c2 -45 -6 -27 -12 29 -4 34 -3 42 3 25
4 -14 8 -38 9 -54z m30 -103 c6 -12 20 -25 32 -28 11 -4 18 -9 16 -12 -19 -18
-78 55 -76 94 0 12 3 9 8 -8 5 -14 13 -35 20 -46z m6 -137 c56 -26 131 -103
176 -181 16 -27 29 -53 29 -57 0 -16 -27 -7 -46 14 -44 49 -135 107 -189 119
-145 32 -300 -70 -410 -272 -21 -38 -40 -67 -42 -66 -11 12 66 208 107 270
114 174 244 234 375 173z m441 -168 c10 -16 -47 -61 -130 -103 -65 -33 -106
-44 -106 -27 0 4 33 24 73 44 39 21 88 51 107 67 39 34 46 36 56 19z m-9756
-97 c20 -6 12 -9 -35 -14 -44 -4 -65 -12 -77 -27 -26 -32 -78 -203 -78 -255 0
-48 -5 -53 -35 -31 -18 13 -17 16 9 100 15 48 42 121 61 161 l34 75 48 -1 c26
-1 59 -4 73 -8z m9225 -52 c90 -24 197 -177 245 -352 130 -466 -16 -995 -274
-997 -162 -1 -320 248 -340 535 -5 63 -4 65 4 25 6 -25 17 -79 26 -120 17 -78
68 -200 84 -200 5 0 25 53 45 118 20 64 40 130 46 146 5 16 9 46 9 67 0 32 -7
45 -42 79 -50 48 -154 120 -174 120 -18 0 -18 4 6 48 37 70 30 69 124 18 90
-48 110 -54 123 -33 4 6 10 104 13 217 l5 205 25 0 c22 0 26 -5 32 -50 3 -27
10 -115 14 -195 7 -143 14 -180 36 -180 6 0 44 25 84 55 40 30 78 55 83 55 5
0 12 -28 16 -62 7 -61 7 -62 -26 -91 -128 -112 -129 -114 -129 -161 0 -41 59
-218 80 -240 19 -19 60 181 60 291 0 35 5 65 11 69 19 12 4 -268 -18 -347 -21
-69 -61 -150 -78 -156 -6 -2 -35 52 -66 119 -48 108 -58 123 -79 123 -22 0
-29 -14 -82 -150 -31 -82 -57 -153 -58 -157 0 -13 84 -56 123 -63 137 -26 260
147 296 418 33 244 -22 537 -127 675 -57 75 -166 107 -238 69 -70 -37 -147
-144 -190 -265 -34 -96 -44 -109 -32 -40 34 191 124 344 233 394 56 27 73 28
130 13z m-9191 -30 c20 -16 26 -29 25 -57 0 -20 -3 -30 -6 -22 -20 54 -37 80
-55 80 -42 0 -98 -101 -83 -150 9 -28 80 -37 107 -13 21 18 21 18 -1 -24 -38
-75 -99 -84 -121 -17 -21 61 12 160 66 203 33 26 35 26 68 0z m221 -19 c58
-64 -30 -260 -118 -260 -10 0 -29 11 -42 25 -48 47 -23 183 42 235 34 27 94
27 118 0z m3875 0 c339 -34 411 -51 441 -107 17 -32 15 -102 -4 -139 -37 -71
-70 -80 -334 -89 l-193 -8 0 56 c0 71 30 151 76 206 20 23 34 44 32 47 -3 2
-61 12 -129 20 -68 8 -125 17 -128 20 -7 7 147 3 239 -6z m-3574 -16 c54 -14
69 -23 85 -47 10 -17 16 -34 13 -39 -3 -4 -29 -8 -58 -8 -29 0 -81 -3 -115 -6
-70 -8 -75 -18 -41 -84 l20 -40 74 0 c40 0 75 3 79 6 11 11 -4 33 -19 27 -9
-3 -14 2 -14 14 0 28 20 43 57 43 36 0 44 -11 57 -84 l7 -38 -114 3 c-98 4
-118 7 -137 24 -53 47 -61 132 -19 202 30 48 36 49 125 27z m-566 -48 c0 -27
-28 -43 -36 -21 -9 21 3 45 21 45 9 0 15 -9 15 -24z m3849 -6 c144 -73 105
-247 -62 -282 -102 -22 -184 23 -200 108 -13 66 34 152 98 180 45 20 120 17
164 -6z m-466 -4 c49 -21 88 -68 94 -115 6 -44 -11 -58 -21 -18 -8 32 -44 77
-62 77 -10 0 -14 -13 -14 -44 0 -49 -8 -56 -71 -56 -54 0 -70 31 -43 87 16 33
25 39 59 43 51 6 24 20 -40 20 -35 0 -52 -6 -80 -31 -36 -32 -59 -88 -53 -129
4 -31 43 -38 85 -17 39 20 117 2 121 -29 5 -32 -60 -84 -104 -84 -44 0 -93 21
-119 50 -31 34 -28 125 5 173 48 72 164 107 243 73z m-390 -13 c25 -4 36 -10
33 -18 -4 -12 -16 -53 -37 -137 -17 -68 -43 -78 -196 -78 -129 0 -135 1 -158
25 -25 24 -31 49 -19 79 10 26 24 18 24 -12 0 -16 6 -36 13 -46 11 -15 12 -12
9 23 -4 36 -1 41 16 41 11 0 27 3 36 6 20 8 33 -23 17 -39 -8 -8 -15 -6 -26 9
-14 18 -14 17 -15 -12 0 -44 17 -55 78 -47 56 6 68 15 74 51 5 34 23 22 20
-13 -2 -29 -2 -29 13 -11 8 11 15 28 15 38 0 12 8 18 24 18 35 0 38 -12 16
-54 -16 -33 -17 -37 -2 -34 24 5 55 63 47 89 -12 36 -63 49 -191 49 -116 0
-117 0 -99 20 22 24 87 50 156 60 52 8 66 7 152 -7z m2688 -23 c82 -15 210
-83 280 -147 101 -94 181 -230 228 -388 25 -85 51 -268 50 -344 l-2 -56 -8 65
c-41 297 -117 485 -253 629 -108 114 -241 181 -358 181 -90 0 -217 -43 -300
-102 -16 -11 -28 -17 -28 -13 0 16 134 89 198 108 39 11 72 24 72 28 0 11 -66
20 -97 14 -23 -5 -25 -4 -10 5 41 26 145 35 228 20z m-5351 -42 c0 -18 -4 -38
-8 -44 -9 -14 -52 -37 -58 -31 -2 2 5 27 17 55 25 60 49 69 49 20z m9027 -90
c37 -76 35 -95 -3 -23 -20 39 -48 86 -61 105 l-25 35 34 -37 c18 -20 43 -56
55 -80z m-8493 74 c3 -10 10 -44 15 -77 6 -32 15 -63 20 -68 18 -18 29 4 24
50 l-4 48 18 -50 c12 -33 26 -54 43 -62 57 -27 360 -45 821 -50 l456 -5 34 30
c19 16 54 60 79 96 40 59 48 66 78 66 19 0 32 -4 30 -8 -1 -4 -38 -58 -82
-119 -57 -82 -88 -116 -114 -129 -33 -16 -68 -17 -397 -10 -346 6 -657 18
-928 34 -107 7 -131 11 -147 28 -13 12 -28 58 -44 129 -13 61 -23 112 -21 115
2 3 28 3 59 2 41 -3 56 -8 60 -20z m2557 1 c5 -14 7 -34 3 -42 -5 -13 -8 -11
-14 9 -17 55 -8 82 11 33z m-2921 -18 c0 -42 -3 -43 -24 -10 -18 27 -14 45 10
45 9 0 14 -11 14 -35z m-737 -94 c58 -22 425 -57 807 -76 151 -8 162 -10 185
-45 11 -16 31 -34 45 -40 36 -17 429 -38 959 -51 494 -13 525 -11 597 39 l39
27 630 2 c807 2 1596 31 1651 61 11 6 29 21 40 35 21 24 26 25 213 32 106 4
195 5 197 2 3 -3 -3 -22 -14 -44 -62 -122 -124 -334 -166 -565 -17 -93 -24
-119 -25 -88 -1 69 25 283 49 399 11 57 19 105 16 108 -2 2 -66 -5 -142 -17
-215 -33 -671 -89 -854 -105 -294 -27 -1073 -38 -1690 -26 -512 11 -1202 33
-1430 46 -944 55 -1145 79 -1206 140 -35 35 -30 63 22 123 25 28 47 52 49 52
2 0 15 -4 28 -9z m3642 -31 c-14 -26 -42 -50 -61 -50 -9 0 59 78 69 79 4 1 1
-12 -8 -29z m2260 9 c201 -37 371 -232 440 -503 45 -179 43 -351 -6 -543 -61
-241 -225 -419 -426 -464 -138 -31 -334 58 -438 199 -54 72 -123 218 -146 307
-24 95 -39 282 -21 271 7 -4 12 -31 12 -59 1 -74 33 -210 69 -290 32 -72 88
-157 103 -157 15 0 157 324 165 377 9 53 -13 89 -81 131 -120 76 -213 122
-245 122 -29 0 -32 2 -25 23 16 53 24 66 53 86 37 27 49 24 200 -41 121 -53
151 -56 172 -15 8 14 14 101 17 256 l5 233 -34 -7 c-125 -24 -253 -137 -327
-287 -23 -48 -47 -90 -53 -94 -30 -18 55 166 116 252 75 105 193 186 297 203
75 12 87 12 153 0z m-2225 -3 c0 -2 -8 -10 -17 -17 -16 -13 -17 -12 -4 4 13
16 21 21 21 13z m2901 -486 l-8 -125 -2 131 c0 72 2 134 7 138 12 13 13 -13 3
-144z m-6431 30 c466 -43 1934 -97 2965 -109 431 -5 679 -12 696 -19 61 -24
72 -58 85 -254 l6 -98 67 0 c116 0 624 41 999 81 112 12 205 19 208 17 11 -12
-10 -37 -34 -42 -96 -21 -799 -87 -1082 -102 -69 -4 -135 -11 -148 -15 -12 -5
-30 -24 -39 -43 -9 -20 -30 -41 -47 -49 -31 -15 -274 -36 -646 -58 -278 -16
-886 1 -1990 56 -521 27 -657 40 -900 87 -166 32 -191 42 -215 87 -35 69 -155
411 -155 444 0 32 12 37 75 31 28 -2 97 -9 155 -14z m8803 -207 c3 -32 4 -59
3 -61 -5 -4 -430 -58 -531 -67 l-80 -7 40 35 c22 19 37 38 33 42 -4 5 -56 0
-115 -9 -259 -40 -636 -92 -958 -131 -71 -8 -274 -33 -451 -55 -177 -22 -331
-40 -342 -40 -25 0 -30 31 -9 48 6 5 59 15 117 21 114 13 764 92 950 115 107
14 667 87 1070 140 96 13 196 24 221 25 l46 1 6 -57z m574 -166 c-10 -26 -93
-59 -129 -52 -62 14 -66 23 -11 31 28 3 69 17 90 30 38 23 61 19 50 -9z
m-9540 8 c3 -9 3 -19 -1 -22 -8 -9 -56 14 -56 27 0 16 50 12 57 -5z m8568 -43
c6 -4 32 -33 59 -64 l48 -58 -318 0 c-299 0 -681 10 -659 16 9 3 737 98 815
107 19 2 37 4 40 5 3 1 10 -2 15 -6z m-8538 -139 c9 -23 58 -42 171 -68 207
-47 357 -64 657 -75 160 -6 382 -15 495 -20 113 -5 322 -14 465 -20 680 -28
979 -42 1075 -50 135 -11 678 14 1097 50 62 6 248 21 415 35 167 15 386 35
488 46 102 12 210 23 240 26 l55 4 -25 -21 c-49 -41 -196 -138 -258 -169 -73
-37 -119 -43 -437 -62 -252 -15 -1112 -15 -1273 0 -86 8 -128 17 -170 36 -56
26 -61 27 -457 40 -220 8 -508 19 -640 25 -132 5 -352 15 -490 20 -222 10
-655 37 -882 56 -74 6 -85 5 -118 -16 l-37 -23 -151 17 c-185 22 -307 42 -318
53 -9 9 16 109 32 129 12 15 59 5 66 -13z m7360 1 c-3 -3 -12 -4 -19 -1 -8 3
-5 6 6 6 11 1 17 -2 13 -5z m-57 -10 c-15 -3 -81 -12 -545 -73 -276 -37 -295
-39 -295 -29 0 9 4 10 415 62 292 36 488 55 425 40z"/>
<path d="M9200 5655 c-61 -15 -90 -42 -90 -86 0 -41 25 -47 55 -15 19 20 34
26 67 26 87 0 112 26 68 70 -23 23 -26 23 -100 5z"/>
<path d="M10965 6204 c-92 -22 -125 -51 -125 -110 0 -34 23 -85 49 -108 34
-30 185 -22 223 11 40 36 27 143 -22 188 -19 17 -88 28 -125 19z m113 -57 c12
-11 22 -26 22 -34 0 -15 -12 -18 -133 -36 -48 -8 -90 -10 -93 -6 -8 13 7 57
23 71 18 15 122 37 143 30 8 -3 25 -14 38 -25z"/>
<path d="M8045 6185 c-455 -94 -837 -196 -1170 -313 -220 -77 -443 -172 -404
-172 3 0 66 21 140 46 182 61 511 163 694 214 83 23 220 61 305 85 85 24 263
72 395 106 207 53 297 80 260 78 -5 0 -104 -20 -220 -44z"/>
<path d="M12184 4875 c-25 -39 -29 -142 -7 -185 16 -31 22 -35 58 -35 22 0 46
-4 53 -8 8 -5 12 -3 12 8 0 9 -9 19 -20 22 -24 6 -24 10 -5 43 21 37 19 109
-5 148 -25 40 -62 43 -86 7z m64 -27 c14 -14 16 -97 2 -118 -7 -11 -10 -3 -10
28 0 24 -7 56 -15 72 -12 24 -13 30 -2 30 7 0 18 -5 25 -12z"/>
<path d="M3217 5396 c-30 -28 -52 -94 -43 -130 6 -23 11 -26 51 -26 42 0 58
-11 35 -25 -5 -3 -10 -12 -10 -18 1 -23 49 43 59 81 15 51 14 78 -4 112 -19
37 -52 39 -88 6z"/>
<path d="M7499 5315 c-4 -29 -6 -30 -64 -32 -63 -3 -208 -20 -238 -29 -14 -4
-57 -70 -57 -88 0 -2 13 9 29 25 28 28 33 29 120 29 l91 0 0 -36 c0 -21 4 -33
10 -29 6 3 10 19 10 34 0 24 5 30 31 35 51 10 52 9 46 -36 l-6 -43 20 24 c10
13 19 29 19 37 0 8 9 14 20 14 24 0 26 -20 4 -62 -24 -45 6 -31 31 15 21 39
41 50 31 17 -20 -65 -19 -67 13 -32 43 46 44 106 1 147 -16 16 -30 24 -30 17
0 -6 5 -14 10 -17 12 -8 13 -25 1 -25 -5 0 -14 14 -20 30 -5 17 -15 30 -20 30
-6 0 -8 -12 -4 -30 8 -42 -21 -40 -34 3 l-10 32 -4 -30z"/>
<path d="M6724 5306 c-29 -29 -34 -41 -34 -80 0 -38 4 -48 25 -62 22 -15 33
-15 83 -4 107 23 112 23 112 7 0 -9 -12 -29 -26 -46 -30 -36 -19 -39 37 -11
66 34 74 80 27 150 -36 54 -83 80 -140 80 -43 0 -54 -4 -84 -34z m200 -38 c23
-33 20 -57 -9 -64 -32 -8 -33 -7 -41 44 -6 38 -5 42 14 42 12 0 28 -10 36 -22z"/>
<path d="M8684 4954 c3 -54 9 -160 13 -234 3 -74 10 -143 15 -152 15 -30 62
-20 170 36 143 74 142 74 156 29 6 -21 14 -54 17 -74 l7 -35 -79 -46 c-43 -25
-99 -58 -126 -73 -90 -52 -91 -99 -4 -275 34 -69 66 -125 72 -125 13 0 74 153
85 217 5 29 13 91 17 137 5 53 13 86 21 89 15 5 17 -147 1 -234 -24 -140 -84
-275 -148 -338 l-38 -37 -50 78 c-27 43 -66 106 -87 141 -64 105 -104 114
-146 32 -11 -22 -55 -100 -97 -172 -84 -147 -84 -148 -13 -184 291 -147 593
106 640 537 14 123 6 224 -25 344 -31 117 -62 186 -119 262 -72 96 -159 155
-247 169 l-42 7 7 -99z m115 -1166 c-31 -26 -114 -48 -177 -48 -53 0 -132 17
-132 29 0 3 39 6 88 6 76 1 95 4 152 32 59 28 66 29 78 14 11 -13 10 -19 -9
-33z"/>
<path d="M8610 4590 c0 -19 11 -26 23 -14 8 8 -3 34 -14 34 -5 0 -9 -9 -9 -20z"/>
<path d="M8584 4528 c-26 -12 -59 -71 -68 -120 -9 -51 10 -115 45 -150 25 -26
35 -29 84 -27 41 2 60 -2 75 -16 17 -16 20 -16 26 -2 3 8 1 25 -5 36 -9 16
-18 19 -49 14 l-37 -6 22 24 c27 29 53 90 53 121 -1 41 -37 106 -69 122 -34
18 -47 19 -77 4z m90 -92 c17 -36 18 -43 5 -79 -21 -59 -35 -56 -31 6 3 46 0
58 -24 86 l-27 33 29 -4 c22 -2 33 -12 48 -42z"/>
<path d="M2770 4621 c0 -26 78 -244 95 -268 24 -31 18 7 -15 99 -38 103 -51
156 -39 164 16 9 47 -57 90 -190 24 -72 52 -141 64 -154 26 -28 161 -70 250
-79 104 -10 106 12 26 257 l-47 145 -159 17 c-88 9 -184 19 -212 22 -48 6 -53
4 -53 -13z"/>
<path d="M3310 4579 c0 -18 96 -319 119 -373 11 -24 28 -47 38 -50 93 -28
1592 -96 2112 -96 l241 0 16 25 c18 28 15 94 -12 260 -17 106 -30 143 -53 149
-9 2 -164 7 -346 11 -623 12 -1780 58 -2047 81 -52 5 -68 3 -68 -7z"/>
<path d="M5850 4496 c0 -6 48 -241 56 -270 l7 -28 106 4 c109 5 161 -4 161
-28 0 -21 -28 -31 -127 -44 -51 -7 -93 -17 -93 -22 0 -5 12 -13 28 -19 52 -21
579 13 630 40 31 17 42 65 42 187 0 138 -7 159 -57 173 -35 10 -753 17 -753 7z"/>
</g>
</svg>
