<?xml version="1.0" standalone="no"?>
<!DOCTYPE svg PUBLIC "-//W3C//DTD SVG 20010904//EN"
 "http://www.w3.org/TR/2001/REC-SVG-20010904/DTD/svg10.dtd">
<svg version="1.0" xmlns="http://www.w3.org/2000/svg"
 width="1536.000000pt" height="1024.000000pt" viewBox="0 0 1536.000000 1024.000000"
 preserveAspectRatio="xMidYMid meet">

<g transform="translate(0.000000,1024.000000) scale(0.100000,-0.100000)"
fill="#ffffff" stroke="none">
<path d="M7680 7799 c-634 -28 -876 -48 -1175 -94 -309 -48 -369 -70 -615
-223 -291 -180 -722 -502 -1032 -769 -109 -94 -118 -97 -118 -38 0 36 -20 73
-49 92 -54 36 -391 26 -469 -15 -61 -31 -82 -85 -82 -209 0 -72 5 -113 15
-132 16 -32 80 -66 156 -82 28 -6 48 -13 45 -16 -3 -3 -156 -11 -341 -19 -186
-8 -396 -21 -469 -29 -280 -33 -472 -95 -686 -225 -266 -161 -453 -343 -600
-585 -23 -38 -64 -102 -90 -141 -51 -77 -75 -153 -86 -274 -8 -78 -6 -80 39
-42 16 14 17 10 17 -70 l0 -85 -40 -27 c-22 -14 -42 -37 -46 -50 -3 -13 -4
-78 -2 -145 3 -118 3 -120 34 -153 28 -30 32 -42 43 -142 7 -61 21 -153 32
-204 18 -89 18 -101 4 -181 -21 -118 -20 -176 4 -200 12 -12 62 -27 157 -45
155 -29 467 -75 529 -77 l40 -1 -40 -9 c-22 -4 -139 -18 -260 -29 -337 -34
-535 -68 -535 -94 0 -20 63 -34 276 -60 364 -44 806 -76 1574 -111 885 -41
2508 -87 3070 -87 389 0 831 27 1180 73 95 13 257 24 420 29 170 6 294 14 345
24 87 18 196 65 265 115 24 17 53 31 65 31 13 0 240 34 506 75 266 42 570 89
674 105 105 16 480 75 835 130 355 56 717 112 805 125 660 98 923 150 964 190
22 22 -22 42 -129 60 -52 8 -98 15 -102 15 -3 0 9 37 27 83 19 46 43 119 54
163 21 83 51 272 51 319 0 22 20 49 88 119 109 114 168 225 206 389 8 35 -1
34 -66 -5 -116 -69 -188 -106 -193 -99 -7 12 19 32 100 79 39 23 96 57 128 76
l57 35 0 248 c0 300 -3 319 -44 343 -50 30 -53 35 -60 107 -21 206 -113 521
-197 670 -52 92 -177 222 -260 271 -67 39 -105 45 -379 66 -290 22 -637 36
-909 36 l-233 0 -167 108 c-277 181 -522 323 -650 376 -275 116 -822 190
-1597 216 -339 11 -825 11 -1084 -1z m1490 -98 c208 -15 557 -47 675 -64 l90
-12 -170 -6 c-181 -7 -237 -19 -284 -62 -57 -53 -72 -134 -111 -599 -11 -136
-25 -283 -30 -327 -22 -170 -49 -446 -44 -450 2 -3 23 -7 46 -10 41 -6 43 -9
85 -86 41 -77 91 -215 96 -264 2 -23 -4 -25 -83 -43 -47 -10 -95 -20 -108 -23
l-23 -6 29 -42 c89 -129 154 -315 187 -535 20 -138 17 -178 -6 -67 -23 112
-78 274 -126 369 -124 247 -301 369 -491 336 -226 -39 -386 -226 -527 -615
-69 -191 -155 -550 -155 -649 0 -50 -21 -97 -48 -107 -38 -15 -524 -95 -787
-130 -246 -32 -250 -34 -259 -112 -3 -23 -7 -117 -10 -209 -4 -138 -2 -168 9
-168 59 0 684 74 840 100 84 14 102 11 30 -5 -236 -53 -589 -102 -830 -115
-190 -10 -1816 -33 -1850 -25 -11 2 -175 9 -365 15 -623 19 -1473 55 -1819 77
-95 6 -107 9 -136 34 -28 25 -45 30 -131 39 -205 23 -461 67 -546 96 -41 13
-49 20 -58 52 -17 61 -40 185 -35 191 11 10 26 -18 44 -83 10 -38 25 -74 32
-82 8 -7 47 -20 86 -28 91 -19 356 -54 443 -58 l65 -3 3 158 3 158 37 -3 37
-3 2 -50 c2 -27 7 -99 13 -159 15 -146 33 -180 107 -197 49 -11 1015 -41 2080
-65 355 -8 353 -9 353 75 0 64 -70 340 -104 413 -15 32 -41 67 -57 79 -42 29
-115 35 -584 49 -214 6 -523 15 -685 20 -162 5 -463 12 -669 16 -236 5 -366
11 -350 16 37 14 401 26 664 23 947 -14 1371 -27 1514 -45 40 -6 91 -20 112
-32 37 -21 92 -89 139 -175 18 -33 30 -43 53 -45 29 -3 34 -11 94 -143 35 -77
73 -149 85 -159 22 -18 44 -19 615 -13 634 6 636 6 663 57 6 11 13 62 17 114
6 92 7 95 31 98 20 2 28 11 34 35 5 18 19 40 32 48 15 10 140 31 347 60 307
42 571 85 650 105 56 15 55 10 99 415 36 319 95 560 195 795 19 45 34 84 32
86 -4 4 -433 -229 -637 -346 -74 -43 -158 -89 -186 -103 l-50 -25 -50 30 c-27
17 -74 41 -104 54 -30 12 -54 26 -54 31 2 15 236 192 399 302 392 265 716 421
1001 482 109 24 235 27 375 9 45 -5 84 -9 85 -7 18 17 114 1105 114 1287 0 66
4 62 -95 79 -533 90 -2107 104 -2909 26 -82 -8 -151 -13 -153 -11 -6 6 156 34
377 66 232 33 474 54 795 70 121 6 247 12 280 14 141 8 1374 -3 1525 -13z
m-3041 -204 c-2 -2 -74 -55 -159 -117 -265 -194 -642 -492 -860 -680 -36 -31
-112 -96 -170 -145 -57 -50 -132 -116 -166 -147 -57 -54 -65 -58 -130 -68
-107 -15 -108 -15 -46 44 173 162 640 545 872 712 310 224 639 428 659 408 2
-2 2 -6 0 -7z m3919 -8 c35 -5 74 -17 87 -25 57 -37 365 -460 365 -501 0 -14
-10 -15 -67 -10 -38 4 -118 7 -178 7 l-111 0 -28 61 c-15 34 -44 78 -63 100
-54 59 -101 70 -345 76 -205 6 -208 6 -203 27 2 12 6 52 10 90 9 101 25 133
81 157 80 36 280 44 452 18z m416 -93 c112 -102 238 -242 333 -371 70 -93 223
-350 223 -373 0 -15 -54 -26 -58 -12 -14 42 -126 243 -187 335 -96 146 -181
249 -333 408 -135 140 -125 146 22 13z m-1834 14 c225 -12 457 -35 508 -51 26
-8 32 -16 32 -37 0 -32 -38 -343 -42 -347 -2 -2 -266 -5 -588 -6 l-584 -3 -52
73 c-29 41 -71 93 -94 116 -26 26 -38 45 -31 49 14 9 15 141 1 166 -5 10 -24
21 -42 25 -69 14 -74 20 -23 25 79 8 689 1 915 -10z m-1805 -37 c-10 -16 -37
-53 -60 -83 -71 -93 -219 -319 -290 -442 -64 -111 -70 -119 -108 -129 -23 -6
-223 -48 -446 -95 -223 -46 -491 -101 -596 -123 l-190 -39 35 30 c342 292 755
597 1040 768 218 131 234 136 494 139 l138 1 -17 -27z m4176 -279 c240 -161
335 -235 317 -245 -31 -17 -136 -46 -145 -40 -5 3 -64 69 -130 146 -66 77
-145 167 -174 199 -63 70 -55 66 132 -60z m964 -74 c357 -20 364 -20 396 -47
33 -28 38 -66 12 -95 -17 -19 -50 -22 -127 -12 l-48 7 4 53 3 54 -40 5 c-49 6
-403 22 -697 31 -136 4 -218 11 -218 17 0 11 411 3 715 -13z m-350 -115 c186
-27 370 -55 400 -61 24 -6 2 -13 -113 -40 -79 -19 -218 -57 -310 -85 -314 -97
-355 -108 -384 -102 -16 3 -30 9 -33 13 -5 8 94 40 403 131 117 35 209 66 204
71 -4 4 -57 14 -117 22 -99 14 -245 50 -245 61 0 9 97 4 195 -10z m1140 -104
c56 -25 120 -99 161 -184 66 -138 44 -166 -184 -237 -56 -17 -102 -33 -102
-36 0 -2 17 -27 39 -55 89 -118 166 -297 201 -470 23 -114 21 -141 -5 -52 -55
190 -169 352 -278 392 -166 63 -331 -121 -433 -479 -14 -52 -29 -97 -32 -100
-8 -9 9 281 24 395 18 134 30 200 51 283 9 34 14 64 12 66 -4 4 -327 -49 -553
-90 -79 -14 -101 -15 -104 -5 -2 7 -28 61 -57 120 -54 111 -101 175 -136 186
-26 8 -24 21 4 28 12 3 74 22 137 42 157 49 414 119 535 146 286 63 639 87
720 50z m-3226 -246 c22 -82 41 -161 40 -175 l-1 -25 -8 25 c-5 14 -23 71 -40
127 -18 56 -40 109 -50 118 -14 12 -17 26 -13 58 11 98 10 100 72 -128z
m-4926 155 c5 -4 -21 -57 -57 -116 -36 -60 -66 -114 -66 -121 0 -22 -16 -15
-28 12 -16 36 -85 108 -159 167 -35 28 -62 53 -59 55 21 21 348 23 369 3z
m5772 -20 c37 -11 95 -54 95 -71 0 -4 -17 -7 -39 -7 -138 -2 -504 -142 -571
-218 -32 -37 -42 -41 -58 -21 -8 10 -8 48 2 138 21 202 20 202 316 195 119 -2
233 -10 255 -16z m780 -83 c16 -13 9 -16 -66 -36 -46 -12 -104 -29 -129 -36
-36 -11 -263 -69 -398 -100 -18 -5 -23 -2 -20 11 2 13 63 32 258 84 140 38
266 73 280 79 35 14 53 13 75 -2z m215 -103 c28 -25 57 -72 100 -160 33 -68
60 -126 60 -128 0 -2 -17 -7 -37 -10 -21 -4 -46 -9 -55 -12 -14 -4 -18 1 -18
25 0 39 -29 111 -44 111 -7 0 -34 -7 -60 -16 -47 -16 -48 -17 -41 -52 4 -20
13 -49 21 -64 13 -26 13 -28 -8 -33 -21 -5 -196 -41 -683 -141 -186 -38 -766
-161 -938 -198 -75 -16 -110 -20 -112 -12 -23 89 -73 225 -91 252 -13 19 -31
48 -39 64 l-16 30 58 0 c32 0 82 3 111 7 l53 6 66 88 c36 49 68 89 72 89 3 0
14 -7 23 -14 17 -12 17 -14 -3 -32 -12 -10 -49 -55 -82 -98 l-61 -80 47 -41
c56 -51 119 -71 176 -55 49 13 53 19 86 112 15 42 34 79 42 82 8 4 76 13 151
22 241 28 295 40 367 82 11 7 115 36 230 66 306 79 519 137 524 142 2 2 17 4
33 4 18 0 42 -13 68 -36z m-4835 -194 c1511 -18 1692 -34 510 -46 -880 -9
-1888 14 -2050 46 -59 11 565 12 1540 0z m-1715 -79 c439 -48 1302 -76 2064
-68 291 4 526 4 524 1 -3 -2 -45 -11 -94 -19 -340 -55 -756 -273 -1214 -634
l-145 -115 -225 2 c-124 2 -391 7 -595 13 -203 5 -657 10 -1007 10 -351 0
-638 4 -638 8 0 12 146 150 230 217 189 152 378 268 702 430 143 71 208 109
208 120 0 14 -8 16 -59 10 -169 -19 -366 -87 -523 -179 -223 -131 -388 -287
-605 -571 -17 -23 -20 -24 -85 -14 -38 6 -68 14 -68 19 0 11 250 263 355 357
52 47 76 75 69 82 -25 25 -481 56 -663 46 l-114 -7 29 24 c63 53 165 116 221
137 133 51 370 82 753 100 530 24 638 31 695 43 33 7 67 10 75 6 8 -4 58 -12
110 -18z m3854 -21 l61 -1 -112 -29 c-187 -49 -435 -156 -622 -269 l-85 -51
-150 12 c-83 7 -315 12 -516 13 l-365 0 -60 -34 c-170 -97 -375 -244 -546
-392 l-54 -47 -114 -4 -115 -5 35 29 c107 91 497 332 709 438 331 166 777 309
1010 326 148 10 700 23 789 18 41 -2 101 -4 135 -4z m3255 -167 c23 -15 24
-19 17 -107 -13 -198 -88 -525 -152 -666 -34 -74 -68 -117 -123 -151 -46 -30
-65 -36 -180 -63 l-63 -15 6 41 c4 23 25 69 46 102 22 34 52 91 66 129 15 39
32 67 40 67 20 0 18 -17 -12 -110 -14 -45 -23 -84 -20 -87 11 -11 100 31 138
65 22 20 50 57 64 83 32 64 79 235 109 398 30 163 32 220 6 252 l-18 23 -124
-13 c-68 -8 -130 -16 -137 -19 -10 -3 -13 2 -10 19 3 21 11 26 68 37 164 32
248 37 279 15z m-8919 -17 c0 -3 -28 -26 -62 -53 -179 -136 -315 -270 -429
-421 -51 -68 -62 -77 -117 -97 -34 -12 -59 -17 -55 -11 19 32 88 119 144 183
113 127 227 221 394 327 125 79 125 79 125 72z m8538 -38 c-3 -26 36 -18 -458
-97 -173 -28 -454 -74 -624 -101 -170 -28 -310 -49 -312 -47 -7 7 1109 224
1311 255 89 14 87 14 83 -10z m-8233 -88 c99 -5 221 -12 272 -16 l92 -7 -102
-80 c-56 -45 -166 -146 -244 -225 l-142 -145 -173 7 c-167 7 -477 32 -484 39
-13 13 174 235 292 346 l96 91 107 0 c58 0 187 -5 286 -10z m9266 -16 c75 -38
176 -204 224 -369 95 -327 99 -750 10 -1041 -63 -206 -146 -308 -251 -306
-140 3 -276 219 -330 525 -22 125 -15 144 11 32 13 -55 27 -111 33 -125 9 -24
9 -24 20 10 16 49 62 286 62 318 0 40 -39 111 -92 166 -40 41 -51 48 -58 36
-16 -25 -12 161 6 274 29 190 88 346 161 427 68 75 129 91 204 53z m-1056 -66
c-24 -269 -107 -756 -132 -779 -18 -15 -1687 -339 -1751 -339 -8 0 -12 9 -10
22 2 18 14 25 58 35 30 7 177 39 325 72 149 33 360 81 470 106 110 25 308 70
440 100 132 29 274 61 315 71 94 21 124 47 149 129 26 85 68 346 81 504 6 74
13 138 16 143 3 4 14 8 26 8 19 0 20 -4 13 -72z m-3760 13 l100 -6 -135 -95
c-145 -101 -314 -228 -396 -297 l-51 -43 -483 0 -483 0 19 21 c61 69 309 268
478 382 l68 47 392 -1 c215 -1 436 -4 491 -8z m1278 -339 c205 -101 353 -351
408 -688 19 -114 16 -406 -5 -529 -61 -359 -260 -648 -491 -710 -157 -43 -295
4 -428 144 -61 66 -87 103 -131 194 -89 181 -137 390 -106 462 8 18 9 17 9 -7
2 -69 45 -248 80 -327 43 -101 128 -228 183 -276 57 -48 145 -92 214 -105 198
-39 413 127 524 402 43 109 68 212 87 366 14 114 15 151 5 251 -37 369 -181
646 -387 743 -63 30 -79 33 -160 33 -81 0 -97 -3 -155 -32 -36 -17 -84 -48
-108 -69 -24 -20 -45 -35 -47 -33 -9 10 70 109 115 143 76 58 137 77 240 74
74 -3 95 -8 153 -36z m-6593 -82 c0 -23 6 -33 23 -39 52 -20 611 -60 662 -47
14 4 48 27 75 52 43 41 52 45 84 40 20 -3 52 -8 71 -11 l35 -6 -38 -57 c-51
-74 -126 -212 -119 -218 2 -3 14 9 25 27 11 17 57 79 103 136 l84 104 175 -6
c391 -13 1118 -24 1660 -25 l574 0 -74 -67 c-99 -88 -204 -195 -260 -263 l-45
-55 80 65 c44 36 151 124 237 197 l158 133 119 0 119 0 -11 -29 c-22 -58 -25
-58 281 -66 296 -7 711 2 751 17 13 5 41 22 61 38 21 17 48 30 61 30 13 0 70
-22 126 -49 116 -56 144 -86 213 -230 65 -134 119 -350 134 -541 4 -50 -1 -33
-24 74 -52 248 -151 506 -227 594 l-28 32 -115 -66 c-178 -102 -246 -134 -329
-155 -83 -21 -218 -36 -981 -104 -441 -40 -520 -49 -625 -76 -116 -30 -127
-31 -325 -31 -239 1 -1161 18 -1729 32 l-394 10 -46 29 c-51 33 -126 56 -441
131 -118 29 -234 60 -256 70 -74 32 -79 111 -15 238 35 69 56 90 113 107 59
19 58 19 58 -15z m6525 -70 c71 -35 173 -142 218 -228 40 -75 90 -202 84 -209
-12 -12 -68 36 -78 67 -18 57 -89 171 -142 227 -27 28 -78 71 -115 95 -60 39
-73 43 -139 47 -64 3 -80 0 -131 -25 -32 -15 -89 -58 -131 -98 -42 -40 -68
-60 -61 -46 22 42 118 129 173 157 77 39 94 42 187 40 67 -2 95 -7 135 -27z
m-104 -57 c6 -6 16 -112 24 -237 17 -297 21 -303 156 -252 35 13 89 36 120 50
31 15 64 23 73 20 24 -9 43 -51 51 -115 l7 -56 -44 -35 c-23 -19 -74 -55 -113
-80 -159 -103 -162 -118 -71 -398 37 -113 73 -210 82 -216 13 -10 8 -21 -33
-75 -82 -108 -192 -169 -307 -169 -65 0 -167 35 -209 73 -35 31 -27 32 53 1
27 -10 73 -17 116 -17 59 0 82 5 142 33 41 19 78 30 88 26 34 -13 7 81 -62
213 -72 138 -97 171 -129 171 -28 0 -43 -18 -90 -105 -63 -114 -168 -275 -176
-269 -5 3 -29 32 -54 64 l-46 59 26 39 c30 45 96 204 126 303 23 75 21 135 -6
175 -8 12 -66 57 -130 100 l-117 79 7 50 c11 88 26 145 38 145 6 0 63 -25 128
-55 64 -30 126 -55 138 -55 49 0 68 87 77 355 3 94 8 176 10 184 5 16 108 11
125 -6z m3147 -345 c-3 -7 -20 -16 -39 -19 -19 -4 -114 -21 -212 -38 -220 -39
-367 -68 -390 -76 -9 -4 -35 -46 -58 -93 -56 -119 -92 -168 -132 -181 -38 -13
-48 -15 -672 -131 -264 -49 -583 -109 -710 -134 -126 -24 -233 -42 -236 -40
-14 8 5 56 25 65 18 8 241 53 1385 280 85 17 166 36 181 44 36 18 121 111 154
167 30 52 42 57 171 78 39 6 149 27 245 45 222 43 219 42 258 44 23 1 32 -3
30 -11z m-9425 -52 c148 -30 270 -56 272 -58 5 -5 -11 -107 -18 -114 -6 -6
-329 38 -495 67 -58 10 -62 13 -62 39 0 55 13 120 24 120 6 0 132 -25 279 -54z
m4647 -68 c13 -29 29 -72 36 -95 l13 -43 -37 -9 c-45 -12 -177 -28 -289 -35
l-82 -5 -6 32 c-3 18 -7 56 -8 86 l-2 54 125 23 c69 12 143 27 165 32 22 6 45
10 51 11 6 1 22 -23 34 -51z m-406 -106 c4 -40 6 -75 4 -77 -6 -6 -900 -7
-905 -1 -3 3 -11 32 -18 64 l-12 60 30 6 c16 3 91 7 166 7 75 1 195 5 266 9
72 4 204 6 295 6 l165 -1 9 -73z m-4579 19 c22 -5 141 -24 265 -40 313 -43
323 -44 328 -58 5 -18 -26 -17 -197 7 -399 56 -467 68 -501 89 -12 8 -11 13 5
31 18 20 19 20 39 1 12 -11 39 -24 61 -30z m5220 -86 l30 -12 -40 -11 c-61
-18 -249 -50 -355 -62 -135 -14 -860 -32 -1145 -28 -190 2 -245 6 -265 18 -22
13 42 16 625 22 384 3 687 11 740 17 113 15 240 48 257 68 14 17 100 10 153
-12z m1852 -117 c-7 -198 -43 -352 -117 -498 l-33 -65 -13 38 c-12 33 -11 43
7 85 36 83 77 263 89 397 12 116 16 133 38 158 14 15 28 27 30 27 3 0 2 -64
-1 -142z m2625 -27 l-15 -50 -76 -20 c-42 -11 -155 -39 -251 -61 -96 -23 -176
-43 -179 -45 -2 -3 2 -32 9 -65 7 -33 11 -62 9 -64 -6 -5 -1040 -29 -1045 -24
-2 2 58 12 134 22 163 21 676 100 780 120 40 7 78 19 86 25 8 6 72 25 142 41
71 16 181 43 244 59 63 17 118 31 122 31 4 0 17 18 28 40 11 22 22 40 24 40 2
0 -3 -22 -12 -49z m-6057 -491 l29 -30 -72 0 c-60 0 -73 3 -82 19 -13 26 -13
29 8 34 52 14 89 7 117 -23z m834 -359 c11 -27 21 -52 21 -54 0 -6 -1100 -18
-1110 -12 -5 3 3 28 18 55 l27 49 235 3 c129 2 359 4 511 6 l277 2 21 -49z"/>
<path d="M12429 5781 l-23 -19 44 -7 c25 -4 57 -13 71 -21 38 -19 95 -86 127
-151 32 -64 85 -213 78 -221 -11 -10 -24 11 -35 55 -20 80 -96 224 -140 268
-38 36 -45 39 -96 39 -94 -2 -148 -62 -193 -219 -40 -136 -40 -132 32 -204
110 -109 128 -82 134 202 4 177 6 197 21 197 44 0 49 -16 64 -231 8 -113 20
-215 26 -227 17 -33 51 -27 115 19 31 22 63 39 70 36 24 -10 35 -141 15 -180
-7 -12 -40 -52 -75 -88 -80 -83 -85 -108 -54 -238 37 -155 61 -227 70 -210 19
34 42 195 47 339 6 151 13 190 35 190 19 0 3 -369 -22 -485 -39 -185 -127
-324 -214 -341 -50 -9 -45 -24 7 -24 119 0 219 172 268 461 18 107 21 149 16
309 -6 212 -23 321 -73 470 -51 151 -115 249 -185 286 -40 20 -102 18 -130 -5z"/>
<path d="M12425 5136 c-36 -55 -28 -195 14 -247 18 -22 20 -22 44 -6 49 32 62
189 19 247 -26 35 -57 37 -77 6z"/>
<path d="M12457 4712 c-8 -9 -29 -62 -47 -117 -17 -55 -38 -112 -46 -128 -19
-35 -11 -59 27 -92 38 -31 89 -33 144 -5 22 11 45 20 52 20 24 0 14 64 -27
178 -55 154 -72 179 -103 144z"/>
<path d="M8754 4699 c-85 -43 -91 -251 -9 -319 29 -24 75 -16 106 17 80 90 50
293 -46 308 -16 2 -40 0 -51 -6z"/>
</g>
</svg>
