<?xml version="1.0" standalone="no"?>
<!DOCTYPE svg PUBLIC "-//W3C//DTD SVG 20010904//EN"
 "http://www.w3.org/TR/2001/REC-SVG-20010904/DTD/svg10.dtd">
<svg version="1.0" xmlns="http://www.w3.org/2000/svg"
 width="1536.000000pt" height="1024.000000pt" viewBox="0 0 1536.000000 1024.000000"
 preserveAspectRatio="xMidYMid meet">

<g transform="translate(0.000000,1024.000000) scale(0.100000,-0.100000)"
fill="#ffffff" stroke="none">
<path d="M7890 7820 c-502 -16 -861 -58 -1098 -126 -228 -66 -362 -165 -774
-574 l-227 -225 -24 27 c-32 37 -96 52 -187 43 -112 -10 -167 -24 -200 -51
-41 -35 -90 -138 -90 -188 0 -59 37 -125 92 -166 44 -32 46 -35 26 -43 -11 -4
-269 -57 -572 -118 -596 -120 -808 -167 -1041 -230 -239 -66 -527 -169 -664
-239 -180 -90 -348 -295 -405 -491 -10 -35 -28 -67 -47 -85 -46 -44 -56 -69
-68 -182 -23 -210 -12 -595 24 -875 15 -114 15 -121 -5 -184 -27 -87 -26 -128
4 -158 27 -27 147 -67 299 -100 101 -22 111 -26 156 -68 26 -25 63 -53 82 -63
l34 -18 -30 -7 c-16 -4 -100 -15 -185 -24 -292 -32 -480 -71 -480 -101 0 -24
54 -41 200 -63 557 -84 2167 -149 3430 -138 646 5 894 16 1315 56 110 11 286
22 391 25 270 8 431 34 598 97 66 25 132 36 395 70 508 65 740 95 1191 153
530 69 783 101 1370 176 841 107 938 120 1113 150 186 32 277 55 277 71 0 15
-39 26 -115 33 -39 4 -87 9 -108 12 l-37 6 19 27 c34 47 87 163 114 246 29 87
57 244 57 315 0 42 4 48 51 89 77 66 102 128 107 265 l5 108 -24 -15 c-13 -9
-42 -23 -64 -32 -44 -17 -42 -15 55 54 34 25 65 52 70 61 15 27 32 318 25 407
-6 75 -10 85 -35 105 -16 13 -44 51 -64 85 -20 34 -40 65 -45 68 -5 3 -26 -4
-45 -16 -39 -23 -176 -62 -176 -50 0 4 39 20 88 35 128 40 125 35 102 137 -29
132 -68 247 -116 339 -61 118 -104 172 -176 225 -101 73 -196 103 -431 135
-439 59 -441 60 -517 116 -33 24 -62 44 -64 44 -2 0 -6 -8 -9 -19 -6 -25 -67
-59 -243 -136 -82 -36 -154 -72 -160 -79 -8 -12 -20 -10 -70 15 l-59 29 41 0
c48 0 109 21 251 83 113 50 149 72 135 81 -5 3 -145 9 -311 12 -346 8 -316 18
-281 -96 11 -36 20 -66 20 -68 0 -2 -12 -2 -27 0 -26 3 -28 8 -59 143 -48 211
-88 325 -140 401 -27 39 -37 61 -26 55 26 -14 69 -59 91 -95 21 -36 73 -174
96 -257 l16 -56 312 -7 c172 -4 320 -10 331 -13 12 -3 17 -1 14 8 -7 22 -65
29 -352 42 l-268 12 -43 122 c-72 208 -130 279 -258 319 -119 36 -331 28 -418
-16 -79 -41 -139 -144 -199 -340 -43 -143 -47 -150 -70 -150 -25 0 -25 7 1
170 29 181 25 344 -11 413 -49 97 -156 170 -294 202 -144 33 -439 60 -831 75
-272 11 -411 11 -755 0z m1006 -85 c247 -16 441 -38 544 -61 89 -20 178 -71
215 -123 28 -40 30 -49 33 -154 4 -121 -12 -266 -54 -498 -26 -144 -97 -445
-107 -455 -11 -11 -147 -17 -147 -6 0 6 9 31 20 57 81 190 178 701 168 889 -7
139 -53 191 -194 220 -83 18 -294 42 -504 58 -219 16 -1246 17 -1470 0 -297
-22 -639 -64 -716 -87 -10 -4 -3 3 16 13 113 63 486 125 915 151 239 15 1033
12 1281 -4z m-1136 -244 c0 -5 -59 -12 -131 -16 -149 -8 -150 -9 -171 -109
-17 -81 -8 -87 134 -98 62 -5 177 -9 255 -8 l141 0 -23 -48 c-24 -50 -97 -263
-110 -320 -3 -17 -14 -33 -23 -36 -9 -3 -280 -44 -602 -90 -535 -78 -795 -117
-1093 -161 -60 -9 -111 -15 -113 -13 -15 16 304 375 519 584 84 82 192 176
239 210 83 59 90 62 175 72 222 28 803 52 803 33z m880 -1 c296 -14 678 -49
718 -66 54 -22 67 -67 53 -189 -7 -55 -20 -138 -29 -185 l-17 -85 -291 -3
-290 -2 -26 77 c-62 183 -124 272 -216 311 -92 39 -258 50 -382 25 -25 -4 -28
-2 -34 31 -11 58 -35 67 -184 69 -99 2 -128 5 -125 15 6 15 506 17 823 2z
m-2075 -63 c-208 -175 -459 -427 -692 -692 l-159 -180 -56 -5 -56 -5 41 45
c430 474 801 825 915 866 59 21 60 16 7 -29z m3805 -23 c53 -21 74 -58 109
-195 29 -112 64 -299 58 -306 -2 -1 -11 3 -21 10 -12 9 -26 56 -46 152 -35
165 -76 281 -107 302 -33 22 -204 28 -270 10 -59 -16 -70 -7 -20 16 54 25 59
25 159 26 68 1 110 -4 138 -15z m-1697 -248 c25 -52 97 -283 97 -309 0 -9 16
-17 43 -21 122 -19 241 -82 332 -175 68 -70 35 -68 -53 5 -81 66 -195 125
-291 150 -69 18 -71 19 -77 54 -22 128 -87 328 -123 379 -33 45 -24 50 14 8
18 -21 44 -62 58 -91z m-167 -2 c57 -122 86 -314 50 -327 -11 -4 -16 9 -21 56
-11 112 -35 237 -54 292 -11 30 -17 55 -15 55 3 0 21 -34 40 -76z m1270 -486
c9 -149 -8 -159 -25 -15 -7 56 -17 122 -23 147 -8 33 -7 57 3 90 l13 45 12
-75 c7 -41 16 -128 20 -192z m-4116 222 c0 -5 -4 -10 -9 -10 -5 0 -29 -20 -54
-44 -49 -48 -83 -105 -95 -162 l-7 -36 -67 70 c-65 66 -67 71 -57 100 13 37
48 70 85 82 41 12 204 12 204 0z m4795 -20 c28 -6 61 -18 75 -28 34 -25 71
-100 68 -137 -3 -29 -5 -30 -88 -47 -47 -9 -153 -26 -237 -38 -189 -26 -239
-40 -287 -85 -45 -41 -47 -41 -71 -15 -20 23 -20 24 33 179 67 193 70 194 292
187 91 -3 188 -10 215 -16z m1360 -106 c-14 -5 -570 -84 -587 -83 -42 3 336
72 447 82 57 5 152 6 140 1z m339 -51 c43 -3 79 -11 81 -17 23 -85 66 -161
148 -259 22 -26 38 -49 36 -50 -2 -2 -23 -11 -47 -22 -49 -21 -60 -46 -42
-102 17 -53 53 -106 124 -182 34 -36 74 -82 88 -101 25 -32 98 -228 98 -261 0
-7 -19 25 -43 72 -58 117 -133 201 -213 240 -55 27 -71 31 -126 27 -35 -2 -80
-13 -102 -23 -57 -27 -149 -117 -201 -196 -57 -84 -152 -284 -195 -404 -57
-165 -52 -119 11 89 48 158 95 278 164 416 106 214 125 291 85 342 -11 14 -32
28 -47 31 -31 6 -303 -9 -396 -22 l-57 -8 -34 61 c-39 69 -95 137 -179 215
-45 43 -55 57 -43 63 20 11 464 72 666 91 68 7 148 7 224 0z m199 -45 c99 -36
210 -160 193 -216 -8 -22 -78 -57 -100 -49 -37 14 -169 204 -191 275 -8 27 -5
27 98 -10z m-4437 -63 c-21 -16 -95 -19 -161 -8 l-40 8 45 6 c25 3 74 7 110 7
59 1 63 0 46 -13z m3365 -59 c82 -72 133 -135 173 -214 30 -60 34 -55 -70 -72
l-72 -11 -4 -55 c-8 -89 -44 -111 -190 -116 -89 -3 -113 10 -123 73 -5 28 -12
39 -25 39 -36 0 -484 -83 -892 -166 -232 -47 -427 -86 -432 -87 -6 -1 -22 50
-37 113 -14 63 -34 142 -43 175 -17 64 -22 170 -7 179 5 4 43 9 85 13 l76 6 0
-30 c0 -40 49 -132 83 -157 23 -17 43 -21 107 -21 46 1 84 6 93 13 8 7 29 52
46 101 17 48 37 96 44 105 10 13 45 20 167 32 85 8 191 24 235 35 107 28 151
36 409 74 309 46 288 48 377 -29z m-1392 -64 l29 -18 -41 -66 c-23 -36 -47
-74 -53 -84 -10 -17 -12 -16 -28 13 -24 47 -20 75 19 127 20 25 38 46 40 46 3
0 18 -8 34 -18z m-2044 -21 c971 -28 1088 -33 1040 -42 -22 -4 -164 -27 -315
-51 l-275 -43 -605 0 c-563 1 -794 8 -1205 36 -154 11 -554 52 -660 69 -33 5
-100 14 -150 20 -176 20 -180 25 -30 31 250 11 1493 0 2200 -20z m1678 -133
c3 -40 19 -125 35 -189 17 -64 33 -138 36 -165 l7 -49 -178 -38 c-252 -55
-727 -168 -735 -176 -4 -4 9 -31 28 -60 104 -154 176 -365 219 -644 19 -119
16 -157 -4 -49 -32 175 -108 388 -189 526 -104 178 -276 301 -432 313 -201 14
-417 -108 -560 -317 l-37 -55 -99 -18 c-163 -28 -414 -59 -414 -49 0 1 25 38
55 81 164 234 174 297 50 308 -121 11 -535 -30 -845 -83 -315 -54 -405 -83
-625 -199 -93 -49 -103 -52 -150 -46 l-50 6 45 34 c87 64 382 221 535 284 412
170 1393 418 2080 526 218 34 691 94 875 111 69 6 134 13 145 14 11 2 61 4
111 5 l91 1 6 -72z m-4813 -18 c-14 -4 -92 -29 -175 -55 -472 -148 -820 -349
-1104 -637 l-117 -118 -56 0 c-31 0 -60 -4 -63 -10 -4 -6 10 -10 34 -10 71 0
72 -3 28 -86 -21 -42 -37 -77 -34 -80 4 -4 56 50 110 115 l28 34 242 -7 c133
-3 440 -11 682 -16 517 -11 1189 -31 1193 -35 3 -3 -55 -59 -128 -123 -81 -71
11 -33 182 74 87 55 96 57 158 38 9 -3 -7 -19 -46 -44 -80 -51 -163 -127 -208
-192 -40 -59 -80 -154 -68 -162 5 -3 33 1 63 9 136 36 465 78 899 115 155 14
453 47 538 61 111 17 189 48 242 96 48 43 52 44 142 54 90 9 353 44 412 54 25
4 27 3 15 -11 -7 -9 -43 -75 -79 -148 l-66 -131 -65 -8 c-35 -4 -215 -21 -399
-37 -184 -17 -425 -39 -535 -50 -592 -58 -983 -91 -1086 -93 -104 -2 -119 0
-139 18 -20 18 -38 20 -189 22 -429 6 -1126 36 -1609 68 -200 14 -369 25 -377
25 -7 0 -17 -10 -20 -21 -7 -20 -12 -21 -69 -15 -141 14 -280 69 -334 131 -41
46 -45 109 -9 151 l23 27 45 -34 c25 -19 97 -60 160 -92 64 -32 127 -69 141
-82 l25 -23 7 106 c7 104 16 139 83 317 8 22 21 69 28 104 16 72 8 105 -41
168 -20 26 -23 37 -15 47 19 23 138 75 286 126 77 26 196 75 265 108 101 49
161 70 310 107 306 78 802 182 690 145z m1705 0 c110 -6 328 -17 485 -25 157
-8 454 -18 660 -22 l375 -6 -90 -19 c-412 -87 -952 -224 -1273 -324 -321 -99
-586 -215 -867 -379 l-150 -87 -225 11 c-353 18 -1252 41 -1607 41 -221 0
-323 3 -323 11 0 19 203 213 294 281 375 280 1026 471 1766 517 195 12 722 12
955 1z m5112 -57 c15 -52 7 -382 -11 -508 -32 -218 -89 -484 -147 -678 -11
-38 -18 -71 -16 -73 2 -3 60 2 127 11 68 8 125 13 128 10 6 -5 -10 -9 -205
-44 -140 -25 -170 -34 -220 -64 -55 -34 -76 -39 -423 -101 -201 -36 -419 -75
-485 -86 -66 -12 -183 -32 -260 -45 -225 -39 -667 -124 -705 -137 -20 -6 -68
-42 -109 -82 -40 -39 -68 -60 -61 -47 32 62 116 173 139 185 29 15 163 49 263
67 l67 12 5 41 c11 86 26 469 26 636 -1 179 -14 458 -26 538 -5 35 -4 44 7 40
19 -6 26 -50 40 -259 10 -146 10 -248 0 -485 -6 -164 -16 -343 -22 -398 -5
-54 -8 -100 -6 -102 2 -2 48 5 103 15 445 88 896 170 1299 236 154 26 283 49
287 53 9 9 69 257 104 427 60 294 96 710 71 828 -6 30 -5 37 7 37 9 0 19 -12
23 -27z m-8438 -484 c13 -22 21 -42 18 -45 -2 -3 -18 3 -35 13 -17 10 -33 15
-35 13 -17 -20 -109 -163 -125 -196 -11 -22 -28 -69 -37 -105 -23 -88 -34
-105 -35 -51 0 23 -4 42 -10 42 -5 0 -10 -7 -10 -15 0 -8 -5 -15 -11 -15 -20
0 -1 81 38 160 27 55 59 97 119 158 45 45 86 82 91 82 5 0 20 -18 32 -41z
m9199 16 c37 -11 69 -32 112 -71 97 -90 156 -203 206 -391 35 -135 44 -394 20
-563 -48 -329 -194 -542 -381 -558 -173 -14 -333 189 -414 528 -12 47 -20 99
-20 115 1 22 4 15 13 -25 18 -79 36 -131 45 -126 4 3 16 -21 26 -52 19 -63 59
-147 74 -156 5 -4 12 -2 16 4 13 21 65 308 65 362 l0 58 -87 67 c-148 115
-137 94 -130 247 4 72 12 149 17 171 35 132 119 279 192 338 40 32 126 66 169
67 14 0 49 -7 77 -15z m-2774 -51 c8 -22 -11 -44 -38 -44 -11 0 -67 -9 -124
-20 -208 -40 -214 -20 -12 39 155 45 166 47 174 25z m-2275 -53 c46 -9 64 -26
55 -51 -12 -34 -72 -126 -122 -186 -45 -55 -56 -63 -77 -58 -20 5 -25 2 -25
-12 0 -27 -37 -84 -55 -84 -21 0 -19 10 10 53 l26 37 -24 0 c-21 0 -27 -8 -39
-52 -11 -42 -20 -55 -41 -62 -15 -6 -29 -7 -33 -4 -8 9 13 48 45 81 l26 29
-35 -4 c-33 -3 -36 -7 -53 -58 -19 -57 -30 -70 -59 -70 -27 0 -22 31 13 73 34
41 33 53 -4 43 -18 -4 -27 -18 -41 -61 -18 -58 -29 -69 -66 -63 -21 3 -21 5
14 55 20 29 36 55 36 58 0 11 -48 4 -58 -8 -6 -7 -19 -35 -30 -62 -13 -34 -26
-51 -40 -53 -20 -3 -20 -2 -6 59 22 95 60 169 129 256 l63 78 -52 3 c-28 1
-106 -4 -174 -11 -68 -7 -125 -10 -128 -5 -3 4 -3 8 0 8 3 0 69 11 148 24 175
30 342 48 513 54 22 0 60 -3 84 -7z m1871 -26 c32 -38 -24 -75 -120 -78 -40
-2 -45 0 -48 22 -5 31 6 40 64 56 65 18 89 18 104 0z m-5974 -40 c11 -16 14
-34 10 -51 l-7 -27 -16 24 c-24 36 -44 49 -76 49 -25 0 -28 2 -17 15 7 9 29
15 51 15 30 0 42 -5 55 -25z m-42 -47 c9 -12 16 -26 16 -30 0 -13 -44 -8 -64
7 -11 8 -33 15 -49 15 -25 0 -28 2 -17 15 8 9 29 15 56 15 33 0 46 -5 58 -22z
m3427 -60 c45 -25 78 -93 61 -124 -8 -14 -13 -10 -37 30 -36 61 -90 90 -154
83 l-46 -6 40 19 c52 25 89 25 136 -2z m1837 -7 c71 -28 157 -84 210 -135 53
-49 135 -169 167 -240 62 -140 106 -341 104 -481 l-1 -70 -19 110 c-32 184
-57 264 -120 393 -46 93 -77 140 -123 190 -182 195 -399 234 -635 114 -40 -20
-91 -52 -113 -71 -21 -18 -41 -31 -44 -29 -8 8 105 107 145 127 70 36 175 62
255 64 71 2 76 3 50 14 -16 7 -45 12 -65 13 -20 0 -58 3 -85 7 -84 11 -20 23
106 19 89 -2 127 -8 168 -25z m-2183 -5 c41 -17 62 -48 71 -103 10 -62 -2
-106 -41 -149 l-35 -39 15 39 c19 48 19 128 1 164 -8 15 -26 38 -40 51 -26 25
-34 51 -16 51 6 0 26 -6 45 -14z m-52 -55 c52 -68 50 -75 -23 -67 -33 4 -74
12 -91 18 -16 6 -53 8 -80 6 -27 -3 -47 -3 -44 0 13 13 171 91 185 91 8 0 32
-22 53 -48z m375 2 l27 -28 -32 -3 c-31 -3 -93 21 -93 37 0 32 64 28 98 -6z
m-3408 -78 c-20 -47 -21 -47 -57 -42 -40 7 -83 42 -83 68 0 16 3 16 26 4 28
-14 70 -7 108 19 29 19 30 8 6 -49z m5276 -34 c65 -33 96 -56 155 -119 119
-126 181 -263 240 -526 74 -331 -77 -761 -326 -928 -98 -66 -190 -91 -309 -86
-80 3 -100 8 -169 42 -231 111 -377 365 -409 708 -5 65 -7 135 -2 155 7 35 8
33 15 -37 7 -80 49 -233 99 -365 31 -79 96 -186 115 -189 13 -1 69 114 134
275 40 99 51 138 51 182 0 66 -5 71 -160 157 -121 67 -150 88 -160 114 -7 19
-9 18 -23 -15 -14 -35 -34 -56 -43 -47 -7 8 25 162 50 234 84 249 269 444 456
484 25 5 81 7 124 5 68 -3 90 -9 162 -44z m-2010 -36 c50 -41 92 -45 142 -15
44 27 37 5 -10 -33 -21 -17 -53 -31 -77 -34 -36 -5 -44 -2 -76 30 -22 22 -35
45 -35 61 0 14 3 26 6 26 4 0 26 -16 50 -35z m-188 4 c2 -11 -10 -19 -40 -28
-24 -7 -54 -19 -66 -28 -27 -17 -128 -53 -148 -53 -16 0 -40 35 -49 73 -7 27
-6 27 41 27 27 1 74 7 104 15 73 18 154 15 158 -6z m-418 4 c0 -5 -5 -15 -10
-23 -8 -12 -10 -11 -10 8 0 12 5 22 10 22 6 0 10 -3 10 -7z m80 -62 c0 -56
-68 -117 -84 -75 -11 28 5 64 35 80 16 8 29 21 29 30 0 8 5 12 10 9 6 -3 10
-23 10 -44z m336 3 c-3 -9 -6 -22 -6 -30 0 -14 -48 -39 -58 -30 -7 8 47 76 60
76 5 0 7 -7 4 -16z m-470 -61 c6 -41 6 -43 -20 -43 -29 0 -33 17 -15 69 14 39
26 30 35 -26z m5919 -293 c-11 -5 -73 -25 -137 -44 -113 -35 -117 -37 -152
-85 -39 -53 -110 -122 -146 -141 -12 -6 -61 -18 -109 -26 -181 -30 -1270 -184
-1341 -190 -136 -12 -63 12 150 49 907 157 1248 220 1276 233 18 9 63 46 101
83 37 37 78 73 90 80 24 12 220 49 263 50 23 0 23 -1 5 -9z m-8525 -110 c617
-49 1402 -83 2195 -96 209 -3 395 -10 413 -16 59 -18 67 -44 67 -208 -1 -146
-14 -239 -43 -295 -42 -83 -220 -275 -309 -334 -77 -51 -117 -54 -558 -47
-220 3 -488 10 -595 16 -359 18 -704 41 -755 50 -60 11 569 4 910 -10 127 -5
381 -9 565 -9 308 -1 338 1 377 18 78 36 271 239 321 338 30 58 44 165 40 299
-2 97 -6 118 -21 129 -13 9 -96 14 -325 19 -776 15 -1636 53 -2162 96 -63 5
-152 10 -197 10 -81 0 -83 -1 -89 -26 -4 -14 -3 -78 1 -142 6 -105 10 -122 42
-186 85 -168 158 -256 230 -275 153 -41 975 -99 1468 -103 288 -2 302 -2 347
19 82 37 121 111 180 337 17 66 36 127 41 134 11 14 55 16 76 3 16 -11 13 -44
-26 -262 -27 -150 -26 -175 3 -186 37 -14 195 48 304 119 l35 23 -24 -33 c-61
-86 -176 -181 -252 -207 -142 -50 -761 -44 -1609 16 -308 21 -522 43 -581 59
-73 20 -146 129 -234 349 -35 88 -37 102 -42 230 l-6 137 28 22 c32 25 21 25
185 12z m-385 -260 c22 -107 43 -149 100 -197 44 -36 116 -156 102 -169 -3 -3
-15 12 -26 34 -12 23 -42 58 -68 79 -80 64 -101 91 -112 141 -12 56 -26 209
-18 202 3 -3 13 -43 22 -90z m551 63 c23 -102 71 -250 105 -322 21 -46 39 -85
39 -86 0 -3 -10 -2 -63 10 -38 8 -59 58 -91 217 -30 146 -33 208 -11 208 8 0
17 -12 21 -27z m8334 -62 c0 -5 -12 -23 -26 -40 -28 -34 -106 -61 -286 -101
l-97 -21 26 -42 c14 -23 37 -55 51 -72 l25 -30 -114 -6 c-63 -4 -330 -7 -595
-8 -524 -1 -467 3 -994 -75 -422 -63 -672 -97 -677 -92 -9 8 374 79 605 112
140 20 141 21 143 112 0 26 4 67 9 92 7 32 8 12 4 -67 -3 -62 -2 -113 1 -113
3 0 81 11 173 25 92 13 409 58 705 100 776 109 961 148 1021 214 21 23 26 25
26 12z m-7592 -88 c-21 -2 -55 -2 -75 0 -21 2 -4 4 37 4 41 0 58 -2 38 -4z
m447 -13 l120 -6 -95 -1 c-52 0 -158 3 -235 6 l-140 8 115 0 c63 0 169 -3 235
-7z m283 -17 c-15 -2 -42 -2 -60 0 -18 2 -6 4 27 4 33 0 48 -2 33 -4z m75 0
c-7 -2 -21 -2 -30 0 -10 3 -4 5 12 5 17 0 24 -2 18 -5z m2553 -69 c-68 -24
-276 -72 -411 -93 -443 -71 -690 -113 -757 -132 -42 -11 -121 -45 -175 -75
l-98 -53 59 54 c33 31 82 66 110 79 73 34 238 68 586 121 168 26 386 62 485
80 99 18 194 33 210 33 29 1 29 0 -9 -14z m-4536 -259 c85 -42 113 -62 125
-86 9 -17 14 -33 11 -36 -7 -7 -167 35 -222 58 -23 10 -45 22 -48 28 -6 10 12
91 21 91 2 0 53 -25 113 -55z m4290 -120 c-30 -19 -87 -51 -126 -71 l-71 -36
-189 -9 c-295 -13 -972 -39 -1039 -39 l-60 0 65 39 65 39 250 21 c138 11 363
30 500 41 138 12 315 27 395 34 80 8 172 14 205 15 l60 1 -55 -35z"/>
<path d="M11096 6334 c-74 -18 -96 -37 -96 -81 0 -33 8 -41 26 -23 5 5 47 18
93 29 46 11 89 25 94 30 7 7 20 5 39 -5 17 -9 32 -13 35 -11 8 9 -25 64 -42
71 -26 10 -85 6 -149 -10z"/>
<path d="M11155 6219 c-133 -27 -135 -28 -135 -47 0 -10 7 -28 16 -40 13 -18
25 -22 74 -22 80 0 108 14 120 61 7 27 17 39 32 41 30 4 36 28 6 27 -12 0 -63
-9 -113 -20z"/>
<path d="M12115 5676 c-69 -32 -112 -70 -157 -140 -36 -56 -88 -196 -102 -277
-6 -36 -6 -36 71 -87 43 -28 90 -56 105 -63 35 -15 47 -49 46 -135 -1 -81 20
-135 64 -167 32 -24 72 -17 89 15 10 18 8 24 -7 35 -11 8 -18 18 -17 23 2 5
-4 7 -11 4 -11 -4 -13 0 -9 15 10 38 -8 112 -32 137 -18 18 -20 24 -8 28 9 4
27 -6 44 -25 22 -24 29 -41 29 -71 0 -35 2 -39 15 -28 16 13 19 62 5 95 -5 13
-2 26 8 38 13 15 14 22 4 37 -15 24 -15 33 -2 25 13 -8 41 8 128 72 40 30 79
56 87 59 9 4 16 -14 25 -63 l12 -68 -97 -90 c-84 -79 -97 -95 -102 -130 -5
-42 -5 -43 87 -264 l51 -124 -23 -44 c-13 -24 -27 -42 -33 -40 -5 2 -46 73
-90 158 -113 215 -115 215 -187 -62 -48 -189 -49 -186 32 -222 171 -76 332 63
407 353 34 132 43 390 19 535 -62 366 -252 565 -451 471z m167 -53 c28 -15 66
-48 85 -72 36 -48 88 -150 99 -193 12 -52 -14 -28 -48 45 -55 115 -131 187
-248 235 -23 10 -21 11 19 11 29 1 59 -8 93 -26z m-67 -241 l0 -217 -30 -23
-30 -23 -3 42 c-3 38 -4 40 -17 23 -13 -17 -14 -13 -15 41 0 33 3 131 7 217
l6 157 36 3 c20 2 38 2 41 0 2 -2 5 -101 5 -220z m285 -587 c-14 -100 -40
-195 -53 -195 -6 0 -7 16 -3 43 29 197 36 253 36 328 0 54 4 90 13 98 17 17
22 -167 7 -274z"/>
<path d="M8200 5244 c0 -132 21 -447 31 -468 9 -19 8 -19 -7 2 -23 31 -43 28
-50 -8 -6 -26 -11 -30 -40 -30 -32 0 -33 0 -22 31 7 22 7 34 -1 42 -7 7 -15 1
-26 -24 -14 -31 -15 -14 -13 234 3 299 7 284 -68 252 -112 -46 -224 -163 -289
-300 -58 -122 -65 -107 89 -180 74 -36 154 -70 178 -76 l44 -12 -14 -81 c-16
-91 -8 -143 30 -191 24 -31 74 -55 113 -55 57 0 101 60 55 75 -28 9 -25 20 15
76 36 50 42 79 26 122 -8 19 -6 27 5 31 17 6 19 37 3 53 -9 9 -7 11 8 7 13 -4
75 23 176 75 l155 80 10 -27 c12 -29 32 -102 32 -115 0 -4 -65 -50 -145 -102
-79 -52 -151 -105 -160 -117 -32 -47 -20 -91 80 -296 l96 -193 -21 -34 c-56
-91 -202 -185 -318 -207 -69 -13 -153 -2 -218 29 -39 19 -41 24 -16 39 12 8
35 8 80 0 92 -15 183 8 290 75 18 11 25 11 40 1 53 -38 61 -28 29 42 -33 72
-183 293 -208 307 -45 23 -53 12 -204 -269 -100 -187 -101 -176 8 -228 304
-146 636 108 729 556 16 76 19 122 15 230 -5 159 -30 257 -104 410 -80 165
-234 295 -365 308 l-48 5 0 -69z m139 -28 c69 -36 101 -66 158 -148 55 -81 66
-105 53 -113 -4 -3 -29 26 -55 65 -55 82 -121 151 -185 191 -55 35 -37 38 29
5z m-178 -536 c48 -26 64 -139 25 -178 -15 -15 -16 -13 -16 23 0 60 -18 112
-45 133 -36 28 -8 45 36 22z m460 -317 c-20 -96 -76 -253 -91 -253 -4 0 -13
14 -20 31 -10 23 -10 35 -1 52 38 75 67 203 76 347 6 87 11 109 29 128 l21 24
3 -116 c2 -85 -3 -141 -17 -213z"/>
</g>
</svg>
