<svg xmlns="http://www.w3.org/2000/svg" width="1076" height="975" viewBox="0 0 1076 975">
<g>
<path d="M 562.79 788.95 C541.63,791.24 501.07,789.27 482.00,785.02 C441.42,775.96 408.92,760.96 375.00,735.63 C364.56,727.84 336.04,699.92 333.50,695.01 C331.38,690.90 327.88,689.61 323.66,691.37 C321.88,692.11 316.61,696.79 311.96,701.77 L 303.50 710.82 L 281.00 695.84 C260.13,681.94 258.23,680.89 254.74,681.34 C251.05,681.80 250.92,681.70 247.34,675.66 C214.65,620.44 198.96,563.61 198.96,500.45 C198.96,461.73 207.83,414.93 222.10,378.32 C227.40,364.74 241.66,336.65 249.93,323.50 C268.68,293.69 297.42,261.25 323.37,240.61 C381.09,194.69 452.28,168.52 525.50,166.32 C578.04,164.74 625.30,174.25 675.50,196.51 C696.78,205.94 723.20,221.46 736.50,232.34 C774.55,263.45 799.47,290.33 818.78,321.10 C844.01,361.30 858.86,400.67 867.69,450.79 C870.35,465.87 870.46,467.84 870.45,500.00 C870.45,529.34 870.18,535.18 868.30,547.01 C864.28,572.43 858.21,596.22 849.55,620.52 C844.21,635.52 830.19,664.31 823.26,674.50 C819.11,680.60 818.15,681.46 815.79,681.18 C813.82,680.95 810.25,682.71 802.58,687.68 C796.80,691.43 786.61,698.03 779.94,702.33 L 767.80 710.17 L 758.61 701.16 C745.40,688.21 742.74,687.99 733.51,699.07 C724.86,709.45 703.96,729.26 693.19,737.26 C654.17,766.28 609.90,783.83 562.79,788.95 ZM 506.00 773.54 C512.88,774.42 524.43,774.78 539.50,774.59 C565.31,774.25 581.77,771.99 605.41,765.51 C653.21,752.40 696.36,725.99 731.25,688.47 C767.65,649.32 791.24,602.09 799.90,551.00 C811.53,482.48 797.39,416.46 758.27,356.54 C749.72,343.43 746.79,339.66 734.69,326.17 C693.95,280.70 635.43,249.18 575.69,240.51 C504.55,230.20 435.84,246.59 378.47,287.55 C330.16,322.05 293.04,374.05 277.15,429.50 C268.91,458.28 266.52,475.21 266.52,505.00 C266.52,544.35 272.93,576.78 287.65,611.91 C304.46,652.03 336.43,692.79 371.84,719.26 C413.58,750.45 454.36,766.95 506.00,773.54 ZM 530.22 747.00 L 530.50 754.50 L 520.50 754.63 C508.35,754.80 501.13,753.98 483.83,750.50 C450.26,743.75 422.81,732.37 395.50,713.89 C373.08,698.73 351.42,679.13 336.48,660.49 C325.28,646.53 324.17,644.95 316.37,631.98 C297.74,601.01 284.22,559.68 281.56,525.50 C281.21,521.10 280.67,515.14 280.35,512.25 L 279.77 507.00 L 286.13 507.01 C289.64,507.01 294.80,507.29 297.61,507.63 L 302.72 508.25 L 303.37 517.44 C304.13,528.27 308.18,552.16 311.17,563.50 C314.06,574.45 320.15,590.12 321.76,590.74 C322.48,591.02 328.57,589.85 335.29,588.15 C345.40,585.59 383.72,576.31 391.72,574.48 C395.59,573.60 396.01,571.14 393.86,561.96 C392.27,555.16 387.07,522.22 387.01,518.60 C387.00,517.68 400.86,518.36 406.71,519.57 C409.64,520.18 409.96,520.62 410.47,524.87 C411.62,534.33 415.14,555.72 416.63,562.25 C417.24,564.93 417.38,566.69 418.32,567.71 C420.01,569.55 424.28,569.01 438.48,567.23 C440.26,567.01 442.20,566.77 444.31,566.51 C470.61,563.26 472.80,562.99 472.98,562.24 C473.00,562.17 473.00,562.09 473.00,562.02 L 473.00 562.00 C473.00,561.52 470.50,557.84 467.43,553.82 C461.60,546.14 450.43,524.73 451.98,524.19 C454.17,523.42 504.52,529.23 505.22,530.32 C505.63,530.97 505.98,533.10 505.98,535.06 C505.99,537.02 507.11,548.67 508.47,560.95 C509.83,573.23 510.75,583.60 510.51,583.98 C510.27,584.37 502.97,584.98 494.29,585.34 C468.90,586.38 428.01,590.66 426.21,592.46 C424.72,593.94 435.42,618.97 444.58,635.42 C449.03,643.42 450.58,647.10 453.30,648.52 C455.56,649.69 458.62,649.30 464.80,648.52 C466.20,648.34 467.76,648.14 469.50,647.94 C478.30,646.91 492.97,645.76 502.10,645.38 L 518.69 644.70 L 519.74 655.10 C520.31,660.82 520.61,665.78 520.41,666.12 C520.21,666.46 514.52,667.04 507.77,667.41 C495.48,668.08 468.84,670.87 468.11,671.57 C466.83,672.81 491.39,701.37 504.65,714.05 C515.02,723.97 526.09,733.00 527.88,733.00 C529.15,733.00 529.86,737.23 530.22,747.00 ZM 789.00 491.18 C789.00,494.87 788.66,498.05 788.25,498.25 C787.84,498.45 783.27,498.14 778.09,497.56 C767.54,496.37 767.20,496.08 767.07,488.00 C766.82,473.51 759.94,440.83 753.55,423.85 C749.32,412.62 748.39,411.52 744.42,413.05 C741.56,414.15 709.18,422.36 687.66,427.44 C681.70,428.85 676.25,430.34 675.55,430.75 C674.53,431.35 674.65,433.32 676.15,440.50 C679.06,454.41 682.16,477.24 681.81,482.11 L 681.50 486.50 L 673.13 486.13 C660.62,485.58 659.55,485.14 659.26,480.43 C658.57,469.36 653.11,435.78 651.78,434.45 C651.53,434.20 643.04,435.08 632.91,436.40 C622.79,437.73 610.34,439.12 605.25,439.51 C600.16,439.90 596.00,440.36 596.00,440.54 C596.00,440.72 598.49,444.16 601.53,448.18 C606.82,455.19 616.49,473.31 617.17,477.50 C617.47,479.34 617.01,479.48 611.50,479.26 C605.22,479.01 565.69,474.99 565.24,474.55 C565.09,474.42 564.29,467.82 563.46,459.90 C562.63,451.98 561.29,440.11 560.48,433.53 C559.66,426.95 559.00,421.27 559.00,420.91 C559.00,420.21 563.49,419.78 594.50,417.49 C618.82,415.69 642.09,412.99 643.66,411.79 C645.01,410.76 641.53,400.42 634.55,384.74 C629.18,372.69 619.27,355.04 617.49,354.36 C616.76,354.08 605.89,355.00 593.33,356.39 C559.81,360.13 552.15,360.59 551.56,358.89 C551.30,358.13 550.62,353.24 550.07,348.04 C548.89,337.09 548.93,337.04 556.79,337.02 C567.07,336.99 600.83,333.09 601.60,331.84 C602.91,329.73 582.26,305.22 566.58,290.28 C560.93,284.90 553.11,278.02 549.20,275.00 C541.06,268.72 540.17,266.89 539.89,256.00 L 539.70 248.50 L 548.60 248.77 C585.54,249.88 632.13,264.05 667.50,284.94 C678.89,291.67 696.02,304.43 707.00,314.38 C745.30,349.06 773.33,398.17 784.01,449.30 C786.48,461.13 789.00,482.28 789.00,491.18 ZM 585.00 750.91 C575.29,752.84 565.46,754.03 555.25,754.51 L 540.00 755.23 L 540.01 748.36 C540.03,736.37 540.56,734.92 546.34,731.02 C557.78,723.30 599.39,678.63 600.80,672.56 C601.01,671.64 598.11,670.95 590.41,670.08 C580.53,668.97 556.63,667.12 551.12,667.04 C548.77,667.00 548.75,666.90 549.43,659.75 C549.81,655.76 550.38,650.75 550.71,648.61 L 551.30 644.73 L 565.90 645.41 C573.93,645.78 588.56,647.02 598.41,648.16 L 616.32 650.22 L 618.22 647.86 C621.36,643.94 637.67,610.08 640.68,601.22 C643.00,594.42 643.25,592.79 642.13,592.08 C639.39,590.38 604.27,586.64 576.09,585.05 C565.96,584.48 557.50,583.84 557.29,583.62 C556.74,583.07 562.22,533.65 562.93,532.82 C563.58,532.04 607.64,526.00 612.68,526.00 C614.74,526.00 616.00,526.49 616.00,527.30 C616.00,529.23 608.49,544.41 604.86,549.81 C603.13,552.39 600.09,556.21 598.11,558.29 C595.61,560.93 594.88,562.31 595.72,562.83 C597.41,563.87 647.70,569.33 649.45,568.66 C650.23,568.36 651.36,566.40 651.95,564.31 C653.56,558.63 657.70,535.46 658.47,527.86 C659.24,520.19 658.70,520.50 673.71,519.34 L 682.11 518.70 L 681.50 524.10 C679.57,541.31 678.64,547.72 676.44,558.83 L 676.43 558.88 C674.19,570.19 673.65,572.95 674.71,573.88 C675.05,574.18 675.57,574.29 676.25,574.43 C682.68,575.77 742.90,590.17 745.26,590.94 C747.46,591.65 748.21,591.48 748.95,590.08 C752.76,582.97 760.75,555.94 763.51,540.82 C764.38,536.04 765.45,526.93 765.87,520.58 C766.30,514.22 766.93,508.74 767.27,508.39 C767.74,507.92 786.57,504.11 788.90,504.02 C789.12,504.01 789.02,509.74 788.69,516.75 C785.54,581.78 751.68,650.10 700.50,694.66 C668.45,722.57 627.62,742.45 585.00,750.91 ZM 296.50 496.69 C293.20,497.34 288.36,498.17 285.75,498.53 L 281.00 499.19 L 281.03 494.84 C281.11,479.97 285.68,450.77 290.57,433.76 C294.67,419.52 305.44,392.61 311.68,381.00 C326.73,353.04 349.16,325.99 374.00,305.87 C391.32,291.84 396.18,288.64 418.50,276.60 C446.68,261.39 486.02,250.39 516.25,249.26 L 530.00 248.74 L 530.00 257.76 C530.00,258.12 530.00,258.48 530.00,258.81 C530.01,262.44 530.01,264.64 529.28,266.56 C528.08,269.71 524.90,272.10 516.50,278.79 C497.36,294.03 465.36,329.69 468.24,332.58 C468.92,333.25 492.74,335.57 509.28,336.57 C515.75,336.96 521.20,337.55 521.37,337.89 C521.91,338.90 519.88,358.45 519.16,359.16 C518.09,360.22 473.68,356.85 456.37,354.39 L 452.24 353.81 L 447.03 363.05 C439.50,376.41 426.00,406.91 426.00,410.57 C426.00,411.31 427.46,412.15 429.25,412.44 C441.78,414.47 474.88,417.65 503.25,419.54 C508.61,419.89 513.00,420.48 513.00,420.84 C513.00,421.20 512.13,429.15 511.07,438.50 C510.01,447.85 508.83,458.98 508.46,463.22 C508.08,467.47 507.26,471.36 506.64,471.88 C505.59,472.73 462.55,478.00 456.60,478.00 C454.79,478.00 454.00,477.47 454.00,476.26 C454.00,473.18 462.82,456.75 468.91,448.50 L 474.81 440.50 L 466.65 439.68 C462.17,439.23 449.76,437.79 439.08,436.48 C428.39,435.17 419.34,434.29 418.96,434.52 C417.80,435.24 413.93,455.20 412.15,469.70 L 410.46 483.43 L 404.48 484.63 C401.19,485.30 396.25,485.99 393.50,486.17 L 388.50 486.50 L 388.72 479.50 C388.97,471.62 391.09,456.56 394.13,441.14 C395.25,435.44 395.80,430.44 395.34,430.03 C394.88,429.63 387.75,427.87 379.50,426.12 C371.25,424.37 356.40,420.88 346.50,418.37 C336.60,415.85 326.81,413.56 324.74,413.29 C321.10,412.80 320.92,412.93 319.01,417.24 C313.51,429.67 307.26,456.84 304.22,481.50 L 302.50 495.50 ZM 116.50 587.95 C103.85,588.58 92.07,589.31 90.33,589.57 C88.47,589.86 86.85,589.57 86.42,588.88 C85.45,587.30 84.03,564.68 84.85,563.84 C85.21,563.48 88.65,561.52 92.50,559.48 C107.90,551.32 140.64,533.63 142.90,532.23 C145.02,530.93 145.11,530.64 143.66,529.83 C141.69,528.73 116.00,518.09 96.50,510.30 C88.80,507.22 82.15,504.40 81.73,504.04 C81.04,503.43 79.01,479.96 79.59,479.17 C79.90,478.73 144.78,475.05 152.61,475.02 L 158.72 475.00 L 159.27 486.25 C159.57,492.44 159.52,497.81 159.16,498.19 C158.80,498.57 152.65,499.16 145.50,499.50 C130.82,500.20 127.30,500.72 128.61,501.98 C129.10,502.46 134.90,505.09 141.50,507.82 C148.10,510.55 155.12,513.49 157.10,514.34 L 160.70 515.90 L 161.34 524.20 C161.70,528.76 161.99,535.01 161.99,538.07 L 162.00 543.64 L 153.29 548.57 C148.50,551.28 141.44,555.08 137.60,557.00 C133.77,558.92 130.47,561.00 130.28,561.62 C130.02,562.41 134.75,562.70 146.71,562.62 L 163.50 562.50 L 164.16 573.00 C164.52,578.78 164.42,583.92 163.94,584.42 C162.99,585.41 153.02,586.15 116.50,587.95 ZM 778.17 200.30 C773.27,202.60 770.02,203.39 764.61,203.60 C760.70,203.76 756.60,203.65 755.50,203.37 C744.64,200.56 730.86,192.20 724.67,184.65 C710.42,167.25 712.05,144.39 728.66,128.90 C740.57,117.80 759.82,116.14 776.49,124.78 C786.44,129.94 797.96,141.53 800.85,149.29 C804.47,159.03 803.40,171.45 798.02,181.96 C794.70,188.46 785.70,196.78 778.17,200.30 ZM 956.50 467.99 C949.79,470.56 936.14,471.57 929.73,469.97 C917.04,466.79 906.27,455.98 901.94,442.06 C894.93,419.52 901.99,396.72 918.47,388.65 C930.96,382.53 948.20,382.03 958.93,387.46 C976.61,396.42 985.93,425.34 977.95,446.50 C974.80,454.84 964.90,464.76 956.50,467.99 ZM 391.00 163.79 C380.26,167.15 373.77,167.27 364.50,164.30 C350.87,159.92 340.37,147.43 338.07,132.85 C334.17,108.25 351.03,87.88 378.43,84.07 C404.72,80.42 425.55,97.88 425.48,123.50 C425.45,130.37 425.00,132.45 422.27,138.26 C416.42,150.72 406.25,159.02 391.00,163.79 ZM 982.79 581.14 L 981.47 592.50 L 975.98 592.64 C972.97,592.71 962.62,591.96 953.00,590.98 C943.38,589.99 928.84,588.61 920.70,587.91 C912.56,587.22 905.19,586.13 904.32,585.49 C902.90,584.45 902.88,582.94 904.12,570.07 L 905.50 555.81 L 928.99 543.44 C941.91,536.64 952.62,530.65 952.79,530.12 C952.97,529.60 950.72,528.72 947.81,528.19 C941.82,527.08 919.43,524.98 913.81,524.99 C911.78,525.00 909.87,524.60 909.57,524.11 C908.99,523.18 910.87,501.82 911.59,501.09 C911.98,500.69 919.19,501.17 962.50,504.49 C972.95,505.29 983.25,505.96 985.39,505.97 L 989.29 506.00 L 988.61 516.25 C988.24,521.89 987.67,528.67 987.33,531.31 L 986.73 536.12 L 973.11 542.99 C949.75,554.77 933.75,563.73 934.86,564.41 C935.92,565.07 947.23,566.20 970.91,568.02 C977.73,568.55 983.49,569.16 983.71,569.38 C983.93,569.60 983.52,574.89 982.79,581.14 ZM 596.42 136.13 C595.88,137.00 594.85,137.01 587.75,136.27 C584.23,135.90 584.00,135.67 584.00,132.50 C584.00,130.64 583.63,128.89 583.18,128.61 C582.73,128.33 579.92,129.24 576.93,130.63 C541.97,146.86 504.12,123.64 509.79,89.44 C513.30,68.29 530.12,55.00 553.39,55.00 C561.09,55.00 573.88,58.15 579.47,61.43 C587.58,66.18 596.00,77.92 597.16,86.07 C597.49,88.46 597.36,88.50 589.00,88.81 C584.33,88.98 578.61,88.84 576.29,88.51 C572.64,87.97 571.79,87.34 569.79,83.70 C565.84,76.47 554.77,72.87 546.32,76.06 C539.31,78.70 534.00,87.72 534.00,96.99 C534.00,102.14 538.44,110.49 542.54,113.02 C548.25,116.56 551.90,117.17 557.49,115.54 C562.74,114.01 570.04,108.75 568.75,107.43 C568.33,107.00 564.96,106.40 561.25,106.08 L 554.50 105.50 L 553.90 93.00 L 566.20 93.01 C572.97,93.01 582.95,93.31 588.40,93.67 L 598.30 94.32 L 597.63 114.79 C597.26,126.05 596.71,135.65 596.42,136.13 ZM 162.82 451.25 C162.33,452.21 161.55,453.00 161.08,453.00 C160.62,453.00 153.55,448.13 145.37,442.17 C137.19,436.22 123.07,426.02 114.00,419.51 C104.93,413.00 96.65,406.88 95.62,405.93 C93.78,404.22 93.83,403.83 97.53,389.34 C99.61,381.18 101.81,373.97 102.41,373.32 C103.52,372.13 170.63,365.00 180.77,365.00 C185.71,365.00 186.01,365.14 185.54,367.25 C182.87,379.31 180.72,387.63 180.11,388.26 C179.71,388.68 176.72,389.36 173.47,389.76 L 167.56 390.50 L 163.84 404.00 C161.79,411.43 159.87,418.49 159.55,419.70 C159.09,421.48 159.88,422.50 163.74,425.11 C166.36,426.88 168.67,428.46 168.88,428.63 C169.35,429.00 164.03,448.85 162.82,451.25 ZM 200.52 337.98 C196.95,343.49 193.91,347.99 193.77,347.97 C193.62,347.95 189.23,345.22 184.00,341.90 C178.77,338.58 164.80,330.08 152.94,323.00 C141.09,315.93 130.42,309.32 129.22,308.32 L 127.06 306.50 L 139.96 285.18 C147.06,273.46 153.97,262.42 155.32,260.65 C158.35,256.68 167.49,252.08 173.88,251.33 C184.55,250.06 196.18,256.29 201.30,266.02 C203.85,270.84 204.14,272.28 203.75,278.00 C203.25,285.20 201.90,288.32 192.88,303.16 C189.64,308.47 187.00,313.22 187.00,313.72 C187.00,314.21 191.50,317.24 197.00,320.45 C202.50,323.66 207.00,326.66 207.00,327.12 C207.00,327.58 204.08,332.46 200.52,337.98 ZM 908.06 363.58 C901.03,368.23 893.73,367.55 884.85,361.40 C878.78,357.19 873.67,350.66 868.14,340.05 C859.57,323.57 857.17,312.14 860.08,301.65 C861.33,297.16 868.42,289.00 871.07,289.00 C872.33,289.00 874.64,292.10 878.60,299.09 L 884.31 309.18 L 881.51 311.41 C878.96,313.45 878.75,314.09 879.24,318.40 C879.93,324.52 886.14,337.10 890.14,340.47 C892.94,342.82 893.46,342.94 895.37,341.68 C898.76,339.44 898.52,334.54 894.52,323.43 C886.59,301.48 886.10,289.79 892.75,281.89 C898.27,275.32 910.06,273.02 918.50,276.86 C927.72,281.06 941.51,301.86 945.00,316.86 C946.45,323.05 945.73,331.65 943.37,336.34 C941.43,340.20 934.05,348.00 932.33,348.00 C930.89,348.00 927.43,342.23 923.46,333.20 L 920.69 326.91 L 922.84 325.40 C929.54,320.71 919.96,298.38 911.60,299.20 C908.54,299.50 908.50,299.57 908.71,304.67 C908.83,307.52 910.02,312.54 911.36,315.84 C915.28,325.51 917.30,334.91 917.40,344.07 C917.49,351.83 917.24,353.03 914.74,356.81 C913.22,359.11 910.22,362.15 908.06,363.58 ZM 806.50 786.04 C803.94,787.27 800.31,787.96 796.40,787.98 C796.08,787.98 795.76,787.98 795.47,787.98 C793.50,788.00 792.24,788.01 791.12,787.61 C788.95,786.84 787.33,784.55 782.18,777.82 L 777.06 771.14 L 782.28 766.89 C791.89,759.08 800.00,750.64 800.00,748.44 C800.00,746.26 788.95,732.78 781.11,725.40 C778.46,722.90 777.01,720.79 777.45,720.08 C778.38,718.58 812.87,696.00 814.24,696.00 C814.52,696.00 826.26,707.57 840.32,721.72 C859.34,740.85 865.62,747.75 864.85,748.68 C864.29,749.36 857.29,754.10 849.31,759.21 C841.33,764.32 829.34,772.02 822.65,776.32 C815.97,780.61 808.70,784.99 806.50,786.04 ZM 284.94 780.99 L 277.89 789.00 L 272.19 788.92 C266.72,788.84 265.89,788.45 251.00,778.77 C242.48,773.23 229.02,764.60 221.10,759.59 C213.18,754.57 206.21,749.69 205.61,748.74 C204.67,747.25 208.11,743.41 229.50,722.00 C243.24,708.25 255.10,697.00 255.86,697.00 C256.62,697.00 262.25,700.29 268.37,704.31 C274.49,708.33 282.30,713.31 285.73,715.37 C289.15,717.43 292.17,719.47 292.44,719.90 C292.70,720.33 287.54,726.34 280.96,733.25 C273.01,741.61 269.00,746.57 269.00,748.05 C269.00,750.41 273.50,755.19 285.25,765.31 C288.96,768.51 292.00,771.55 292.00,772.06 C292.00,772.57 288.83,776.59 284.94,780.99 ZM 389.50 405.52 C395.55,406.79 400.78,407.86 401.13,407.91 C402.37,408.09 403.72,405.28 408.53,392.52 C411.23,385.39 416.86,372.55 421.06,364.01 L 428.69 348.46 L 418.26 346.18 C412.52,344.93 400.95,341.67 392.54,338.95 C384.13,336.23 376.59,334.00 375.78,334.00 C372.99,334.00 357.25,351.75 347.03,366.43 C340.80,375.36 332.00,389.40 332.00,390.39 C332.00,391.54 368.00,401.01 389.50,405.52 ZM 687.41 153.30 C686.01,157.46 684.33,161.30 683.68,161.83 C682.33,162.93 675.86,161.10 641.75,149.99 C625.10,144.56 619.01,142.16 619.02,141.04 C619.06,138.08 642.64,68.62 643.73,68.26 C645.17,67.78 706.82,87.91 707.56,89.10 C708.13,90.02 702.27,105.71 701.08,106.45 C700.72,106.67 691.90,104.19 681.47,100.93 C671.04,97.68 661.75,95.01 660.84,95.01 C658.59,95.00 655.40,104.00 657.25,105.17 C657.94,105.61 666.15,108.51 675.50,111.62 C684.85,114.73 692.61,117.36 692.74,117.46 C693.34,117.93 688.73,129.98 687.60,130.91 C686.70,131.66 681.76,130.42 670.02,126.48 C661.05,123.46 653.11,121.00 652.39,121.00 C650.90,121.00 648.46,128.15 649.25,130.21 C649.54,130.96 658.60,134.41 669.39,137.89 C680.18,141.36 689.22,144.55 689.48,144.97 C689.74,145.39 688.81,149.14 687.41,153.30 ZM 679.50 665.87 C686.10,668.03 692.17,669.84 693.00,669.90 C694.59,670.01 705.54,658.83 714.52,647.93 C721.33,639.66 737.00,616.27 737.00,614.38 C737.00,613.59 735.76,612.48 734.25,611.90 C729.36,610.03 677.53,597.50 670.43,596.47 L 666.35 595.88 L 665.08 600.19 C662.65,608.41 652.84,631.56 647.05,642.72 C642.92,650.69 641.56,654.21 642.36,654.85 C642.99,655.34 648.90,657.14 655.50,658.85 C662.10,660.55 672.90,663.72 679.50,665.87 ZM 667.01 405.75 C667.53,406.99 668.46,408.00 669.07,408.00 C669.68,408.00 676.10,406.63 683.34,404.97 C716.81,397.25 734.61,392.67 735.91,391.45 C737.11,390.31 736.49,388.74 731.75,380.81 C722.86,365.92 714.19,354.31 704.09,343.75 C698.85,338.28 696.70,335.60 694.03,334.89 C691.66,334.26 688.89,335.17 683.21,337.03 C682.19,337.36 681.09,337.72 679.87,338.11 C674.72,339.76 664.42,342.68 657.00,344.61 C649.58,346.54 642.91,348.31 642.19,348.55 C641.24,348.86 641.90,350.74 644.52,355.24 C649.85,364.41 656.13,377.87 661.41,391.50 C663.97,398.10 666.49,404.51 667.01,405.75 ZM 367.29 660.62 C371.65,665.23 375.97,669.00 376.89,669.00 C377.80,669.00 384.21,667.23 391.13,665.08 C398.05,662.92 408.83,659.93 415.10,658.43 C421.37,656.93 427.04,655.28 427.70,654.77 C428.59,654.08 426.87,649.89 421.09,638.67 C416.79,630.33 410.86,617.31 407.92,609.75 C403.00,597.09 402.37,596.00 400.04,596.01 C394.96,596.02 334.66,611.16 332.77,612.90 C332.36,613.27 333.07,615.13 334.35,617.03 C335.62,618.94 338.83,623.88 341.49,628.00 C348.22,638.45 357.94,650.75 367.29,660.62 ZM 312.25 208.23 C307.44,211.75 302.99,214.93 302.36,215.30 C301.67,215.71 298.49,212.15 294.26,206.24 C282.43,189.70 267.85,170.88 266.44,170.34 C265.71,170.06 260.80,173.01 255.55,176.91 C250.29,180.81 245.60,184.00 245.11,184.00 C243.73,184.00 232.95,168.65 233.77,167.85 C237.39,164.32 293.82,123.01 294.98,123.04 C296.38,123.08 305.38,134.22 306.62,137.46 C306.98,138.40 303.95,141.26 297.64,145.95 C292.39,149.84 287.86,153.43 287.55,153.92 C287.24,154.42 294.64,165.10 303.98,177.66 C313.33,190.22 320.98,200.80 320.99,201.17 C320.99,201.54 317.06,204.72 312.25,208.23 ZM 852.18 268.91 C845.13,272.53 835.26,272.82 827.69,269.63 C816.61,264.95 807.13,255.65 801.69,244.11 C799.18,238.79 798.68,236.50 798.72,230.50 C798.75,225.75 799.37,222.01 800.55,219.54 C802.60,215.22 808.48,208.64 809.84,209.15 C810.35,209.34 814.04,213.01 818.04,217.31 L 825.30 225.11 L 823.15 228.94 C820.62,233.44 820.46,236.06 822.46,239.93 C825.79,246.36 833.64,250.23 839.12,248.15 C840.54,247.60 847.02,242.29 853.52,236.33 C871.97,219.42 877.23,215.00 878.93,215.01 C879.79,215.01 883.74,218.79 887.69,223.40 L 894.89 231.79 L 888.69 237.65 C872.63,252.86 856.43,266.72 852.18,268.91 ZM 883.54 701.55 C875.32,704.18 864.94,708.28 860.49,710.65 L 852.40 714.95 L 846.43 708.73 C843.15,705.30 839.15,701.04 837.54,699.25 L 834.63 696.00 L 837.00 691.75 C838.31,689.41 841.53,684.90 844.16,681.73 C849.06,675.83 857.88,661.62 860.41,655.57 C861.60,652.72 862.65,651.95 867.16,650.66 C876.81,647.88 882.07,646.73 882.62,647.28 C882.92,647.58 882.41,654.07 881.50,661.70 C881.39,662.59 881.29,663.44 881.19,664.26 C880.00,674.16 879.49,678.38 881.19,681.31 C882.59,683.72 885.49,685.26 890.73,688.38 C898.60,693.07 900.67,694.73 899.73,695.61 C899.05,696.24 891.77,698.92 883.54,701.55 ZM 226.41 704.87 C221.68,709.89 217.52,713.96 217.16,713.92 C216.80,713.87 211.55,711.42 205.50,708.46 C195.75,703.71 188.77,701.33 171.75,696.96 C169.14,696.29 167.00,695.38 167.00,694.94 C167.00,694.49 171.49,691.78 176.99,688.91 C184.13,685.17 187.54,683.62 188.90,681.01 C190.12,678.67 189.72,675.48 188.90,669.10 C188.80,668.37 188.70,667.59 188.60,666.77 C187.69,659.47 186.71,652.04 186.42,650.25 C185.97,647.38 186.18,647.00 188.21,647.00 C191.39,647.00 203.88,650.65 205.61,652.09 C206.39,652.74 209.34,657.10 212.17,661.79 C215.00,666.47 221.30,675.64 226.16,682.16 C231.02,688.68 235.00,694.40 235.00,694.88 C235.00,695.35 231.13,699.85 226.41,704.87 ZM 584.61 727.17 C585.43,728.51 589.42,727.54 606.50,721.85 C624.37,715.90 645.48,705.77 660.17,696.10 C666.04,692.23 671.13,688.60 671.48,688.03 C671.83,687.46 670.86,686.50 669.31,685.90 C663.95,683.80 632.48,676.03 629.32,676.01 C626.39,676.00 625.33,677.07 616.24,689.25 C607.46,701.02 590.17,721.17 585.68,724.86 C584.77,725.61 584.28,726.65 584.61,727.17 ZM 469.50 723.52 C480.07,726.78 485.00,727.69 485.00,726.39 C485.00,726.05 481.55,722.12 477.33,717.64 C467.07,706.75 456.17,693.61 449.39,683.93 C445.64,678.57 443.19,676.00 441.86,676.00 C439.07,676.00 419.78,680.43 409.85,683.35 C402.39,685.54 398.75,686.37 398.57,687.68 C398.42,688.76 400.63,690.18 405.01,692.97 C405.81,693.48 406.69,694.04 407.63,694.65 C428.10,707.88 446.25,716.35 469.50,723.52 ZM 427.10 325.42 C432.82,326.74 438.59,327.75 439.93,327.66 C441.79,327.54 444.23,324.92 450.43,316.40 C459.82,303.48 464.55,297.72 475.38,286.02 C485.33,275.27 484.55,275.01 463.21,282.00 C445.12,287.92 422.47,298.67 407.12,308.62 C397.57,314.81 396.90,315.45 398.62,316.72 C401.00,318.46 413.68,322.33 427.10,325.42 ZM 619.87 316.74 C626.75,326.03 628.58,327.91 630.35,327.53 C653.90,322.53 671.00,317.47 671.00,315.51 C671.00,311.79 634.37,291.60 615.02,284.65 C604.37,280.83 588.08,276.00 585.83,276.00 C585.13,276.00 587.74,279.26 591.63,283.25 C601.47,293.33 610.11,303.58 619.87,316.74 ZM 374.50 144.10 C379.93,146.62 383.68,146.46 389.69,143.47 C398.72,138.97 402.68,129.74 400.05,119.29 C396.65,105.77 383.30,100.12 371.17,107.07 C364.96,110.63 362.06,115.73 362.02,123.12 C361.98,132.62 366.65,140.47 374.50,144.10 ZM 935.56 446.93 C940.95,447.82 942.40,447.64 948.70,445.38 C953.29,443.73 958.61,438.41 959.60,434.47 C960.84,429.50 959.55,418.22 957.41,415.34 C953.67,410.34 950.38,408.62 943.72,408.20 C935.10,407.65 929.37,409.39 924.79,413.98 C921.04,417.72 921.00,417.85 921.00,425.67 C921.00,438.59 925.58,445.28 935.56,446.93 ZM 755.36 181.01 C766.10,183.43 776.88,174.46 778.64,161.62 C779.46,155.60 775.68,147.20 770.76,144.16 C766.71,141.66 759.69,140.46 754.65,141.41 C749.49,142.37 741.33,150.08 739.91,155.32 C736.86,166.66 743.94,178.43 755.36,181.01 ZM 789.66 669.08 C792.87,669.40 795.62,669.74 795.76,669.83 C795.90,669.92 799.50,666.80 803.76,662.88 C808.68,658.36 813.04,653.16 815.73,648.63 C818.06,644.71 819.97,641.16 819.98,640.75 C820.02,639.28 816.91,640.03 813.16,642.40 C805.32,647.35 793.00,653.03 792.88,651.76 C792.81,651.07 792.85,644.85 792.97,637.95 C793.15,627.85 792.90,625.16 791.70,624.17 C790.46,623.13 789.87,623.48 788.18,626.21 C783.71,633.45 779.17,644.30 778.00,650.52 L 776.76 657.09 L 780.29 662.79 C783.82,668.50 783.83,668.50 789.66,669.08 ZM 265.37 662.25 C272.79,669.42 273.76,669.77 282.22,668.19 C285.41,667.60 286.44,666.67 289.41,661.72 L 292.89 655.94 L 290.11 645.08 C287.97,636.73 286.45,633.03 283.58,629.11 C277.67,621.06 277.01,621.87 277.27,636.75 C277.40,643.76 277.14,650.06 276.70,650.74 C275.74,652.22 271.70,650.33 259.67,642.79 C251.43,637.63 247.93,637.06 250.08,641.24 C254.46,649.71 259.32,656.40 265.37,662.25 ZM 236.50 571.10 C239.25,572.06 241.95,572.87 242.50,572.91 C243.05,572.95 245.87,570.85 248.76,568.24 L 254.02 563.50 L 255.18 554.00 C256.13,546.22 256.08,543.14 254.90,537.01 C253.06,527.45 251.14,526.64 248.24,534.20 C241.78,551.03 240.41,554.18 239.51,554.27 C238.97,554.32 234.81,549.49 230.27,543.53 C229.50,542.51 228.79,541.58 228.15,540.73 C222.39,533.15 221.41,531.87 220.58,531.95 C220.31,531.98 220.06,532.15 219.68,532.29 C217.42,533.16 219.50,543.15 224.08,553.50 C231.10,569.33 231.00,569.19 236.50,571.10 ZM 718.23 284.60 C729.18,290.16 731.45,290.51 738.31,287.64 C742.38,285.94 743.60,283.71 744.50,276.29 C745.37,269.15 740.05,260.27 730.00,252.10 C722.60,246.09 719.96,244.80 720.04,247.25 C720.06,247.94 722.06,253.90 724.48,260.50 C726.90,267.10 728.57,272.81 728.19,273.19 C727.81,273.56 724.58,273.30 721.00,272.59 C697.46,267.93 696.44,268.07 703.48,274.98 C706.11,277.56 712.21,281.54 718.23,284.60 ZM 681.00 257.61 C691.41,260.28 695.43,259.48 700.87,253.65 C703.06,251.31 703.19,250.60 702.53,244.41 C701.87,238.31 701.42,237.29 697.42,233.01 C692.58,227.85 677.12,217.00 674.60,217.00 C672.33,217.00 672.58,218.21 676.07,224.11 C677.75,226.97 680.66,232.35 682.53,236.06 C686.77,244.48 686.06,245.55 677.01,244.50 C673.69,244.12 667.73,244.13 663.77,244.52 L 656.57 245.25 L 659.50 247.58 C664.94,251.92 672.46,255.43 681.00,257.61 ZM 334.18 288.10 C337.11,289.11 339.69,289.95 339.91,289.97 C340.14,289.99 343.96,288.55 348.40,286.78 C354.94,284.17 357.81,282.27 363.49,276.81 C371.58,269.03 371.56,269.01 356.50,271.49 C344.54,273.45 342.34,273.41 341.76,271.20 C341.51,270.22 343.46,264.48 346.11,258.45 C351.24,246.78 351.72,245.00 349.75,245.01 C345.78,245.03 335.37,255.03 329.48,264.48 L 324.79 272.01 L 325.88 278.19 C326.47,281.58 327.39,284.79 327.91,285.31 C328.43,285.83 331.25,287.09 334.18,288.10 ZM 820.75 568.25 C823.32,570.86 825.96,573.00 826.62,573.00 C827.28,573.00 830.41,572.01 833.57,570.80 C839.29,568.61 839.33,568.56 843.29,560.05 C848.22,549.48 851.89,532.00 849.20,532.00 C848.76,532.00 844.47,536.95 839.68,543.00 C834.89,549.05 830.60,554.00 830.17,554.00 C829.73,554.00 826.92,548.29 823.93,541.32 C820.95,534.34 817.99,528.47 817.38,528.27 C815.29,527.61 814.01,541.53 815.09,553.00 L 816.08 563.50 ZM 374.78 257.45 C377.38,258.80 379.92,259.93 380.44,259.95 C382.49,260.06 396.74,255.65 400.50,253.75 C402.70,252.64 406.52,250.33 409.00,248.61 L 413.50 245.50 L 399.50 245.00 C386.46,244.53 385.48,244.36 385.22,242.50 C385.06,241.40 387.65,235.91 390.97,230.30 C396.49,220.96 398.09,217.00 396.33,217.00 C394.39,217.00 381.73,224.90 376.70,229.26 C369.55,235.45 368.00,238.35 368.00,245.52 C368.00,252.68 369.00,254.44 374.78,257.45 ZM 297.26 325.88 C303.81,327.78 305.97,327.20 314.71,321.27 C322.05,316.28 333.00,305.20 333.00,302.75 C333.00,301.30 327.46,302.06 323.00,304.13 C315.22,307.73 305.53,310.89 304.71,310.10 C304.28,309.67 305.00,303.16 306.32,295.63 C307.63,288.10 308.36,281.72 307.94,281.47 C307.52,281.21 304.55,283.87 301.34,287.40 C297.26,291.86 294.37,296.36 291.76,302.29 C288.10,310.62 288.05,310.86 289.43,315.44 C291.40,321.99 293.51,324.80 297.26,325.88 ZM 826.10 467.20 C826.41,467.29 826.71,467.38 826.99,467.46 C830.20,468.40 831.74,468.85 833.13,468.56 C834.54,468.28 835.80,467.25 838.47,465.23 L 843.44 461.46 L 844.86 451.13 C846.16,441.65 846.13,440.15 844.48,432.90 C843.45,428.39 842.15,425.00 841.47,425.00 C840.80,425.00 839.02,428.48 837.51,432.73 C836.00,436.99 833.67,442.95 832.33,445.98 L 829.88 451.50 L 825.19 446.44 C822.61,443.65 818.19,438.70 815.37,435.44 C812.55,432.17 809.95,429.78 809.59,430.11 C807.90,431.71 811.45,445.88 815.95,455.50 L 820.70 465.63 ZM 805.50 617.75 C810.19,622.30 810.30,622.33 817.38,621.36 C821.55,620.79 822.42,620.19 825.71,615.61 C827.74,612.80 830.64,609.05 832.15,607.27 C833.67,605.49 835.82,601.10 836.93,597.51 C838.03,593.91 839.42,590.08 840.01,588.99 C842.03,585.20 839.06,586.90 827.73,596.00 C821.56,600.95 816.01,605.00 815.39,605.00 C814.70,605.00 813.54,599.89 812.42,591.97 C811.41,584.80 810.21,578.39 809.77,577.72 C808.63,576.00 806.49,579.04 803.97,585.94 C802.85,589.00 801.65,592.17 801.30,593.00 C800.96,593.83 800.78,598.78 800.89,604.00 L 801.11 613.50 ZM 229.58 518.23 C232.29,519.73 234.95,520.95 235.50,520.94 C236.05,520.93 238.96,519.45 241.98,517.66 L 247.45 514.39 L 250.50 504.44 C253.13,495.89 253.48,493.45 253.03,487.00 C252.65,481.60 252.12,479.50 251.14,479.50 C250.39,479.50 247.32,483.77 244.31,489.00 L 244.27 489.08 C237.83,500.26 236.46,502.66 235.39,502.53 C235.09,502.49 234.82,502.27 234.47,501.98 C233.71,501.34 230.52,496.14 227.38,490.41 C223.34,483.03 221.14,480.00 219.84,480.00 C216.85,480.00 217.27,493.53 220.60,504.18 C224.05,515.26 223.95,515.10 229.58,518.23 ZM 783.32 362.31 L 791.15 370.13 L 796.82 369.44 C799.95,369.06 802.87,368.53 803.33,368.26 C803.79,368.00 805.75,365.30 807.69,362.27 L 811.21 356.77 L 808.65 347.01 C806.91,340.38 804.76,335.13 801.93,330.63 C795.49,320.36 794.75,321.26 795.58,338.36 C796.01,347.26 795.91,352.94 795.31,353.31 C794.78,353.63 790.56,351.61 785.93,348.81 C776.65,343.20 769.10,339.56 768.34,340.33 C767.00,341.67 776.26,355.26 783.32,362.31 ZM 267.10 368.74 C268.42,369.41 271.44,369.98 273.82,369.99 C277.76,370.00 278.80,369.40 285.50,363.33 C293.72,355.89 302.98,342.58 301.19,340.79 C301.01,340.61 300.86,340.45 300.69,340.35 C299.79,339.86 298.04,340.93 286.05,348.26 L 285.10 348.85 C273.64,355.85 273.51,355.72 274.37,337.76 C275.16,321.24 274.46,320.53 267.58,330.88 C263.53,336.97 262.80,338.95 261.26,347.97 L 259.52 358.18 L 262.11 362.84 C263.53,365.40 265.78,368.06 267.10,368.74 ZM 248.73 621.31 C249.70,621.56 252.58,621.82 255.12,621.88 C259.36,621.99 260.08,621.64 263.76,617.65 C265.97,615.25 268.06,612.39 268.41,611.29 C269.22,608.74 266.66,592.37 264.23,584.50 C262.82,579.91 261.93,578.50 260.47,578.50 C258.37,578.50 258.10,579.51 255.94,595.78 C255.26,600.89 254.35,605.28 253.93,605.55 C253.50,605.81 248.52,601.97 242.85,597.01 C237.18,592.06 231.91,588.00 231.14,588.00 C229.21,588.00 230.18,593.53 233.31,600.36 C236.39,607.10 246.41,620.70 248.73,621.31 ZM 231.72 464.75 C234.32,467.09 237.26,469.00 238.26,469.00 C239.25,469.00 242.29,467.87 245.01,466.50 C249.45,464.25 250.38,463.14 254.11,455.75 C257.59,448.83 260.99,437.23 261.00,432.25 C261.00,429.27 257.90,431.64 249.55,441.00 C244.64,446.50 240.29,451.00 239.89,451.00 C239.14,451.00 237.61,447.21 232.48,432.75 C230.98,428.49 229.20,425.00 228.54,425.00 C227.88,425.00 226.51,428.32 225.50,432.39 C223.74,439.43 223.73,440.26 225.33,450.14 C227.00,460.48 227.01,460.51 231.72,464.75 ZM 756.00 322.02 C760.12,324.76 763.80,327.00 764.17,327.00 C764.54,327.00 767.12,326.47 769.91,325.83 C775.96,324.43 778.35,322.05 779.83,315.92 C780.81,311.90 780.65,310.54 778.59,304.85 C777.30,301.28 775.53,297.04 774.68,295.43 C772.31,290.98 762.33,280.39 761.37,281.32 C760.91,281.76 761.80,288.23 763.34,295.69 C765.19,304.66 765.81,309.59 765.15,310.25 C764.50,310.90 760.29,309.67 752.74,306.62 C741.85,302.21 737.00,301.04 737.00,302.81 C737.00,305.12 749.39,317.64 756.00,322.02 ZM 243.65 414.99 C246.11,417.92 246.75,418.17 250.50,417.65 C257.63,416.68 259.63,415.34 265.38,407.70 C272.57,398.15 279.20,383.00 276.19,383.00 C275.75,383.00 270.74,386.83 265.06,391.50 C259.38,396.17 254.33,400.00 253.84,400.00 C252.60,400.00 251.67,397.11 248.96,384.71 C247.24,376.84 246.23,374.01 245.21,374.21 C242.53,374.76 239.27,385.25 238.52,395.74 C237.74,406.63 238.26,408.59 243.65,414.99 ZM 828.24 517.89 C831.13,519.58 833.63,520.97 833.78,520.98 C834.71,521.05 843.81,515.93 844.71,514.83 C845.31,514.10 846.97,510.00 848.40,505.73 C850.51,499.43 851.00,496.07 851.00,487.98 C851.00,482.38 850.59,478.00 850.05,478.00 C849.53,478.00 847.51,481.04 845.56,484.75 C840.30,494.75 835.66,501.50 834.03,501.50 C833.23,501.50 829.59,496.57 825.94,490.55 C822.29,484.53 818.78,479.43 818.15,479.22 C816.16,478.55 816.76,494.21 819.07,503.29 C821.77,513.84 822.04,514.27 828.24,517.89 ZM 815.50 416.82 C818.25,417.34 820.77,417.82 821.10,417.88 C821.44,417.95 824.06,415.52 826.93,412.48 L 832.15 406.96 L 831.47 397.73 C830.70,387.13 826.36,372.50 823.99,372.50 C822.90,372.50 821.95,375.80 820.24,385.50 C818.99,392.65 817.75,399.08 817.49,399.79 C816.85,401.59 815.16,400.52 804.50,391.59 C795.86,384.34 793.00,382.73 793.00,385.10 C793.00,388.16 800.45,402.75 805.15,408.90 C810.10,415.36 810.87,415.95 815.50,416.82 ZM 518.53 204.95 L 519.26 218.11 L 522.88 217.80 L 526.50 217.50 L 527.50 204.50 L 530.38 208.75 C531.97,211.09 533.55,213.00 533.90,213.00 C534.24,213.00 535.63,211.21 536.99,209.02 C538.34,206.83 539.77,205.37 540.16,205.77 C540.56,206.17 541.02,208.98 541.19,212.00 L 541.50 217.50 L 548.50 217.50 L 548.78 203.69 L 549.06 189.88 L 544.85 190.19 C540.86,190.48 540.49,190.79 537.57,196.23 C535.88,199.39 534.20,201.98 533.84,201.98 C533.48,201.99 531.63,199.19 529.73,195.75 C526.45,189.80 526.12,189.52 522.89,189.83 C521.03,190.01 519.12,190.53 518.65,190.98 C518.19,191.43 518.13,197.71 518.53,204.95 ZM 606.02 224.25 C611.89,227.20 616.13,226.07 617.28,221.25 C617.75,219.25 617.43,219.00 614.36,219.00 C607.75,219.00 603.97,212.34 607.62,207.13 C608.94,205.25 609.94,204.89 612.87,205.24 C614.87,205.47 617.17,205.85 618.00,206.08 C619.13,206.40 619.57,205.48 619.80,202.37 C620.08,198.51 619.89,198.16 616.90,197.12 C605.91,193.28 598.00,198.99 598.00,210.75 C598.00,216.76 600.93,221.69 606.02,224.25 ZM 165.00 301.46 C166.93,302.76 168.61,303.87 168.74,303.91 C168.87,303.96 170.30,301.37 171.92,298.16 C173.54,294.95 176.47,289.66 178.43,286.41 C180.39,283.16 182.00,279.64 182.00,278.58 C182.00,275.71 179.05,273.00 175.93,273.00 C172.70,273.00 169.75,276.37 162.44,288.42 C161.97,289.21 161.53,289.92 161.13,290.56 C159.28,293.55 158.37,295.03 158.64,296.23 C158.96,297.66 160.95,298.71 165.00,301.46 ZM 453.49 224.75 C454.09,227.21 456.01,227.60 459.19,225.90 C461.01,224.92 461.18,224.17 460.63,219.51 L 460.01 214.21 L 464.75 213.35 C468.91,212.59 469.50,212.17 469.50,209.99 C469.50,207.62 469.25,207.51 464.38,207.81 C459.77,208.09 459.20,207.89 458.67,205.84 C458.03,203.41 459.33,202.04 462.32,202.02 C465.59,201.99 468.00,200.02 468.00,197.39 C468.00,195.15 467.67,194.91 465.25,195.38 C463.74,195.68 459.68,196.45 456.23,197.10 C452.77,197.74 449.79,198.55 449.59,198.88 C449.25,199.47 452.36,220.05 453.49,224.75 ZM 136.50 406.22 C139.25,408.31 142.15,409.90 142.94,409.76 C144.32,409.51 148.63,393.30 147.59,392.26 C146.97,391.64 126.44,393.90 123.79,394.88 C121.84,395.60 122.08,395.96 126.58,399.05 C129.29,400.91 133.75,404.13 136.50,406.22 Z" fill="rgb(82,50,3)"/>
<path d="M 577.00 855.57 C564.70,857.52 522.35,858.36 509.00,856.93 C490.86,854.98 465.47,850.81 454.73,848.01 C403.17,834.59 353.15,808.31 321.71,778.12 L 314.92 771.60 L 333.20 753.30 C343.25,743.23 351.83,735.00 352.26,735.00 C352.69,735.00 356.74,738.20 361.27,742.12 C370.97,750.51 387.19,761.45 402.41,769.88 C444.90,793.42 493.69,805.20 542.45,803.69 C564.02,803.03 580.55,800.72 600.96,795.54 C641.26,785.31 672.62,769.61 708.21,741.84 C713.14,737.99 717.70,735.06 718.36,735.31 C720.88,736.28 755.28,773.11 754.41,773.91 C743.39,783.98 715.23,804.61 701.30,812.82 C664.97,834.24 625.13,847.94 577.00,855.57 ZM 535.80 668.75 C535.22,671.09 534.39,673.00 533.96,673.00 C532.94,673.00 532.46,669.83 529.53,644.00 C528.19,632.17 525.75,610.80 524.11,596.50 C520.26,562.86 516.69,525.71 517.15,523.91 C517.34,523.14 521.45,518.70 526.27,514.05 L 535.05 505.60 L 543.02 513.52 C549.75,520.21 551.00,521.96 551.00,524.73 C551.00,532.55 537.23,663.00 535.80,668.75 ZM 544.71 487.24 C539.65,492.04 535.26,495.98 534.98,495.99 C534.69,495.99 530.92,492.45 526.61,488.11 L 518.77 480.22 L 520.93 455.36 C522.12,441.69 524.64,415.20 526.54,396.50 C528.43,377.80 530.24,359.58 530.56,356.00 C531.41,346.39 533.02,333.77 533.67,331.57 C534.90,327.47 536.91,337.93 539.92,364.00 C541.61,378.58 543.44,394.10 544.00,398.50 C544.57,402.90 546.14,416.17 547.51,428.00 C548.87,439.83 550.87,456.02 551.96,464.00 L 553.93 478.50 ZM 522.00 509.50 C517.86,513.66 515.75,515.99 513.12,517.09 C509.88,518.46 505.84,517.95 496.19,516.75 C495.34,516.64 494.44,516.53 493.50,516.41 C487.45,515.67 457.30,512.35 426.50,509.05 C369.22,502.90 357.56,501.24 362.09,499.88 C363.42,499.49 371.02,498.65 379.00,498.02 C386.98,497.39 399.12,496.23 406.00,495.43 C412.88,494.63 428.17,492.85 440.00,491.47 C451.83,490.09 468.02,488.27 476.00,487.43 C483.98,486.59 493.42,485.48 497.00,484.97 C500.58,484.46 505.76,484.03 508.52,484.02 C513.50,484.00 513.61,484.07 522.00,492.50 L 530.46 501.00 ZM 584.10 517.49 C572.34,518.87 561.50,520.00 560.02,520.00 C557.96,520.00 555.22,517.86 548.24,510.81 L 539.15 501.62 L 547.83 493.36 C554.16,487.32 557.22,485.08 559.17,485.05 C560.65,485.02 571.45,486.10 583.17,487.45 C608.49,490.36 654.44,495.52 668.50,497.03 C674.00,497.62 684.12,498.75 691.00,499.53 C697.88,500.32 703.95,501.00 704.50,501.05 C707.25,501.28 694.32,503.92 686.00,504.83 C674.50,506.08 641.04,510.24 620.50,512.98 C612.25,514.08 595.87,516.11 584.10,517.49 ZM 314.61 752.75 C309.15,758.39 304.39,763.00 304.01,763.00 C302.52,763.00 289.00,748.09 289.00,746.44 C289.00,744.89 321.20,710.95 324.85,708.64 C326.29,707.73 332.42,713.08 338.13,720.20 L 341.10 723.91 L 332.81 733.20 C328.26,738.32 320.06,747.11 314.61,752.75 ZM 780.00 747.18 C780.00,748.81 777.73,751.77 772.75,756.63 L 765.50 763.72 L 747.25 745.00 C737.21,734.70 729.00,725.64 729.00,724.87 C729.00,723.04 743.46,708.64 744.80,709.13 C745.35,709.33 753.50,717.44 762.91,727.15 C775.27,739.92 780.00,745.46 780.00,747.18 ZM 650.30 814.04 C657.50,818.43 667.20,815.16 669.90,807.42 C672.81,799.07 668.43,790.64 660.57,789.46 C654.81,788.59 647.78,791.59 645.57,795.86 C642.26,802.28 644.38,810.43 650.30,814.04 ZM 682.95 789.39 C687.57,794.13 691.77,798.00 692.27,798.00 C692.78,798.00 694.54,797.04 696.19,795.87 C698.97,793.89 699.14,793.41 698.53,789.37 C697.75,784.16 699.02,783.69 703.15,787.64 C705.81,790.19 706.00,790.23 708.46,788.62 C709.92,787.66 711.00,786.01 711.00,784.73 C711.00,781.48 704.44,763.65 703.09,763.20 C702.45,762.98 700.82,763.54 699.46,764.43 C697.07,766.00 697.04,766.16 698.50,769.65 C699.32,771.63 700.00,774.12 700.00,775.19 C700.00,777.09 699.93,777.09 697.10,775.07 C691.50,771.08 688.64,773.11 689.64,780.35 C690.43,786.18 689.18,786.35 684.88,781.00 C681.25,776.49 680.20,776.21 676.89,778.89 L 674.55 780.78 ZM 392.50 807.84 C393.60,808.44 395.98,808.95 397.80,808.97 C405.19,809.04 410.99,803.00 411.00,795.24 C411.00,791.80 410.36,790.27 407.69,787.36 C404.93,784.35 403.54,783.66 399.35,783.26 C393.19,782.67 389.05,784.57 386.10,789.34 C382.85,794.59 383.28,799.93 387.25,803.67 C389.04,805.36 391.40,807.23 392.50,807.84 ZM 436.81 826.87 C438.29,827.42 440.13,827.78 440.90,827.68 C441.76,827.57 443.67,823.12 445.84,816.18 C448.82,806.62 449.15,804.71 447.94,803.94 C444.12,801.52 442.67,802.84 439.59,811.47 C438.62,814.20 437.38,812.07 435.95,805.22 C435.18,801.54 434.13,799.48 432.47,798.39 C428.28,795.65 426.98,796.88 422.87,807.45 C420.74,812.92 419.00,817.97 419.00,818.66 C419.00,820.28 422.74,822.31 424.48,821.65 C425.20,821.37 426.34,819.51 426.99,817.52 C427.65,815.53 428.68,814.06 429.28,814.26 C429.88,814.46 431.22,817.16 432.25,820.25 C433.70,824.59 434.74,826.10 436.81,826.87 ZM 612.13 830.25 C612.60,831.12 612.85,831.62 613.24,831.81 C613.75,832.05 614.51,831.76 616.30,831.08 L 616.56 830.98 C619.37,829.91 619.41,829.47 617.44,821.62 C616.52,817.97 617.96,818.33 623.38,823.11 C627.54,826.77 628.43,827.14 631.58,826.55 C633.52,826.19 635.33,825.31 635.60,824.60 C636.05,823.42 629.81,803.48 628.61,802.28 C627.63,801.30 623.00,803.04 623.00,804.39 C623.00,805.14 623.65,807.59 624.45,809.85 C625.24,812.10 625.53,814.17 625.10,814.44 C624.66,814.71 621.92,812.90 619.01,810.42 C614.43,806.51 613.31,805.99 610.61,806.56 C608.90,806.92 607.12,807.56 606.66,807.99 C605.85,808.76 610.27,826.77 612.13,830.25 ZM 527.71 841.38 C528.11,841.77 529.79,841.96 531.46,841.80 C534.26,841.52 534.54,841.15 535.01,837.00 L 535.51 832.50 L 538.95 837.25 C542.54,842.22 544.79,843.06 547.43,840.43 C549.50,838.36 549.45,838.08 546.37,834.86 L 543.73 832.11 L 546.37 828.98 C549.30,825.48 549.70,822.35 547.58,819.44 C546.38,817.80 544.67,817.45 536.58,817.15 L 527.00 816.81 L 527.00 828.74 C527.00,835.30 527.32,840.99 527.71,841.38 ZM 497.00 840.09 C498.38,840.48 502.06,840.85 505.18,840.90 C510.10,840.99 510.95,840.72 511.52,838.92 C512.39,836.19 511.94,835.86 506.50,835.25 C502.97,834.85 501.98,834.36 502.21,833.11 C502.42,832.01 503.94,831.34 507.01,831.00 C511.00,830.56 511.50,830.22 511.50,828.00 C511.50,825.83 511.00,825.46 507.75,825.19 C504.85,824.95 504.00,824.45 504.00,823.00 C504.00,821.50 504.86,821.05 508.25,820.81 C511.72,820.56 512.56,820.11 512.81,818.34 C513.15,815.97 512.20,815.64 501.84,814.50 L 496.17 813.88 L 495.39 820.69 C494.96,824.43 494.58,830.17 494.55,833.44 C494.50,838.95 494.68,839.44 497.00,840.09 ZM 464.89 833.88 C470.76,836.04 470.92,835.90 479.81,820.50 C482.03,816.65 483.54,813.19 483.17,812.82 C482.80,812.44 481.18,811.99 479.58,811.82 C476.95,811.53 476.29,812.11 473.08,817.50 L 469.50 823.49 L 469.21 817.00 C468.91,810.01 467.59,808.00 463.31,808.00 C461.16,808.00 461.00,808.41 461.01,813.75 C461.01,816.91 461.30,822.52 461.65,826.21 C462.22,832.28 462.54,833.02 464.89,833.88 ZM 363.33 790.56 C365.07,791.33 367.35,791.86 368.40,791.73 C370.78,791.44 373.07,787.95 371.30,787.30 C368.10,786.14 365.00,782.66 365.00,780.26 C365.00,774.81 371.98,771.87 376.09,775.58 C377.46,776.82 378.28,776.92 379.92,776.04 C385.39,773.11 378.57,766.00 370.30,766.00 C362.55,766.01 356.69,771.95 356.84,779.64 C356.95,785.16 359.03,788.67 363.33,790.56 ZM 568.16 838.25 C569.23,840.30 571.92,840.52 574.31,838.75 C575.77,837.67 575.86,836.70 575.00,831.50 C573.47,822.23 573.67,820.47 576.42,819.22 C577.91,818.54 578.73,817.42 578.56,816.31 C578.32,814.80 577.36,814.52 572.82,814.60 C569.83,814.66 565.71,815.02 563.69,815.40 C560.63,815.97 560.00,816.51 560.00,818.55 C560.00,820.48 560.52,821.00 562.43,821.00 C565.19,821.00 565.58,821.89 566.57,830.50 C566.94,833.80 567.66,837.29 568.16,838.25 ZM 662.67 806.43 C662.36,807.22 661.22,808.35 660.13,808.93 C658.52,809.79 657.56,809.50 655.07,807.41 C648.97,802.27 652.53,793.64 659.45,796.79 C661.96,797.94 663.80,803.46 662.67,806.43 ZM 401.17 799.35 C398.87,801.43 395.61,801.47 393.57,799.43 C391.48,797.33 391.59,795.79 394.07,792.63 C396.44,789.62 401.40,788.99 402.39,791.58 C403.51,794.50 403.01,797.68 401.17,799.35 ZM 539.82 824.25 C539.61,825.70 538.70,826.61 537.25,826.82 C535.42,827.08 535.00,826.66 535.00,824.57 C535.00,822.48 535.48,822.00 537.57,822.00 C539.66,822.00 540.08,822.42 539.82,824.25 Z" fill="rgb(154,109,59)"/>

<path d="M 0.00 487.50 L 0.00 0.00 L 538.00 0.00 L 1076.00 0.00 L 1076.00 487.50 L 1076.00 975.00 L 538.00 975.00 L 0.00 975.00 L 0.00 487.50 ZM 577.00 855.57 C625.13,847.94 664.97,834.24 701.30,812.82 C715.23,804.61 743.39,783.98 754.41,773.91 C755.28,773.11 720.88,736.28 718.36,735.31 C717.70,735.06 713.14,737.99 708.21,741.84 C672.62,769.61 641.26,785.31 600.96,795.54 C580.55,800.72 564.02,803.03 542.45,803.69 C493.69,805.20 444.90,793.42 402.41,769.88 C387.19,761.45 370.97,750.51 361.27,742.12 C356.74,738.20 352.69,735.00 352.26,735.00 C351.83,735.00 343.25,743.23 333.20,753.30 L 314.92 771.60 L 321.71 778.12 C353.15,808.31 403.17,834.59 454.73,848.01 C465.47,850.81 490.86,854.98 509.00,856.93 C522.35,858.36 564.70,857.52 577.00,855.57 ZM 562.79 788.95 C609.90,783.83 654.17,766.28 693.19,737.26 C703.96,729.26 724.86,709.45 733.51,699.07 C742.74,687.99 745.40,688.21 758.61,701.16 L 767.80 710.17 L 779.94 702.33 C786.61,698.03 796.80,691.43 802.58,687.68 C810.25,682.71 813.82,680.95 815.79,681.18 C818.15,681.46 819.11,680.60 823.26,674.50 C830.19,664.31 844.21,635.52 849.55,620.52 C858.21,596.22 864.28,572.43 868.30,547.01 C870.18,535.18 870.45,529.34 870.45,500.00 C870.46,467.84 870.35,465.87 867.69,450.79 C858.86,400.67 844.01,361.30 818.78,321.10 C799.47,290.33 774.55,263.45 736.50,232.34 C723.20,221.46 696.78,205.94 675.50,196.51 C625.30,174.25 578.04,164.74 525.50,166.32 C452.28,168.52 381.09,194.69 323.37,240.61 C297.42,261.25 268.68,293.69 249.93,323.50 C241.66,336.65 227.40,364.74 222.10,378.32 C207.83,414.93 198.96,461.73 198.96,500.45 C198.96,563.61 214.65,620.44 247.34,675.66 C250.92,681.70 251.05,681.80 254.74,681.34 C258.23,680.89 260.13,681.94 281.00,695.84 L 303.50 710.82 L 311.96 701.77 C316.61,696.79 321.88,692.11 323.66,691.37 C327.88,689.61 331.38,690.90 333.50,695.01 C336.04,699.92 364.56,727.84 375.00,735.63 C408.92,760.96 441.42,775.96 482.00,785.02 C501.07,789.27 541.63,791.24 562.79,788.95 ZM 284.94 780.99 C288.83,776.59 292.00,772.57 292.00,772.06 C292.00,771.55 288.96,768.51 285.25,765.31 C273.50,755.19 269.00,750.41 269.00,748.05 C269.00,746.57 273.01,741.61 280.96,733.25 C287.54,726.34 292.70,720.33 292.44,719.90 C292.17,719.47 289.15,717.43 285.73,715.37 C282.30,713.31 274.49,708.33 268.37,704.31 C262.25,700.29 256.62,697.00 255.86,697.00 C255.10,697.00 243.24,708.25 229.50,722.00 C208.11,743.41 204.67,747.25 205.61,748.74 C206.21,749.69 213.18,754.57 221.10,759.59 C229.02,764.60 242.48,773.23 251.00,778.77 C265.89,788.45 266.72,788.84 272.19,788.92 L 277.89 789.00 L 284.94 780.99 ZM 806.50 786.04 C808.70,784.99 815.97,780.61 822.65,776.32 C829.34,772.02 841.33,764.32 849.31,759.21 C857.29,754.10 864.29,749.36 864.85,748.68 C865.62,747.75 859.34,740.85 840.32,721.72 C826.26,707.57 814.52,696.00 814.24,696.00 C812.87,696.00 778.38,718.58 777.45,720.08 C777.01,720.79 778.46,722.90 781.11,725.40 C788.95,732.78 800.00,746.26 800.00,748.44 C800.00,750.64 791.89,759.08 782.28,766.89 L 777.06 771.14 L 782.18 777.82 C790.40,788.55 789.63,788.00 796.40,787.98 C800.31,787.96 803.94,787.27 806.50,786.04 ZM 780.00 747.18 C780.00,745.46 775.27,739.92 762.91,727.15 C753.50,717.44 745.35,709.33 744.80,709.13 C743.46,708.64 729.00,723.04 729.00,724.87 C729.00,725.64 737.21,734.70 747.25,745.00 L 765.50 763.72 L 772.75 756.63 C777.73,751.77 780.00,748.81 780.00,747.18 ZM 314.61 752.75 C320.06,747.11 328.26,738.32 332.81,733.20 L 341.10 723.91 L 338.13 720.20 C332.42,713.08 326.29,707.73 324.85,708.64 C321.20,710.95 289.00,744.89 289.00,746.44 C289.00,748.09 302.52,763.00 304.01,763.00 C304.39,763.00 309.15,758.39 314.61,752.75 ZM 883.54 701.55 C891.77,698.92 899.05,696.24 899.73,695.61 C900.67,694.73 898.60,693.07 890.73,688.38 C878.59,681.15 879.03,682.40 881.50,661.70 C882.41,654.07 882.92,647.58 882.62,647.28 C882.07,646.73 876.81,647.88 867.16,650.66 C862.65,651.95 861.60,652.72 860.41,655.57 C857.88,661.62 849.06,675.83 844.16,681.73 C841.53,684.90 838.31,689.41 837.00,691.75 L 834.63 696.00 L 837.54 699.25 C839.15,701.04 843.15,705.30 846.43,708.73 L 852.40 714.95 L 860.49 710.65 C864.94,708.28 875.32,704.18 883.54,701.55 ZM 226.41 704.87 C231.13,699.85 235.00,695.35 235.00,694.88 C235.00,694.40 231.02,688.68 226.16,682.16 C221.30,675.64 215.00,666.47 212.17,661.79 C209.34,657.10 206.39,652.74 205.61,652.09 C203.88,650.65 191.39,647.00 188.21,647.00 C186.18,647.00 185.97,647.38 186.42,650.25 C186.71,652.04 187.69,659.47 188.60,666.77 C190.60,682.71 191.26,681.44 176.99,688.91 C171.49,691.78 167.00,694.49 167.00,694.94 C167.00,695.38 169.14,696.29 171.75,696.96 C188.77,701.33 195.75,703.71 205.50,708.46 C211.55,711.42 216.80,713.87 217.16,713.92 C217.52,713.96 221.68,709.89 226.41,704.87 ZM 982.79 581.14 C983.52,574.89 983.93,569.60 983.71,569.38 C983.49,569.16 977.73,568.55 970.91,568.02 C947.23,566.20 935.92,565.07 934.86,564.41 C933.75,563.73 949.75,554.77 973.11,542.99 L 986.73 536.12 L 987.33 531.31 C987.67,528.67 988.24,521.89 988.61,516.25 L 989.29 506.00 L 985.39 505.97 C983.25,505.96 972.95,505.29 962.50,504.49 C919.19,501.17 911.98,500.69 911.59,501.09 C910.87,501.82 908.99,523.18 909.57,524.11 C909.87,524.60 911.78,525.00 913.81,524.99 C919.43,524.98 941.82,527.08 947.81,528.19 C950.72,528.72 952.97,529.60 952.79,530.12 C952.62,530.65 941.91,536.64 928.99,543.44 L 905.50 555.81 L 904.12 570.07 C902.88,582.94 902.90,584.45 904.32,585.49 C905.19,586.13 912.56,587.22 920.70,587.91 C928.84,588.61 943.38,589.99 953.00,590.98 C962.62,591.96 972.97,592.71 975.98,592.64 L 981.47 592.50 L 982.79 581.14 ZM 116.50 587.95 C153.02,586.15 162.99,585.41 163.94,584.42 C164.42,583.92 164.52,578.78 164.16,573.00 L 163.50 562.50 L 146.71 562.62 C134.75,562.70 130.02,562.41 130.28,561.62 C130.47,561.00 133.77,558.92 137.60,557.00 C141.44,555.08 148.50,551.28 153.29,548.57 L 162.00 543.64 L 161.99 538.07 C161.99,535.01 161.70,528.76 161.34,524.20 L 160.70 515.90 L 157.10 514.34 C155.12,513.49 148.10,510.55 141.50,507.82 C134.90,505.09 129.10,502.46 128.61,501.98 C127.30,500.72 130.82,500.20 145.50,499.50 C152.65,499.16 158.80,498.57 159.16,498.19 C159.52,497.81 159.57,492.44 159.27,486.25 L 158.72 475.00 L 152.61 475.02 C144.78,475.05 79.90,478.73 79.59,479.17 C79.01,479.96 81.04,503.43 81.73,504.04 C82.15,504.40 88.80,507.22 96.50,510.30 C116.00,518.09 141.69,528.73 143.66,529.83 C145.11,530.64 145.02,530.93 142.90,532.23 C140.64,533.63 107.90,551.32 92.50,559.48 C88.65,561.52 85.21,563.48 84.85,563.84 C84.03,564.68 85.45,587.30 86.42,588.88 C86.85,589.57 88.47,589.86 90.33,589.57 C92.07,589.31 103.85,588.58 116.50,587.95 ZM 956.50 467.99 C964.90,464.76 974.80,454.84 977.95,446.50 C985.93,425.34 976.61,396.42 958.93,387.46 C948.20,382.03 930.96,382.53 918.47,388.65 C901.99,396.72 894.93,419.52 901.94,442.06 C906.27,455.98 917.04,466.79 929.73,469.97 C936.14,471.57 949.79,470.56 956.50,467.99 ZM 162.82 451.25 C164.03,448.85 169.35,429.00 168.88,428.63 C168.67,428.46 166.36,426.88 163.74,425.11 C159.88,422.50 159.09,421.48 159.55,419.70 C159.87,418.49 161.79,411.43 163.84,404.00 L 167.56 390.50 L 173.47 389.76 C176.72,389.36 179.71,388.68 180.11,388.26 C180.72,387.63 182.87,379.31 185.54,367.25 C186.01,365.14 185.71,365.00 180.77,365.00 C170.63,365.00 103.52,372.13 102.41,373.32 C101.81,373.97 99.61,381.18 97.53,389.34 C93.83,403.83 93.78,404.22 95.62,405.93 C96.65,406.88 104.93,413.00 114.00,419.51 C123.07,426.02 137.19,436.22 145.37,442.17 C153.55,448.13 160.62,453.00 161.08,453.00 C161.55,453.00 162.33,452.21 162.82,451.25 ZM 908.06 363.58 C910.22,362.15 913.22,359.11 914.74,356.81 C917.24,353.03 917.49,351.83 917.40,344.07 C917.30,334.91 915.28,325.51 911.36,315.84 C910.02,312.54 908.83,307.52 908.71,304.67 C908.50,299.57 908.54,299.50 911.60,299.20 C919.96,298.38 929.54,320.71 922.84,325.40 L 920.69 326.91 L 923.46 333.20 C927.43,342.23 930.89,348.00 932.33,348.00 C934.05,348.00 941.43,340.20 943.37,336.34 C945.73,331.65 946.45,323.05 945.00,316.86 C941.51,301.86 927.72,281.06 918.50,276.86 C910.06,273.02 898.27,275.32 892.75,281.89 C886.10,289.79 886.59,301.48 894.52,323.43 C898.52,334.54 898.76,339.44 895.37,341.68 C893.46,342.94 892.94,342.82 890.14,340.47 C886.14,337.10 879.93,324.52 879.24,318.40 C878.75,314.09 878.96,313.45 881.51,311.41 L 884.31 309.18 L 878.60 299.09 C874.64,292.10 872.33,289.00 871.07,289.00 C868.42,289.00 861.33,297.16 860.08,301.65 C857.17,312.14 859.57,323.57 868.14,340.05 C873.67,350.66 878.78,357.19 884.85,361.40 C893.73,367.55 901.03,368.23 908.06,363.58 ZM 200.52 337.98 C204.08,332.46 207.00,327.58 207.00,327.12 C207.00,326.66 202.50,323.66 197.00,320.45 C191.50,317.24 187.00,314.21 187.00,313.72 C187.00,313.22 189.64,308.47 192.88,303.16 C201.90,288.32 203.25,285.20 203.75,278.00 C204.14,272.28 203.85,270.84 201.30,266.02 C196.18,256.29 184.55,250.06 173.88,251.33 C167.49,252.08 158.35,256.68 155.32,260.65 C153.97,262.42 147.06,273.46 139.96,285.18 L 127.06 306.50 L 129.22 308.32 C130.42,309.32 141.09,315.93 152.94,323.00 C164.80,330.08 178.77,338.58 184.00,341.90 C189.23,345.22 193.62,347.95 193.77,347.97 C193.91,347.99 196.95,343.49 200.52,337.98 ZM 852.18 268.91 C856.43,266.72 872.63,252.86 888.69,237.65 L 894.89 231.79 L 887.69 223.40 C883.74,218.79 879.79,215.01 878.93,215.01 C877.23,215.00 871.97,219.42 853.52,236.33 C847.02,242.29 840.54,247.60 839.12,248.15 C833.64,250.23 825.79,246.36 822.46,239.93 C820.46,236.06 820.62,233.44 823.15,228.94 L 825.30 225.11 L 818.04 217.31 C814.04,213.01 810.35,209.34 809.84,209.15 C808.48,208.64 802.60,215.22 800.55,219.54 C799.37,222.01 798.75,225.75 798.72,230.50 C798.68,236.50 799.18,238.79 801.69,244.11 C807.13,255.65 816.61,264.95 827.69,269.63 C835.26,272.82 845.13,272.53 852.18,268.91 ZM 312.25 208.23 C317.06,204.72 320.99,201.54 320.99,201.17 C320.98,200.80 313.33,190.22 303.98,177.66 C294.64,165.10 287.24,154.42 287.55,153.92 C287.86,153.43 292.39,149.84 297.64,145.95 C303.95,141.26 306.98,138.40 306.62,137.46 C305.38,134.22 296.38,123.08 294.98,123.04 C293.82,123.01 237.39,164.32 233.77,167.85 C232.95,168.65 243.73,184.00 245.11,184.00 C245.60,184.00 250.29,180.81 255.55,176.91 C260.80,173.01 265.71,170.06 266.44,170.34 C267.85,170.88 282.43,189.70 294.26,206.24 C298.49,212.15 301.67,215.71 302.36,215.30 C302.99,214.93 307.44,211.75 312.25,208.23 ZM 778.17 200.30 C785.70,196.78 794.70,188.46 798.02,181.96 C803.40,171.45 804.47,159.03 800.85,149.29 C797.96,141.53 786.44,129.94 776.49,124.78 C759.82,116.14 740.57,117.80 728.66,128.90 C712.05,144.39 710.42,167.25 724.67,184.65 C730.86,192.20 744.64,200.56 755.50,203.37 C756.60,203.65 760.70,203.76 764.61,203.60 C770.02,203.39 773.27,202.60 778.17,200.30 ZM 391.00 163.79 C406.25,159.02 416.42,150.72 422.27,138.26 C425.00,132.45 425.45,130.37 425.48,123.50 C425.55,97.88 404.72,80.42 378.43,84.07 C351.03,87.88 334.17,108.25 338.07,132.85 C340.37,147.43 350.87,159.92 364.50,164.30 C373.77,167.27 380.26,167.15 391.00,163.79 ZM 687.41 153.30 C688.81,149.14 689.74,145.39 689.48,144.97 C689.22,144.55 680.18,141.36 669.39,137.89 C658.60,134.41 649.54,130.96 649.25,130.21 C648.46,128.15 650.90,121.00 652.39,121.00 C653.11,121.00 661.05,123.46 670.02,126.48 C681.76,130.42 686.70,131.66 687.60,130.91 C688.73,129.98 693.34,117.93 692.74,117.46 C692.61,117.36 684.85,114.73 675.50,111.62 C666.15,108.51 657.94,105.61 657.25,105.17 C655.40,104.00 658.59,95.00 660.84,95.01 C661.75,95.01 671.04,97.68 681.47,100.93 C691.90,104.19 700.72,106.67 701.08,106.45 C702.27,105.71 708.13,90.02 707.56,89.10 C706.82,87.91 645.17,67.78 643.73,68.26 C642.64,68.62 619.06,138.08 619.02,141.04 C619.01,142.16 625.10,144.56 641.75,149.99 C675.86,161.10 682.33,162.93 683.68,161.83 C684.33,161.30 686.01,157.46 687.41,153.30 ZM 596.42 136.13 C596.71,135.65 597.26,126.05 597.63,114.79 L 598.30 94.32 L 588.40 93.67 C582.95,93.31 572.97,93.01 566.20,93.01 L 553.90 93.00 L 554.20 99.25 L 554.50 105.50 L 561.25 106.08 C564.96,106.40 568.33,107.00 568.75,107.43 C570.04,108.75 562.74,114.01 557.49,115.54 C551.90,117.17 548.25,116.56 542.54,113.02 C538.44,110.49 534.00,102.14 534.00,96.99 C534.00,87.72 539.31,78.70 546.32,76.06 C554.77,72.87 565.84,76.47 569.79,83.70 C571.79,87.34 572.64,87.97 576.29,88.51 C578.61,88.84 584.33,88.98 589.00,88.81 C597.36,88.50 597.49,88.46 597.16,86.07 C596.00,77.92 587.58,66.18 579.47,61.43 C573.88,58.15 561.09,55.00 553.39,55.00 C530.12,55.00 513.30,68.29 509.79,89.44 C504.12,123.64 541.97,146.86 576.93,130.63 C579.92,129.24 582.73,128.33 583.18,128.61 C583.63,128.89 584.00,130.64 584.00,132.50 C584.00,135.67 584.23,135.90 587.75,136.27 C594.85,137.01 595.88,137.00 596.42,136.13 ZM 527.71 841.38 C527.32,840.99 527.00,835.30 527.00,828.74 L 527.00 816.81 L 536.58 817.15 C544.67,817.45 546.38,817.80 547.58,819.44 C549.70,822.35 549.30,825.48 546.37,828.98 L 543.73 832.11 L 546.37 834.86 C549.45,838.08 549.50,838.36 547.43,840.43 C544.79,843.06 542.54,842.22 538.95,837.25 L 535.51 832.50 L 535.01 837.00 C534.54,841.15 534.26,841.52 531.46,841.80 C529.79,841.96 528.11,841.77 527.71,841.38 ZM 539.82 824.25 C540.08,822.42 539.66,822.00 537.57,822.00 C535.48,822.00 535.00,822.48 535.00,824.57 C535.00,826.66 535.42,827.08 537.25,826.82 C538.70,826.61 539.61,825.70 539.82,824.25 ZM 497.00 840.09 C494.68,839.44 494.50,838.95 494.55,833.44 C494.58,830.17 494.96,824.43 495.39,820.69 L 496.17 813.88 L 501.84 814.50 C512.20,815.64 513.15,815.97 512.81,818.34 C512.56,820.11 511.72,820.56 508.25,820.81 C504.86,821.05 504.00,821.50 504.00,823.00 C504.00,824.45 504.85,824.95 507.75,825.19 C511.00,825.46 511.50,825.83 511.50,828.00 C511.50,830.22 511.00,830.56 507.01,831.00 C503.94,831.34 502.42,832.01 502.21,833.11 C501.98,834.36 502.97,834.85 506.50,835.25 C511.94,835.86 512.39,836.19 511.52,838.92 C510.95,840.72 510.10,840.99 505.18,840.90 C502.06,840.85 498.38,840.48 497.00,840.09 ZM 568.16 838.25 C567.66,837.29 566.94,833.80 566.57,830.50 C565.58,821.89 565.19,821.00 562.43,821.00 C560.52,821.00 560.00,820.48 560.00,818.55 C560.00,816.51 560.63,815.97 563.69,815.40 C565.71,815.02 569.83,814.66 572.82,814.60 C577.36,814.52 578.32,814.80 578.56,816.31 C578.73,817.42 577.91,818.54 576.42,819.22 C573.67,820.47 573.47,822.23 575.00,831.50 C575.86,836.70 575.77,837.67 574.31,838.75 C571.92,840.52 569.23,840.30 568.16,838.25 ZM 464.89 833.88 C462.54,833.02 462.22,832.28 461.65,826.21 C461.30,822.52 461.01,816.91 461.01,813.75 C461.00,808.41 461.16,808.00 463.31,808.00 C467.59,808.00 468.91,810.01 469.21,817.00 L 469.50 823.49 L 473.08 817.50 C476.29,812.11 476.95,811.53 479.58,811.82 C481.18,811.99 482.80,812.44 483.17,812.82 C483.54,813.19 482.03,816.65 479.81,820.50 C470.92,835.90 470.76,836.04 464.89,833.88 ZM 612.13 830.25 C610.27,826.77 605.85,808.76 606.66,807.99 C607.12,807.56 608.90,806.92 610.61,806.56 C613.31,805.99 614.43,806.51 619.01,810.42 C621.92,812.90 624.66,814.71 625.10,814.44 C625.53,814.17 625.24,812.10 624.45,809.85 C623.65,807.59 623.00,805.14 623.00,804.39 C623.00,803.04 627.63,801.30 628.61,802.28 C629.81,803.48 636.05,823.42 635.60,824.60 C635.33,825.31 633.52,826.19 631.58,826.55 C628.43,827.14 627.54,826.77 623.38,823.11 C617.96,818.33 616.52,817.97 617.44,821.62 C619.41,829.47 619.37,829.91 616.56,830.98 C613.12,832.29 613.23,832.31 612.13,830.25 ZM 436.81 826.87 C434.65,826.07 433.69,824.56 431.92,819.19 C430.72,815.51 429.54,812.29 429.31,812.03 C428.61,811.24 427.03,814.36 427.02,816.56 C427.01,817.69 426.37,819.47 425.61,820.52 C424.42,822.15 423.85,822.25 421.61,821.23 C420.17,820.58 419.00,819.45 419.00,818.72 C419.00,817.99 420.74,812.92 422.87,807.45 C426.98,796.88 428.28,795.65 432.47,798.39 C434.13,799.48 435.18,801.54 435.95,805.22 C437.38,812.07 438.62,814.20 439.59,811.47 C442.67,802.84 444.12,801.52 447.94,803.94 C449.15,804.71 448.82,806.62 445.84,816.18 C443.67,823.12 441.76,827.57 440.90,827.68 C440.13,827.78 438.29,827.42 436.81,826.87 ZM 650.30 814.04 C644.38,810.43 642.26,802.28 645.57,795.86 C647.78,791.59 654.81,788.59 660.57,789.46 C668.43,790.64 672.81,799.07 669.90,807.42 C667.20,815.16 657.50,818.43 650.30,814.04 ZM 662.67 806.43 C663.80,803.46 661.96,797.94 659.45,796.79 C652.53,793.64 648.97,802.27 655.07,807.41 C657.56,809.50 658.52,809.79 660.13,808.93 C661.22,808.35 662.36,807.22 662.67,806.43 ZM 392.50 807.84 C391.40,807.23 389.04,805.36 387.25,803.67 C383.28,799.93 382.85,794.59 386.10,789.34 C389.05,784.57 393.19,782.67 399.35,783.26 C403.54,783.66 404.93,784.35 407.69,787.36 C410.36,790.27 411.00,791.80 411.00,795.24 C410.99,803.00 405.19,809.04 397.80,808.97 C395.98,808.95 393.60,808.44 392.50,807.84 ZM 401.17 799.35 C403.01,797.68 403.51,794.50 402.39,791.58 C401.40,788.99 396.44,789.62 394.07,792.63 C391.59,795.79 391.48,797.33 393.57,799.43 C395.61,801.47 398.87,801.43 401.17,799.35 ZM 682.95 789.39 L 674.55 780.78 L 676.89 778.89 C680.20,776.21 681.25,776.49 684.88,781.00 C689.18,786.35 690.43,786.18 689.64,780.35 C688.53,772.26 692.09,770.73 698.19,776.68 C700.27,778.71 702.21,780.13 702.51,779.83 C702.80,779.53 701.68,776.41 700.01,772.89 L 696.97 766.50 L 699.15 764.71 C700.35,763.72 701.98,763.05 702.77,763.21 C704.33,763.52 711.00,780.97 711.00,784.73 C711.00,786.01 709.92,787.66 708.46,788.62 C706.00,790.23 705.81,790.19 703.15,787.64 C699.02,783.69 697.75,784.16 698.53,789.37 C699.14,793.41 698.97,793.89 696.19,795.87 C694.54,797.04 692.78,798.00 692.27,798.00 C691.77,798.00 687.57,794.13 682.95,789.39 ZM 363.33 790.56 C359.03,788.67 356.95,785.16 356.84,779.64 C356.69,771.95 362.55,766.01 370.30,766.00 C378.57,766.00 385.39,773.11 379.92,776.04 C378.28,776.92 377.46,776.82 376.09,775.58 C371.98,771.87 365.00,774.81 365.00,780.26 C365.00,782.66 368.10,786.14 371.30,787.30 C373.07,787.95 370.78,791.44 368.40,791.73 C367.35,791.86 365.07,791.33 363.33,790.56 ZM 506.00 773.54 C454.36,766.95 413.58,750.45 371.84,719.26 C336.43,692.79 304.46,652.03 287.65,611.91 C272.93,576.78 266.52,544.35 266.52,505.00 C266.52,475.21 268.91,458.28 277.15,429.50 C293.04,374.05 330.16,322.05 378.47,287.55 C435.84,246.59 504.55,230.20 575.69,240.51 C635.43,249.18 693.95,280.70 734.69,326.17 C746.79,339.66 749.72,343.43 758.27,356.54 C797.39,416.46 811.53,482.48 799.90,551.00 C791.24,602.09 767.65,649.32 731.25,688.47 C696.36,725.99 653.21,752.40 605.41,765.51 C581.77,771.99 565.31,774.25 539.50,774.59 C524.43,774.78 512.88,774.42 506.00,773.54 ZM 559.00 754.91 C560.92,754.41 564.11,754.01 566.08,754.01 C571.98,754.00 598.76,748.27 610.00,744.62 C655.33,729.88 689.01,708.79 719.60,676.00 C760.10,632.58 785.97,572.93 788.69,516.75 C789.02,509.74 789.12,504.01 788.90,504.02 C786.57,504.11 767.74,507.92 767.27,508.39 C766.93,508.74 766.30,514.22 765.87,520.58 C765.45,526.93 764.38,536.04 763.51,540.82 C760.75,555.94 752.76,582.97 748.95,590.08 C748.21,591.48 747.46,591.65 745.26,590.94 C742.90,590.17 682.68,575.77 676.25,574.43 C673.46,573.85 673.46,573.87 676.44,558.83 C678.64,547.72 679.57,541.31 681.50,524.10 L 682.11 518.70 L 673.71 519.34 C658.70,520.50 659.24,520.19 658.47,527.86 C657.70,535.46 653.56,558.63 651.95,564.31 C651.36,566.40 650.23,568.36 649.45,568.66 C647.70,569.33 597.41,563.87 595.72,562.83 C594.88,562.31 595.61,560.93 598.11,558.29 C600.09,556.21 603.13,552.39 604.86,549.81 C608.49,544.41 616.00,529.23 616.00,527.30 C616.00,526.49 614.74,526.00 612.68,526.00 C607.64,526.00 563.58,532.04 562.93,532.82 C562.22,533.65 556.74,583.07 557.29,583.62 C557.50,583.84 565.96,584.48 576.09,585.05 C604.27,586.64 639.39,590.38 642.13,592.08 C643.25,592.79 643.00,594.42 640.68,601.22 C637.67,610.08 621.36,643.94 618.22,647.86 L 616.32 650.22 L 598.41 648.16 C588.56,647.02 573.93,645.78 565.90,645.41 L 551.30 644.73 L 550.71 648.61 C550.38,650.75 549.81,655.76 549.43,659.75 C548.75,666.90 548.77,667.00 551.12,667.04 C556.63,667.12 580.53,668.97 590.41,670.08 C598.11,670.95 601.01,671.64 600.80,672.56 C599.39,678.63 557.78,723.30 546.34,731.02 C540.53,734.94 540.03,736.35 540.01,748.67 C540.00,753.49 540.41,755.99 541.25,756.31 C542.94,756.94 554.66,756.02 559.00,754.91 ZM 530.22 747.00 C529.86,737.23 529.15,733.00 527.88,733.00 C526.09,733.00 515.02,723.97 504.65,714.05 C491.39,701.37 466.83,672.81 468.11,671.57 C468.84,670.87 495.48,668.08 507.77,667.41 C514.52,667.04 520.21,666.46 520.41,666.12 C520.61,665.78 520.31,660.82 519.74,655.10 L 518.69 644.70 L 502.10 645.38 C492.97,645.76 478.30,646.91 469.50,647.94 C450.73,650.13 453.54,651.54 444.58,635.42 C435.42,618.97 424.72,593.94 426.21,592.46 C428.01,590.66 468.90,586.38 494.29,585.34 C502.97,584.98 510.27,584.37 510.51,583.98 C510.75,583.60 509.83,573.23 508.47,560.95 C507.11,548.67 505.99,537.02 505.98,535.06 C505.98,533.10 505.63,530.97 505.22,530.32 C504.52,529.23 454.17,523.42 451.98,524.19 C450.43,524.73 461.60,546.14 467.43,553.82 C470.50,557.84 473.00,561.52 473.00,562.00 C473.00,562.97 473.11,562.95 444.31,566.51 C416.06,570.00 418.47,570.37 416.63,562.25 C415.14,555.72 411.62,534.33 410.47,524.87 C409.96,520.62 409.64,520.18 406.71,519.57 C400.86,518.36 387.00,517.68 387.01,518.60 C387.07,522.22 392.27,555.16 393.86,561.96 C396.01,571.14 395.59,573.60 391.72,574.48 C383.72,576.31 345.40,585.59 335.29,588.15 C328.57,589.85 322.48,591.02 321.76,590.74 C320.15,590.12 314.06,574.45 311.17,563.50 C308.18,552.16 304.13,528.27 303.37,517.44 L 302.72 508.25 L 297.61 507.63 C294.80,507.29 289.64,507.01 286.13,507.01 L 279.77 507.00 L 280.35 512.25 C280.67,515.14 281.21,521.10 281.56,525.50 C284.22,559.68 297.74,601.01 316.37,631.98 C324.17,644.95 325.28,646.53 336.48,660.49 C351.42,679.13 373.08,698.73 395.50,713.89 C422.81,732.37 450.26,743.75 483.83,750.50 C501.13,753.98 508.35,754.80 520.50,754.63 L 530.50 754.50 L 530.22 747.00 ZM 536.52 666.40 C537.35,658.21 540.01,633.05 542.45,610.50 C547.75,561.53 551.02,528.62 551.01,524.48 C551.00,522.03 549.47,519.93 543.02,513.52 L 535.05 505.60 L 526.27 514.05 C521.45,518.70 517.34,523.14 517.15,523.91 C516.95,524.69 517.77,535.49 518.96,547.91 C520.92,568.28 522.91,586.35 529.06,639.50 C530.14,648.85 531.49,661.87 532.07,668.44 C533.71,687.15 534.48,686.80 536.52,666.40 ZM 591.50 516.57 C602.50,515.25 618.92,513.22 628.00,512.06 C658.56,508.17 683.42,505.07 697.50,503.40 C715.09,501.32 717.67,500.07 704.50,500.02 C699.00,500.00 690.67,499.54 686.00,498.99 C681.33,498.44 673.22,497.53 668.00,496.97 C654.83,495.56 608.79,490.40 583.17,487.45 C571.45,486.10 560.65,485.02 559.17,485.05 C557.22,485.08 554.16,487.32 547.83,493.36 L 539.15 501.62 L 548.33 510.92 L 557.50 520.22 L 564.50 519.60 C568.35,519.26 580.50,517.89 591.50,516.57 ZM 522.00 509.50 L 530.46 501.00 L 522.00 492.50 C513.61,484.07 513.50,484.00 508.52,484.02 C505.76,484.03 500.58,484.46 497.00,484.97 C493.42,485.48 483.98,486.59 476.00,487.43 C462.98,488.80 443.20,491.07 406.00,495.46 C399.12,496.27 386.08,497.43 377.00,498.04 C367.92,498.65 359.15,499.50 357.50,499.93 L 354.50 500.70 L 358.00 501.35 C359.92,501.72 388.73,504.95 422.00,508.53 C455.27,512.12 487.45,515.67 493.50,516.41 C513.74,518.91 512.28,519.27 522.00,509.50 ZM 296.50 496.69 L 302.50 495.50 L 304.22 481.50 C307.26,456.84 313.51,429.67 319.01,417.24 C320.92,412.93 321.10,412.80 324.74,413.29 C326.81,413.56 336.60,415.85 346.50,418.37 C356.40,420.88 371.25,424.37 379.50,426.12 C387.75,427.87 394.88,429.63 395.34,430.03 C395.80,430.44 395.25,435.44 394.13,441.14 C391.09,456.56 388.97,471.62 388.72,479.50 L 388.50 486.50 L 393.50 486.17 C396.25,485.99 401.19,485.30 404.48,484.63 L 410.46 483.43 L 412.15 469.70 C413.93,455.20 417.80,435.24 418.96,434.52 C419.34,434.29 428.39,435.17 439.08,436.48 C449.76,437.79 462.17,439.23 466.65,439.68 L 474.81 440.50 L 468.91 448.50 C462.82,456.75 454.00,473.18 454.00,476.26 C454.00,477.47 454.79,478.00 456.60,478.00 C462.55,478.00 505.59,472.73 506.64,471.88 C507.26,471.36 508.08,467.47 508.46,463.22 C508.83,458.98 510.01,447.85 511.07,438.50 C512.13,429.15 513.00,421.20 513.00,420.84 C513.00,420.48 508.61,419.89 503.25,419.54 C474.88,417.65 441.78,414.47 429.25,412.44 C427.46,412.15 426.00,411.31 426.00,410.57 C426.00,406.91 439.50,376.41 447.03,363.05 L 452.24 353.81 L 456.37 354.39 C473.68,356.85 518.09,360.22 519.16,359.16 C519.88,358.45 521.91,338.90 521.37,337.89 C521.20,337.55 515.75,336.96 509.28,336.57 C492.74,335.57 468.92,333.25 468.24,332.58 C465.36,329.69 497.36,294.03 516.50,278.79 C530.49,267.65 530.00,268.42 530.00,257.76 L 530.00 248.74 L 516.25 249.26 C486.02,250.39 446.68,261.39 418.50,276.60 C396.18,288.64 391.32,291.84 374.00,305.87 C349.16,325.99 326.73,353.04 311.68,381.00 C305.44,392.61 294.67,419.52 290.57,433.76 C285.68,450.77 281.11,479.97 281.03,494.84 L 281.00 499.19 L 285.75 498.53 C288.36,498.17 293.20,497.34 296.50,496.69 ZM 789.00 491.18 C789.00,482.28 786.48,461.13 784.01,449.30 C773.33,398.17 745.30,349.06 707.00,314.38 C696.02,304.43 678.89,291.67 667.50,284.94 C632.13,264.05 585.54,249.88 548.60,248.77 L 539.70 248.50 L 539.89 256.00 C540.17,266.89 541.06,268.72 549.20,275.00 C553.11,278.02 560.93,284.90 566.58,290.28 C582.26,305.22 602.91,329.73 601.60,331.84 C600.83,333.09 567.07,336.99 556.79,337.02 C548.93,337.04 548.89,337.09 550.07,348.04 C550.62,353.24 551.30,358.13 551.56,358.89 C552.15,360.59 559.81,360.13 593.33,356.39 C605.89,355.00 616.76,354.08 617.49,354.36 C619.27,355.04 629.18,372.69 634.55,384.74 C641.53,400.42 645.01,410.76 643.66,411.79 C642.09,412.99 618.82,415.69 594.50,417.49 C563.49,419.78 559.00,420.21 559.00,420.91 C559.00,421.27 559.66,426.95 560.48,433.53 C561.29,440.11 562.63,451.98 563.46,459.90 C564.29,467.82 565.09,474.42 565.24,474.55 C565.69,474.99 605.22,479.01 611.50,479.26 C617.01,479.48 617.47,479.34 617.17,477.50 C616.49,473.31 606.82,455.19 601.53,448.18 C598.49,444.16 596.00,440.72 596.00,440.54 C596.00,440.36 600.16,439.90 605.25,439.51 C610.34,439.12 622.79,437.73 632.91,436.40 C643.04,435.08 651.53,434.20 651.78,434.45 C653.11,435.78 658.57,469.36 659.26,480.43 C659.55,485.14 660.62,485.58 673.13,486.13 L 681.50 486.50 L 681.81 482.11 C682.16,477.24 679.06,454.41 676.15,440.50 C674.65,433.32 674.53,431.35 675.55,430.75 C676.25,430.34 681.70,428.85 687.66,427.44 C709.18,422.36 741.56,414.15 744.42,413.05 C748.39,411.52 749.32,412.62 753.55,423.85 C759.94,440.83 766.82,473.51 767.07,488.00 C767.20,496.08 767.54,496.37 778.09,497.56 C783.27,498.14 787.84,498.45 788.25,498.25 C788.66,498.05 789.00,494.87 789.00,491.18 ZM 544.71 487.24 L 553.93 478.50 L 551.96 464.00 C550.87,456.02 548.87,439.83 547.51,428.00 C546.14,416.17 544.57,402.90 544.01,398.50 C543.45,394.10 541.64,378.93 539.99,364.79 C536.05,330.91 534.92,323.52 533.92,325.13 C533.11,326.44 532.93,328.02 530.97,351.00 C530.38,357.88 528.37,378.58 526.50,397.00 C524.62,415.42 522.12,441.69 520.93,455.36 L 518.77 480.22 L 526.61 488.11 C530.92,492.45 534.69,495.99 534.98,495.99 C535.26,495.98 539.65,492.04 544.71,487.24 ZM 789.66 669.08 C783.83,668.50 783.82,668.50 780.29,662.79 L 776.76 657.09 L 778.00 650.52 C779.17,644.30 783.71,633.45 788.18,626.21 C789.87,623.48 790.46,623.13 791.70,624.17 C792.90,625.16 793.15,627.85 792.97,637.95 C792.85,644.85 792.81,651.07 792.88,651.76 C793.00,653.03 805.32,647.35 813.16,642.40 C816.91,640.03 820.02,639.28 819.98,640.75 C819.97,641.16 818.06,644.71 815.73,648.63 C813.04,653.16 808.68,658.36 803.76,662.88 C799.50,666.80 795.90,669.92 795.76,669.83 C795.62,669.74 792.87,669.40 789.66,669.08 ZM 265.37 662.25 C259.32,656.40 254.46,649.71 250.08,641.24 C247.93,637.06 251.43,637.63 259.67,642.79 C271.70,650.33 275.74,652.22 276.70,650.74 C277.14,650.06 277.40,643.76 277.27,636.75 C277.01,621.87 277.67,621.06 283.58,629.11 C286.45,633.03 287.97,636.73 290.11,645.08 L 292.89 655.94 L 289.41 661.72 C286.44,666.67 285.41,667.60 282.22,668.19 C273.76,669.77 272.79,669.42 265.37,662.25 ZM 248.73 621.31 C246.41,620.70 236.39,607.10 233.31,600.36 C230.18,593.53 229.21,588.00 231.14,588.00 C231.91,588.00 237.18,592.06 242.85,597.01 C248.52,601.97 253.50,605.81 253.93,605.55 C254.35,605.28 255.26,600.89 255.94,595.78 C258.10,579.51 258.37,578.50 260.47,578.50 C261.93,578.50 262.82,579.91 264.23,584.50 C266.66,592.37 269.22,608.74 268.41,611.29 C268.06,612.39 265.97,615.25 263.76,617.65 C260.08,621.64 259.36,621.99 255.12,621.88 C252.58,621.82 249.70,621.56 248.73,621.31 ZM 805.50 617.75 L 801.11 613.50 L 800.89 604.00 C800.78,598.78 800.96,593.83 801.30,593.00 C801.65,592.17 802.85,589.00 803.97,585.94 C806.49,579.04 808.63,576.00 809.77,577.72 C810.21,578.39 811.41,584.80 812.42,591.97 C813.54,599.89 814.70,605.00 815.39,605.00 C816.01,605.00 821.56,600.95 827.73,596.00 C839.06,586.90 842.03,585.20 840.01,588.99 C839.42,590.08 838.03,593.91 836.93,597.51 C835.82,601.10 833.67,605.49 832.15,607.27 C830.64,609.05 827.74,612.80 825.71,615.61 C822.42,620.19 821.55,620.79 817.38,621.36 C810.30,622.33 810.19,622.30 805.50,617.75 ZM 236.50 571.10 C231.00,569.19 231.10,569.33 224.08,553.50 C219.50,543.15 217.42,533.16 219.68,532.29 C221.41,531.63 220.43,530.59 230.27,543.53 C234.81,549.49 238.97,554.32 239.51,554.27 C240.41,554.18 241.78,551.03 248.24,534.20 C251.14,526.64 253.06,527.45 254.90,537.01 C256.08,543.14 256.13,546.22 255.18,554.00 L 254.02 563.50 L 248.76 568.24 C245.87,570.85 243.05,572.95 242.50,572.91 C241.95,572.87 239.25,572.06 236.50,571.10 ZM 820.75 568.25 L 816.08 563.50 L 815.09 553.00 C814.01,541.53 815.29,527.61 817.38,528.27 C817.99,528.47 820.95,534.34 823.93,541.32 C826.92,548.29 829.73,554.00 830.17,554.00 C830.60,554.00 834.89,549.05 839.68,543.00 C844.47,536.95 848.76,532.00 849.20,532.00 C851.89,532.00 848.22,549.48 843.29,560.05 C839.33,568.56 839.29,568.61 833.57,570.80 C830.41,572.01 827.28,573.00 826.62,573.00 C825.96,573.00 823.32,570.86 820.75,568.25 ZM 229.58 518.23 C223.95,515.10 224.05,515.26 220.60,504.18 C217.27,493.53 216.85,480.00 219.84,480.00 C221.14,480.00 223.34,483.03 227.38,490.41 C230.52,496.14 233.71,501.34 234.47,501.98 C236.08,503.31 236.06,503.34 244.31,489.00 C247.32,483.77 250.39,479.50 251.14,479.50 C252.12,479.50 252.65,481.60 253.03,487.00 C253.48,493.45 253.13,495.89 250.50,504.44 L 247.45 514.39 L 241.98 517.66 C238.96,519.45 236.05,520.93 235.50,520.94 C234.95,520.95 232.29,519.73 229.58,518.23 ZM 828.24 517.89 C822.04,514.27 821.77,513.84 819.07,503.29 C816.76,494.21 816.16,478.55 818.15,479.22 C818.78,479.43 822.29,484.53 825.94,490.55 C829.59,496.57 833.23,501.50 834.03,501.50 C835.66,501.50 840.30,494.75 845.56,484.75 C847.51,481.04 849.53,478.00 850.05,478.00 C850.59,478.00 851.00,482.38 851.00,487.98 C851.00,496.07 850.51,499.43 848.40,505.73 C846.97,510.00 845.31,514.10 844.71,514.83 C843.81,515.93 834.71,521.05 833.78,520.98 C833.63,520.97 831.13,519.58 828.24,517.89 ZM 231.72 464.75 C227.01,460.51 227.00,460.48 225.33,450.14 C223.73,440.26 223.74,439.43 225.50,432.39 C226.51,428.32 227.88,425.00 228.54,425.00 C229.20,425.00 230.98,428.49 232.48,432.75 C237.61,447.21 239.14,451.00 239.89,451.00 C240.29,451.00 244.64,446.50 249.55,441.00 C257.90,431.64 261.00,429.27 261.00,432.25 C260.99,437.23 257.59,448.83 254.11,455.75 C250.38,463.14 249.45,464.25 245.01,466.50 C242.29,467.87 239.25,469.00 238.26,469.00 C237.26,469.00 234.32,467.09 231.72,464.75 ZM 826.10 467.20 L 820.70 465.63 L 815.95 455.50 C811.45,445.88 807.90,431.71 809.59,430.11 C809.95,429.78 812.55,432.17 815.37,435.44 C818.19,438.70 822.61,443.65 825.19,446.44 L 829.88 451.50 L 832.33 445.98 C833.67,442.95 836.00,436.99 837.51,432.73 C839.02,428.48 840.80,425.00 841.47,425.00 C842.15,425.00 843.45,428.39 844.48,432.90 C846.13,440.15 846.16,441.65 844.86,451.13 L 843.44 461.46 L 838.47 465.23 C832.91,469.43 833.48,469.34 826.10,467.20 ZM 243.65 414.99 C238.26,408.59 237.74,406.63 238.52,395.74 C239.27,385.25 242.53,374.76 245.21,374.21 C246.23,374.01 247.24,376.84 248.96,384.71 C251.67,397.11 252.60,400.00 253.84,400.00 C254.33,400.00 259.38,396.17 265.06,391.50 C270.74,386.83 275.75,383.00 276.19,383.00 C279.20,383.00 272.57,398.15 265.38,407.70 C259.63,415.34 257.63,416.68 250.50,417.65 C246.75,418.17 246.11,417.92 243.65,414.99 ZM 815.50 416.82 C810.87,415.95 810.10,415.36 805.15,408.90 C800.45,402.75 793.00,388.16 793.00,385.10 C793.00,382.73 795.86,384.34 804.50,391.59 C815.16,400.52 816.85,401.59 817.49,399.79 C817.75,399.08 818.99,392.65 820.24,385.50 C821.95,375.80 822.90,372.50 823.99,372.50 C826.36,372.50 830.70,387.13 831.47,397.73 L 832.15 406.96 L 826.93 412.48 C824.06,415.52 821.44,417.95 821.10,417.88 C820.77,417.82 818.25,417.34 815.50,416.82 ZM 267.10 368.74 C265.78,368.06 263.53,365.40 262.11,362.84 L 259.52 358.18 L 261.26 347.97 C262.80,338.95 263.53,336.97 267.58,330.88 C274.46,320.53 275.16,321.24 274.37,337.76 C273.51,355.72 273.64,355.85 285.10,348.85 C300.41,339.48 300.06,339.66 301.19,340.79 C302.98,342.58 293.72,355.89 285.50,363.33 C278.80,369.40 277.76,370.00 273.82,369.99 C271.44,369.98 268.42,369.41 267.10,368.74 ZM 783.32 362.31 C776.26,355.26 767.00,341.67 768.34,340.33 C769.10,339.56 776.65,343.20 785.93,348.81 C790.56,351.61 794.78,353.63 795.31,353.31 C795.91,352.94 796.01,347.26 795.58,338.36 C794.75,321.26 795.49,320.36 801.93,330.63 C804.76,335.13 806.91,340.38 808.65,347.01 L 811.21 356.77 L 807.69 362.27 C805.75,365.30 803.79,368.00 803.33,368.26 C802.87,368.53 799.95,369.06 796.82,369.44 L 791.15 370.13 L 783.32 362.31 ZM 297.26 325.88 C293.51,324.80 291.40,321.99 289.43,315.44 C288.05,310.86 288.10,310.62 291.76,302.29 C294.37,296.36 297.26,291.86 301.34,287.40 C304.55,283.87 307.52,281.21 307.94,281.47 C308.36,281.72 307.63,288.10 306.32,295.63 C305.00,303.16 304.28,309.67 304.71,310.10 C305.53,310.89 315.22,307.73 323.00,304.13 C327.46,302.06 333.00,301.30 333.00,302.75 C333.00,305.20 322.05,316.28 314.71,321.27 C305.97,327.20 303.81,327.78 297.26,325.88 ZM 756.00 322.02 C749.39,317.64 737.00,305.12 737.00,302.81 C737.00,301.04 741.85,302.21 752.74,306.62 C760.29,309.67 764.50,310.90 765.15,310.25 C765.81,309.59 765.19,304.66 763.34,295.69 C761.80,288.23 760.91,281.76 761.37,281.32 C762.33,280.39 772.31,290.98 774.68,295.43 C775.53,297.04 777.30,301.28 778.59,304.85 C780.65,310.54 780.81,311.90 779.83,315.92 C778.35,322.05 775.96,324.43 769.91,325.83 C767.12,326.47 764.54,327.00 764.17,327.00 C763.80,327.00 760.12,324.76 756.00,322.02 ZM 334.18 288.10 C331.25,287.09 328.43,285.83 327.91,285.31 C327.39,284.79 326.47,281.58 325.88,278.19 L 324.79 272.01 L 329.48 264.48 C335.37,255.03 345.78,245.03 349.75,245.01 C351.72,245.00 351.24,246.78 346.11,258.45 C343.46,264.48 341.51,270.22 341.76,271.20 C342.34,273.41 344.54,273.45 356.50,271.49 C371.56,269.01 371.58,269.03 363.49,276.81 C357.81,282.27 354.94,284.17 348.40,286.78 C343.96,288.55 340.14,289.99 339.91,289.97 C339.69,289.95 337.11,289.11 334.18,288.10 ZM 718.23 284.60 C712.21,281.54 706.11,277.56 703.48,274.98 C696.44,268.07 697.46,267.93 721.00,272.59 C724.58,273.30 727.81,273.56 728.19,273.19 C728.57,272.81 726.90,267.10 724.48,260.50 C722.06,253.90 720.06,247.94 720.04,247.25 C719.96,244.80 722.60,246.09 730.00,252.10 C740.05,260.27 745.37,269.15 744.50,276.29 C743.60,283.71 742.38,285.94 738.31,287.64 C731.45,290.51 729.18,290.16 718.23,284.60 ZM 374.78 257.45 C369.00,254.44 368.00,252.68 368.00,245.52 C368.00,238.35 369.55,235.45 376.70,229.26 C381.73,224.90 394.39,217.00 396.33,217.00 C398.09,217.00 396.49,220.96 390.97,230.30 C387.65,235.91 385.06,241.40 385.22,242.50 C385.48,244.36 386.46,244.53 399.50,245.00 L 413.50 245.50 L 409.00 248.61 C406.52,250.33 402.70,252.64 400.50,253.75 C396.74,255.65 382.49,260.06 380.44,259.95 C379.92,259.93 377.38,258.80 374.78,257.45 ZM 681.00 257.61 C672.46,255.43 664.94,251.92 659.50,247.58 L 656.57 245.25 L 663.77 244.52 C667.73,244.13 673.69,244.12 677.01,244.50 C686.06,245.55 686.77,244.48 682.53,236.06 C680.66,232.35 677.75,226.97 676.07,224.11 C672.58,218.21 672.33,217.00 674.60,217.00 C677.12,217.00 692.58,227.85 697.42,233.01 C701.42,237.29 701.87,238.31 702.53,244.41 C703.19,250.60 703.06,251.31 700.87,253.65 C695.43,259.48 691.41,260.28 681.00,257.61 ZM 453.49 224.75 C452.36,220.05 449.25,199.47 449.59,198.88 C449.79,198.55 452.77,197.74 456.23,197.10 C459.68,196.45 463.74,195.68 465.25,195.38 C467.67,194.91 468.00,195.15 468.00,197.39 C468.00,200.02 465.59,201.99 462.32,202.02 C459.33,202.04 458.03,203.41 458.67,205.84 C459.20,207.89 459.77,208.09 464.38,207.81 C469.25,207.51 469.50,207.62 469.50,209.99 C469.50,212.17 468.91,212.59 464.75,213.35 L 460.01 214.21 L 460.63 219.51 C461.18,224.17 461.01,224.92 459.19,225.90 C456.01,227.60 454.09,227.21 453.49,224.75 ZM 606.02 224.25 C600.93,221.69 598.00,216.76 598.00,210.75 C598.00,198.99 605.91,193.28 616.90,197.12 C619.89,198.16 620.08,198.51 619.80,202.37 C619.57,205.48 619.13,206.40 618.00,206.08 C617.17,205.85 614.87,205.47 612.87,205.24 C609.94,204.89 608.94,205.25 607.62,207.13 C603.97,212.34 607.75,219.00 614.36,219.00 C617.43,219.00 617.75,219.25 617.28,221.25 C616.13,226.07 611.89,227.20 606.02,224.25 ZM 518.53 204.95 C518.13,197.71 518.19,191.43 518.65,190.98 C519.12,190.53 521.03,190.01 522.89,189.83 C526.12,189.52 526.45,189.80 529.73,195.75 C531.63,199.19 533.48,201.99 533.84,201.98 C534.20,201.98 535.88,199.39 537.57,196.23 C540.49,190.79 540.86,190.48 544.85,190.19 L 549.06 189.88 L 548.78 203.69 L 548.50 217.50 L 545.00 217.50 L 541.50 217.50 L 541.19 212.00 C541.02,208.98 540.56,206.17 540.16,205.77 C539.77,205.37 538.34,206.83 536.99,209.02 C535.63,211.21 534.24,213.00 533.90,213.00 C533.55,213.00 531.97,211.09 530.38,208.75 L 527.50 204.50 L 527.00 211.00 L 526.50 217.50 L 522.88 217.80 L 519.26 218.11 L 518.53 204.95 ZM 935.56 446.93 C925.58,445.28 921.00,438.59 921.00,425.67 C921.00,417.85 921.04,417.72 924.79,413.98 C929.37,409.39 935.10,407.65 943.72,408.20 C950.38,408.62 953.67,410.34 957.41,415.34 C959.55,418.22 960.84,429.50 959.60,434.47 C958.61,438.41 953.29,443.73 948.70,445.38 C942.40,447.64 940.95,447.82 935.56,446.93 ZM 136.50 406.22 C133.75,404.13 129.29,400.91 126.58,399.05 C122.08,395.96 121.84,395.60 123.79,394.88 C126.44,393.90 146.97,391.64 147.59,392.26 C148.63,393.30 144.32,409.51 142.94,409.76 C142.15,409.90 139.25,408.31 136.50,406.22 ZM 165.00 301.46 C156.79,295.89 157.07,297.29 162.44,288.42 C169.75,276.37 172.70,273.00 175.93,273.00 C179.05,273.00 182.00,275.71 182.00,278.58 C182.00,279.64 180.39,283.16 178.43,286.41 C176.47,289.66 173.54,294.95 171.92,298.16 C170.30,301.37 168.87,303.96 168.74,303.91 C168.61,303.87 166.93,302.76 165.00,301.46 ZM 755.36 181.01 C743.94,178.43 736.86,166.66 739.91,155.32 C741.33,150.08 749.49,142.37 754.65,141.41 C759.69,140.46 766.71,141.66 770.76,144.16 C775.68,147.20 779.46,155.60 778.64,161.62 C776.88,174.46 766.10,183.43 755.36,181.01 ZM 374.50 144.10 C366.65,140.47 361.98,132.62 362.02,123.12 C362.06,115.73 364.96,110.63 371.17,107.07 C383.30,100.12 396.65,105.77 400.05,119.29 C402.68,129.74 398.72,138.97 389.69,143.47 C383.68,146.46 379.93,146.62 374.50,144.10 ZM 584.61 727.17 C584.28,726.65 584.77,725.61 585.68,724.86 C590.17,721.17 607.46,701.02 616.24,689.25 C625.33,677.07 626.39,676.00 629.32,676.01 C632.48,676.03 663.95,683.80 669.31,685.90 C670.86,686.50 671.83,687.46 671.48,688.03 C671.13,688.60 666.04,692.23 660.17,696.10 C645.48,705.77 624.37,715.90 606.50,721.85 C589.42,727.54 585.43,728.51 584.61,727.17 ZM 679.50 665.87 C672.90,663.72 662.10,660.55 655.50,658.85 C648.90,657.14 642.99,655.34 642.36,654.85 C641.56,654.21 642.92,650.69 647.05,642.72 C652.84,631.56 662.65,608.41 665.08,600.19 L 666.35 595.88 L 670.43 596.47 C677.53,597.50 729.36,610.03 734.25,611.90 C735.76,612.48 737.00,613.59 737.00,614.38 C737.00,616.27 721.33,639.66 714.52,647.93 C705.54,658.83 694.59,670.01 693.00,669.90 C692.17,669.84 686.10,668.03 679.50,665.87 ZM 469.50 723.52 C446.25,716.35 428.10,707.88 407.63,694.65 C395.29,686.68 395.09,687.69 409.85,683.35 C419.78,680.43 439.07,676.00 441.86,676.00 C443.19,676.00 445.64,678.57 449.39,683.93 C456.17,693.61 467.07,706.75 477.33,717.64 C481.55,722.12 485.00,726.05 485.00,726.39 C485.00,727.69 480.07,726.78 469.50,723.52 ZM 367.29 660.62 C357.94,650.75 348.22,638.45 341.49,628.00 C338.83,623.88 335.62,618.94 334.35,617.03 C333.07,615.13 332.36,613.27 332.77,612.90 C334.66,611.16 394.96,596.02 400.04,596.01 C402.37,596.00 403.00,597.09 407.92,609.75 C410.86,617.31 416.79,630.33 421.09,638.67 C426.87,649.89 428.59,654.08 427.70,654.77 C427.04,655.28 421.37,656.93 415.10,658.43 C408.83,659.93 398.05,662.92 391.13,665.08 C384.21,667.23 377.80,669.00 376.89,669.00 C375.97,669.00 371.65,665.23 367.29,660.62 ZM 389.50 405.52 C368.00,401.01 332.00,391.54 332.00,390.39 C332.00,389.40 340.80,375.36 347.03,366.43 C357.25,351.75 372.99,334.00 375.78,334.00 C376.59,334.00 384.13,336.23 392.54,338.95 C400.95,341.67 412.52,344.93 418.26,346.18 L 428.69 348.46 L 421.06 364.01 C416.86,372.55 411.23,385.39 408.53,392.52 C403.72,405.28 402.37,408.09 401.13,407.91 C400.78,407.86 395.55,406.79 389.50,405.52 ZM 427.10 325.42 C413.68,322.33 401.00,318.46 398.62,316.72 C396.90,315.45 397.57,314.81 407.12,308.62 C422.47,298.67 445.12,287.92 463.21,282.00 C484.55,275.01 485.33,275.27 475.38,286.02 C464.55,297.72 459.82,303.48 450.43,316.40 C444.23,324.92 441.79,327.54 439.93,327.66 C438.59,327.75 432.82,326.74 427.10,325.42 ZM 667.01 405.75 C666.49,404.51 663.97,398.10 661.41,391.50 C656.13,377.87 649.85,364.41 644.52,355.24 C641.90,350.74 641.24,348.86 642.19,348.55 C642.91,348.31 649.58,346.54 657.00,344.61 C664.42,342.68 674.72,339.76 679.87,338.11 C695.58,333.08 693.38,332.57 704.09,343.75 C714.19,354.31 722.86,365.92 731.75,380.81 C736.49,388.74 737.11,390.31 735.91,391.45 C734.61,392.67 716.81,397.25 683.34,404.97 C676.10,406.63 669.68,408.00 669.07,408.00 C668.46,408.00 667.53,406.99 667.01,405.75 ZM 619.87 316.74 C610.11,303.58 601.47,293.33 591.63,283.25 C587.74,279.26 585.13,276.00 585.83,276.00 C588.08,276.00 604.37,280.83 615.02,284.65 C634.37,291.60 671.00,311.79 671.00,315.51 C671.00,317.47 653.90,322.53 630.35,327.53 C628.58,327.91 626.75,326.03 619.87,316.74 Z" fill="rgb(246,243,244)"/>
</g>
</svg>